G75*
%MOIN*%
%OFA0B0*%
%FSLAX25Y25*%
%IPPOS*%
%LPD*%
%AMOC8*
5,1,8,0,0,1.08239X$1,22.5*
%
%ADD10C,0.10000*%
%ADD11R,0.13055X0.13055*%
%ADD12OC8,0.05937*%
%ADD13C,0.05200*%
%ADD14C,0.03962*%
%ADD15C,0.24409*%
%ADD16C,0.04750*%
%ADD17C,0.01600*%
%ADD18C,0.05000*%
D10*
X0319440Y0042323D02*
X0319440Y0052323D01*
X0339440Y0052323D02*
X0339440Y0042323D01*
X0359440Y0042323D02*
X0359440Y0052323D01*
X0379440Y0052323D02*
X0379440Y0042323D01*
D11*
X0396094Y0025866D03*
X0302787Y0025866D03*
D12*
X0278495Y0047205D03*
X0278495Y0057205D03*
X0268495Y0057205D03*
X0268495Y0047205D03*
X0258495Y0047205D03*
X0258495Y0057205D03*
X0248495Y0057205D03*
X0248495Y0047205D03*
X0238495Y0047205D03*
X0238495Y0057205D03*
X0228495Y0057205D03*
X0228495Y0047205D03*
X0218495Y0047205D03*
X0218495Y0057205D03*
X0208495Y0057205D03*
X0208495Y0047205D03*
X0198495Y0047205D03*
X0198495Y0057205D03*
X0188495Y0057205D03*
X0188495Y0047205D03*
X0178495Y0047205D03*
X0178495Y0057205D03*
X0168495Y0057205D03*
X0168495Y0047205D03*
X0158495Y0047205D03*
X0158495Y0057205D03*
X0148495Y0057205D03*
X0148495Y0047205D03*
X0138495Y0047205D03*
X0138495Y0057205D03*
X0128495Y0057205D03*
X0128495Y0047205D03*
X0118495Y0047205D03*
X0118495Y0057205D03*
X0108495Y0057205D03*
X0108495Y0047205D03*
X0098495Y0047205D03*
X0098495Y0057205D03*
X0088495Y0057205D03*
X0088495Y0047205D03*
X0078495Y0047205D03*
X0078495Y0057205D03*
X0068495Y0057205D03*
X0068495Y0047205D03*
X0058495Y0047205D03*
X0058495Y0057205D03*
X0048495Y0057205D03*
X0048495Y0047205D03*
X0038495Y0047205D03*
X0038495Y0057205D03*
X0062708Y0115000D03*
X0072708Y0115000D03*
X0082708Y0115000D03*
X0092708Y0115000D03*
X0102708Y0115000D03*
X0112708Y0115000D03*
X0122708Y0115000D03*
X0132708Y0115000D03*
X0142708Y0115000D03*
X0152708Y0115000D03*
X0162708Y0115000D03*
X0172708Y0115000D03*
X0182708Y0115000D03*
X0192708Y0115000D03*
X0202708Y0115000D03*
X0212708Y0115000D03*
X0222708Y0115000D03*
X0232708Y0115000D03*
X0242708Y0115000D03*
X0252708Y0115000D03*
X0252708Y0175000D03*
X0242708Y0175000D03*
X0232708Y0175000D03*
X0222708Y0175000D03*
X0212708Y0175000D03*
X0202708Y0175000D03*
X0192708Y0175000D03*
X0182708Y0175000D03*
X0172708Y0175000D03*
X0162708Y0175000D03*
X0152708Y0175000D03*
X0142708Y0175000D03*
X0132708Y0175000D03*
X0122708Y0175000D03*
X0112708Y0175000D03*
X0102708Y0175000D03*
X0092708Y0175000D03*
X0082708Y0175000D03*
X0072708Y0175000D03*
X0062708Y0175000D03*
D13*
X0058708Y0078100D02*
X0058708Y0072900D01*
X0068708Y0072900D02*
X0068708Y0078100D01*
X0078708Y0078100D02*
X0078708Y0072900D01*
X0088708Y0072900D02*
X0088708Y0078100D01*
X0098708Y0078100D02*
X0098708Y0072900D01*
X0108708Y0072900D02*
X0108708Y0078100D01*
X0118708Y0078100D02*
X0118708Y0072900D01*
X0128708Y0072900D02*
X0128708Y0078100D01*
X0188299Y0078100D02*
X0188299Y0072900D01*
X0198299Y0072900D02*
X0198299Y0078100D01*
X0208299Y0078100D02*
X0208299Y0072900D01*
X0218299Y0072900D02*
X0218299Y0078100D01*
X0228299Y0078100D02*
X0228299Y0072900D01*
X0238299Y0072900D02*
X0238299Y0078100D01*
X0248299Y0078100D02*
X0248299Y0072900D01*
X0258299Y0072900D02*
X0258299Y0078100D01*
X0268299Y0078100D02*
X0268299Y0072900D01*
X0278299Y0072900D02*
X0278299Y0078100D01*
X0048708Y0078100D02*
X0048708Y0072900D01*
X0038708Y0072900D02*
X0038708Y0078100D01*
D14*
X0052708Y0645000D03*
D15*
X0020228Y0167520D03*
X0395188Y0167520D03*
D16*
X0362708Y0128000D03*
X0355708Y0122500D03*
X0362708Y0110000D03*
X0332708Y0122500D03*
X0302708Y0125000D03*
X0272708Y0098760D03*
X0234208Y0097000D03*
X0234208Y0105000D03*
X0212708Y0097000D03*
X0202708Y0105000D03*
X0272708Y0185000D03*
X0302708Y0170000D03*
D17*
X0012508Y0156036D02*
X0012508Y0009800D01*
X0402908Y0009800D01*
X0402908Y0017739D01*
X0388904Y0017739D01*
X0387966Y0018676D01*
X0387966Y0033056D01*
X0388904Y0033994D01*
X0402908Y0033994D01*
X0402908Y0156036D01*
X0400517Y0154656D01*
X0397006Y0153715D01*
X0393371Y0153715D01*
X0389860Y0154656D01*
X0386712Y0156473D01*
X0384142Y0159043D01*
X0382324Y0162191D01*
X0381384Y0165702D01*
X0381384Y0169337D01*
X0382324Y0172848D01*
X0384142Y0175996D01*
X0386712Y0178566D01*
X0389860Y0180384D01*
X0393371Y0181324D01*
X0397006Y0181324D01*
X0400517Y0180384D01*
X0402908Y0179003D01*
X0402908Y0197050D01*
X0012508Y0197050D01*
X0012508Y0179003D01*
X0014899Y0180384D01*
X0018410Y0181324D01*
X0022045Y0181324D01*
X0025556Y0180384D01*
X0028704Y0178566D01*
X0031274Y0175996D01*
X0033092Y0172848D01*
X0034032Y0169337D01*
X0034032Y0165702D01*
X0033092Y0162191D01*
X0031274Y0159043D01*
X0028704Y0156473D01*
X0025556Y0154656D01*
X0022045Y0153715D01*
X0018410Y0153715D01*
X0014899Y0154656D01*
X0012508Y0156036D01*
X0012508Y0155260D02*
X0013853Y0155260D01*
X0012508Y0153662D02*
X0087976Y0153662D01*
X0089574Y0155260D02*
X0026603Y0155260D01*
X0029089Y0156859D02*
X0091173Y0156859D01*
X0092771Y0158457D02*
X0030688Y0158457D01*
X0031859Y0160056D02*
X0094370Y0160056D01*
X0095968Y0161654D02*
X0032782Y0161654D01*
X0033376Y0163253D02*
X0097567Y0163253D01*
X0099165Y0164851D02*
X0033804Y0164851D01*
X0034032Y0166450D02*
X0100764Y0166450D01*
X0100673Y0166359D02*
X0036673Y0102359D01*
X0036308Y0101477D01*
X0036308Y0081640D01*
X0035147Y0080479D01*
X0034508Y0078935D01*
X0034508Y0072065D01*
X0035147Y0070521D01*
X0036308Y0069360D01*
X0036308Y0068523D01*
X0036673Y0067641D01*
X0041308Y0063006D01*
X0041308Y0061136D01*
X0040471Y0061973D01*
X0038680Y0061973D01*
X0038680Y0057389D01*
X0038311Y0057389D01*
X0038311Y0057020D01*
X0038680Y0057020D01*
X0038680Y0052436D01*
X0040250Y0052436D01*
X0039587Y0051773D01*
X0036603Y0051773D01*
X0033927Y0049097D01*
X0033927Y0045312D01*
X0036603Y0042636D01*
X0040388Y0042636D01*
X0043064Y0045312D01*
X0043064Y0048462D01*
X0045068Y0050465D01*
X0045743Y0051141D01*
X0046108Y0052023D01*
X0046108Y0052848D01*
X0046520Y0052436D01*
X0048311Y0052436D01*
X0048311Y0057020D01*
X0048680Y0057020D01*
X0048680Y0052436D01*
X0050471Y0052436D01*
X0051308Y0053274D01*
X0051308Y0052994D01*
X0050087Y0051773D01*
X0046603Y0051773D01*
X0043927Y0049097D01*
X0043927Y0045312D01*
X0046603Y0042636D01*
X0050388Y0042636D01*
X0053064Y0045312D01*
X0053064Y0047962D01*
X0053927Y0048825D01*
X0053927Y0045312D01*
X0056603Y0042636D01*
X0060388Y0042636D01*
X0063064Y0045312D01*
X0063064Y0048462D01*
X0065068Y0050465D01*
X0065743Y0051141D01*
X0066108Y0052023D01*
X0066108Y0052848D01*
X0066520Y0052436D01*
X0068311Y0052436D01*
X0068311Y0057020D01*
X0068680Y0057020D01*
X0068680Y0052436D01*
X0070250Y0052436D01*
X0069587Y0051773D01*
X0066603Y0051773D01*
X0063927Y0049097D01*
X0063927Y0045312D01*
X0066603Y0042636D01*
X0070388Y0042636D01*
X0073064Y0045312D01*
X0073064Y0048462D01*
X0075068Y0050465D01*
X0075743Y0051141D01*
X0076108Y0052023D01*
X0076108Y0052848D01*
X0076520Y0052436D01*
X0078311Y0052436D01*
X0078311Y0057020D01*
X0078680Y0057020D01*
X0078680Y0052436D01*
X0080250Y0052436D01*
X0079587Y0051773D01*
X0076603Y0051773D01*
X0073927Y0049097D01*
X0073927Y0045312D01*
X0076603Y0042636D01*
X0080388Y0042636D01*
X0083064Y0045312D01*
X0083064Y0048462D01*
X0085068Y0050465D01*
X0085743Y0051141D01*
X0086108Y0052023D01*
X0086108Y0052848D01*
X0086520Y0052436D01*
X0088311Y0052436D01*
X0088311Y0057020D01*
X0088680Y0057020D01*
X0088680Y0052436D01*
X0090250Y0052436D01*
X0089587Y0051773D01*
X0086603Y0051773D01*
X0083927Y0049097D01*
X0083927Y0045312D01*
X0086603Y0042636D01*
X0090388Y0042636D01*
X0093064Y0045312D01*
X0093064Y0048462D01*
X0095068Y0050465D01*
X0095743Y0051141D01*
X0096108Y0052023D01*
X0096108Y0052848D01*
X0096520Y0052436D01*
X0098311Y0052436D01*
X0098311Y0057020D01*
X0098680Y0057020D01*
X0098680Y0052436D01*
X0100250Y0052436D01*
X0099587Y0051773D01*
X0096603Y0051773D01*
X0093927Y0049097D01*
X0093927Y0045312D01*
X0096603Y0042636D01*
X0100388Y0042636D01*
X0103064Y0045312D01*
X0103064Y0048462D01*
X0105068Y0050465D01*
X0105743Y0051141D01*
X0106108Y0052023D01*
X0106108Y0052848D01*
X0106520Y0052436D01*
X0108311Y0052436D01*
X0108311Y0057020D01*
X0108680Y0057020D01*
X0108680Y0052436D01*
X0110250Y0052436D01*
X0109587Y0051773D01*
X0106603Y0051773D01*
X0103927Y0049097D01*
X0103927Y0045312D01*
X0106603Y0042636D01*
X0110388Y0042636D01*
X0113064Y0045312D01*
X0113064Y0048462D01*
X0113727Y0049125D01*
X0113727Y0047389D01*
X0118311Y0047389D01*
X0118311Y0047020D01*
X0118680Y0047020D01*
X0118680Y0042436D01*
X0120471Y0042436D01*
X0123264Y0045230D01*
X0123264Y0047020D01*
X0118680Y0047020D01*
X0118680Y0047389D01*
X0123264Y0047389D01*
X0123264Y0049050D01*
X0123927Y0048387D01*
X0123927Y0045312D01*
X0126603Y0042636D01*
X0130388Y0042636D01*
X0133064Y0045312D01*
X0133064Y0049097D01*
X0130388Y0051773D01*
X0127329Y0051773D01*
X0126666Y0052436D01*
X0128311Y0052436D01*
X0128311Y0057020D01*
X0128680Y0057020D01*
X0128680Y0052436D01*
X0130471Y0052436D01*
X0133264Y0055230D01*
X0133264Y0057020D01*
X0128680Y0057020D01*
X0128680Y0057389D01*
X0133264Y0057389D01*
X0133264Y0059180D01*
X0130471Y0061973D01*
X0128680Y0061973D01*
X0128680Y0057389D01*
X0128311Y0057389D01*
X0128311Y0061973D01*
X0126520Y0061973D01*
X0126108Y0061561D01*
X0126108Y0064477D01*
X0125743Y0065359D01*
X0125068Y0066035D01*
X0121425Y0069677D01*
X0122269Y0070521D01*
X0122908Y0072065D01*
X0122908Y0078935D01*
X0122269Y0080479D01*
X0121108Y0081640D01*
X0121108Y0090006D01*
X0139068Y0107965D01*
X0139743Y0108641D01*
X0140108Y0109523D01*
X0140108Y0111139D01*
X0140816Y0110431D01*
X0144600Y0110431D01*
X0147277Y0113108D01*
X0147277Y0116892D01*
X0144600Y0119568D01*
X0140816Y0119568D01*
X0140108Y0118861D01*
X0140108Y0119006D01*
X0173702Y0152600D01*
X0193185Y0152600D01*
X0194068Y0152965D01*
X0211534Y0170431D01*
X0214600Y0170431D01*
X0217277Y0173108D01*
X0217277Y0176892D01*
X0216069Y0178100D01*
X0219347Y0178100D01*
X0218140Y0176892D01*
X0218140Y0173826D01*
X0196349Y0152035D01*
X0196349Y0152035D01*
X0195673Y0151359D01*
X0195308Y0150477D01*
X0195308Y0118861D01*
X0194600Y0119568D01*
X0190816Y0119568D01*
X0188140Y0116892D01*
X0188140Y0113108D01*
X0190816Y0110431D01*
X0194600Y0110431D01*
X0195308Y0111139D01*
X0195308Y0081049D01*
X0194738Y0080479D01*
X0194099Y0078935D01*
X0194099Y0072065D01*
X0194738Y0070521D01*
X0195899Y0069360D01*
X0195899Y0068932D01*
X0196264Y0068050D01*
X0196939Y0067375D01*
X0201308Y0063006D01*
X0201308Y0061136D01*
X0200471Y0061973D01*
X0198680Y0061973D01*
X0198680Y0057389D01*
X0198311Y0057389D01*
X0198311Y0061973D01*
X0196520Y0061973D01*
X0196108Y0061561D01*
X0196108Y0064477D01*
X0195743Y0065359D01*
X0195068Y0066035D01*
X0191220Y0069882D01*
X0191859Y0070521D01*
X0192499Y0072065D01*
X0192499Y0078935D01*
X0191859Y0080479D01*
X0190699Y0081640D01*
X0190699Y0109887D01*
X0190333Y0110769D01*
X0187277Y0113826D01*
X0187277Y0116892D01*
X0184600Y0119568D01*
X0180816Y0119568D01*
X0178140Y0116892D01*
X0178140Y0113108D01*
X0180816Y0110431D01*
X0183882Y0110431D01*
X0185899Y0108415D01*
X0185899Y0081640D01*
X0184738Y0080479D01*
X0184099Y0078935D01*
X0184099Y0072065D01*
X0184738Y0070521D01*
X0185899Y0069360D01*
X0185899Y0068932D01*
X0186264Y0068050D01*
X0186939Y0067375D01*
X0191308Y0063006D01*
X0191308Y0061136D01*
X0190471Y0061973D01*
X0188680Y0061973D01*
X0188680Y0057389D01*
X0188311Y0057389D01*
X0188311Y0057020D01*
X0188680Y0057020D01*
X0188680Y0052436D01*
X0190471Y0052436D01*
X0191308Y0053274D01*
X0191308Y0051523D01*
X0191582Y0050862D01*
X0190471Y0051973D01*
X0188680Y0051973D01*
X0188680Y0047389D01*
X0193264Y0047389D01*
X0193264Y0049050D01*
X0193927Y0048387D01*
X0193927Y0045312D01*
X0196603Y0042636D01*
X0200388Y0042636D01*
X0203064Y0045312D01*
X0203064Y0049097D01*
X0200388Y0051773D01*
X0197329Y0051773D01*
X0196666Y0052436D01*
X0198311Y0052436D01*
X0198311Y0057020D01*
X0198680Y0057020D01*
X0198680Y0052436D01*
X0200471Y0052436D01*
X0201308Y0053274D01*
X0201308Y0051523D01*
X0201673Y0050641D01*
X0202349Y0049965D01*
X0203927Y0048387D01*
X0203927Y0045312D01*
X0206603Y0042636D01*
X0210388Y0042636D01*
X0213064Y0045312D01*
X0213064Y0049097D01*
X0210388Y0051773D01*
X0207329Y0051773D01*
X0206666Y0052436D01*
X0208311Y0052436D01*
X0208311Y0057020D01*
X0208680Y0057020D01*
X0208680Y0052436D01*
X0210471Y0052436D01*
X0211308Y0053274D01*
X0211308Y0051523D01*
X0211673Y0050641D01*
X0212349Y0049965D01*
X0213927Y0048387D01*
X0213927Y0045312D01*
X0216603Y0042636D01*
X0220388Y0042636D01*
X0223064Y0045312D01*
X0223064Y0049097D01*
X0220388Y0051773D01*
X0217329Y0051773D01*
X0216666Y0052436D01*
X0218311Y0052436D01*
X0218311Y0057020D01*
X0218680Y0057020D01*
X0218680Y0052436D01*
X0220471Y0052436D01*
X0221308Y0053274D01*
X0221308Y0051523D01*
X0221673Y0050641D01*
X0222349Y0049965D01*
X0223927Y0048387D01*
X0223927Y0045312D01*
X0226603Y0042636D01*
X0230388Y0042636D01*
X0233064Y0045312D01*
X0233064Y0049097D01*
X0230388Y0051773D01*
X0227329Y0051773D01*
X0226666Y0052436D01*
X0228311Y0052436D01*
X0228311Y0057020D01*
X0228680Y0057020D01*
X0228680Y0052436D01*
X0230471Y0052436D01*
X0231308Y0053274D01*
X0231308Y0051523D01*
X0231673Y0050641D01*
X0232349Y0049965D01*
X0233927Y0048387D01*
X0233927Y0045312D01*
X0236603Y0042636D01*
X0240388Y0042636D01*
X0243064Y0045312D01*
X0243064Y0049097D01*
X0240388Y0051773D01*
X0237329Y0051773D01*
X0236666Y0052436D01*
X0238311Y0052436D01*
X0238311Y0057020D01*
X0238680Y0057020D01*
X0238680Y0052436D01*
X0240471Y0052436D01*
X0241308Y0053274D01*
X0241308Y0051523D01*
X0241673Y0050641D01*
X0242349Y0049965D01*
X0243927Y0048387D01*
X0243927Y0045312D01*
X0246603Y0042636D01*
X0250388Y0042636D01*
X0253064Y0045312D01*
X0253064Y0049097D01*
X0250388Y0051773D01*
X0247329Y0051773D01*
X0246666Y0052436D01*
X0248311Y0052436D01*
X0248311Y0057020D01*
X0248680Y0057020D01*
X0248680Y0052436D01*
X0250471Y0052436D01*
X0251308Y0053274D01*
X0251308Y0051523D01*
X0251673Y0050641D01*
X0252349Y0049965D01*
X0253927Y0048387D01*
X0253927Y0045312D01*
X0256603Y0042636D01*
X0260388Y0042636D01*
X0263064Y0045312D01*
X0263064Y0049097D01*
X0260388Y0051773D01*
X0257329Y0051773D01*
X0256666Y0052436D01*
X0258311Y0052436D01*
X0258311Y0057020D01*
X0258680Y0057020D01*
X0258680Y0052436D01*
X0260471Y0052436D01*
X0261308Y0053274D01*
X0261308Y0051523D01*
X0261673Y0050641D01*
X0262349Y0049965D01*
X0263927Y0048387D01*
X0263927Y0045312D01*
X0266603Y0042636D01*
X0270388Y0042636D01*
X0273064Y0045312D01*
X0273064Y0049097D01*
X0270388Y0051773D01*
X0267329Y0051773D01*
X0266666Y0052436D01*
X0268311Y0052436D01*
X0268311Y0057020D01*
X0268680Y0057020D01*
X0268680Y0052436D01*
X0270471Y0052436D01*
X0271308Y0053274D01*
X0271308Y0051523D01*
X0271673Y0050641D01*
X0272349Y0049965D01*
X0273927Y0048387D01*
X0273927Y0045312D01*
X0276603Y0042636D01*
X0280388Y0042636D01*
X0283064Y0045312D01*
X0283064Y0049097D01*
X0280388Y0051773D01*
X0277329Y0051773D01*
X0276666Y0052436D01*
X0278311Y0052436D01*
X0278311Y0057020D01*
X0278680Y0057020D01*
X0278680Y0052436D01*
X0280471Y0052436D01*
X0283264Y0055230D01*
X0283264Y0057020D01*
X0278680Y0057020D01*
X0278680Y0057389D01*
X0283264Y0057389D01*
X0283264Y0059180D01*
X0280471Y0061973D01*
X0278680Y0061973D01*
X0278680Y0057389D01*
X0278311Y0057389D01*
X0278311Y0061973D01*
X0276520Y0061973D01*
X0276108Y0061561D01*
X0276108Y0064477D01*
X0275743Y0065359D01*
X0271220Y0069882D01*
X0271859Y0070521D01*
X0272499Y0072065D01*
X0272499Y0078935D01*
X0271859Y0080479D01*
X0270699Y0081640D01*
X0270699Y0084887D01*
X0270333Y0085769D01*
X0269658Y0086444D01*
X0265108Y0090994D01*
X0265108Y0180477D01*
X0264743Y0181359D01*
X0259068Y0187035D01*
X0258185Y0187400D01*
X0107231Y0187400D01*
X0106349Y0187035D01*
X0105673Y0186359D01*
X0100673Y0181359D01*
X0100308Y0180477D01*
X0100308Y0179061D01*
X0098140Y0176892D01*
X0098140Y0173108D01*
X0099347Y0171900D01*
X0099202Y0171900D01*
X0097277Y0173826D01*
X0097277Y0176892D01*
X0094600Y0179568D01*
X0090816Y0179568D01*
X0088140Y0176892D01*
X0088140Y0173108D01*
X0090816Y0170431D01*
X0093882Y0170431D01*
X0096849Y0167465D01*
X0097731Y0167100D01*
X0101506Y0167100D01*
X0101349Y0167035D01*
X0100673Y0166359D01*
X0102708Y0165000D02*
X0105208Y0165000D01*
X0112208Y0172000D01*
X0112208Y0174500D01*
X0112708Y0175000D01*
X0116069Y0178100D02*
X0119347Y0178100D01*
X0118140Y0176892D01*
X0118140Y0173826D01*
X0065673Y0121359D01*
X0065308Y0120477D01*
X0065308Y0118861D01*
X0064600Y0119568D01*
X0060816Y0119568D01*
X0058140Y0116892D01*
X0058140Y0113108D01*
X0060816Y0110431D01*
X0064600Y0110431D01*
X0065308Y0111139D01*
X0065308Y0110994D01*
X0046673Y0092359D01*
X0046308Y0091477D01*
X0046308Y0081640D01*
X0045147Y0080479D01*
X0044508Y0078935D01*
X0044508Y0072065D01*
X0045147Y0070521D01*
X0046308Y0069360D01*
X0046308Y0068523D01*
X0046673Y0067641D01*
X0051308Y0063006D01*
X0051308Y0061136D01*
X0050471Y0061973D01*
X0048680Y0061973D01*
X0048680Y0057389D01*
X0048311Y0057389D01*
X0048311Y0061973D01*
X0046520Y0061973D01*
X0046108Y0061561D01*
X0046108Y0064477D01*
X0045743Y0065359D01*
X0041425Y0069677D01*
X0042269Y0070521D01*
X0042908Y0072065D01*
X0042908Y0078935D01*
X0042269Y0080479D01*
X0041108Y0081640D01*
X0041108Y0100006D01*
X0103702Y0162600D01*
X0105685Y0162600D01*
X0106568Y0162965D01*
X0113568Y0169965D01*
X0114034Y0170431D01*
X0114600Y0170431D01*
X0117277Y0173108D01*
X0117277Y0176892D01*
X0116069Y0178100D01*
X0116530Y0177639D02*
X0118886Y0177639D01*
X0118140Y0176041D02*
X0117277Y0176041D01*
X0117277Y0174442D02*
X0118140Y0174442D01*
X0117158Y0172844D02*
X0117013Y0172844D01*
X0115559Y0171245D02*
X0115414Y0171245D01*
X0113961Y0169647D02*
X0113249Y0169647D01*
X0112362Y0168048D02*
X0111650Y0168048D01*
X0110764Y0166450D02*
X0110052Y0166450D01*
X0109165Y0164851D02*
X0108453Y0164851D01*
X0107567Y0163253D02*
X0106855Y0163253D01*
X0105968Y0161654D02*
X0102756Y0161654D01*
X0101158Y0160056D02*
X0104370Y0160056D01*
X0102771Y0158457D02*
X0099559Y0158457D01*
X0097961Y0156859D02*
X0101173Y0156859D01*
X0099574Y0155260D02*
X0096362Y0155260D01*
X0094764Y0153662D02*
X0097976Y0153662D01*
X0096377Y0152063D02*
X0093165Y0152063D01*
X0091567Y0150465D02*
X0094778Y0150465D01*
X0093180Y0148866D02*
X0089968Y0148866D01*
X0088370Y0147268D02*
X0091581Y0147268D01*
X0089983Y0145669D02*
X0086771Y0145669D01*
X0085173Y0144070D02*
X0088384Y0144070D01*
X0086786Y0142472D02*
X0083574Y0142472D01*
X0081976Y0140873D02*
X0085187Y0140873D01*
X0083589Y0139275D02*
X0080377Y0139275D01*
X0078779Y0137676D02*
X0081990Y0137676D01*
X0080392Y0136078D02*
X0077180Y0136078D01*
X0075582Y0134479D02*
X0078793Y0134479D01*
X0077195Y0132881D02*
X0073983Y0132881D01*
X0072385Y0131282D02*
X0075596Y0131282D01*
X0073998Y0129684D02*
X0070786Y0129684D01*
X0069188Y0128085D02*
X0072399Y0128085D01*
X0070801Y0126487D02*
X0067589Y0126487D01*
X0065991Y0124888D02*
X0069202Y0124888D01*
X0067604Y0123290D02*
X0064392Y0123290D01*
X0062794Y0121691D02*
X0066005Y0121691D01*
X0065308Y0120093D02*
X0061195Y0120093D01*
X0059742Y0118494D02*
X0059596Y0118494D01*
X0058143Y0116896D02*
X0057998Y0116896D01*
X0058140Y0115297D02*
X0056399Y0115297D01*
X0054801Y0113699D02*
X0058140Y0113699D01*
X0059147Y0112100D02*
X0053202Y0112100D01*
X0051604Y0110502D02*
X0060745Y0110502D01*
X0063217Y0108903D02*
X0050005Y0108903D01*
X0048407Y0107305D02*
X0061619Y0107305D01*
X0060020Y0105706D02*
X0046808Y0105706D01*
X0045210Y0104108D02*
X0058422Y0104108D01*
X0056823Y0102509D02*
X0043611Y0102509D01*
X0042013Y0100911D02*
X0055225Y0100911D01*
X0053626Y0099312D02*
X0041108Y0099312D01*
X0041108Y0097714D02*
X0052028Y0097714D01*
X0050429Y0096115D02*
X0041108Y0096115D01*
X0041108Y0094517D02*
X0048831Y0094517D01*
X0047232Y0092918D02*
X0041108Y0092918D01*
X0041108Y0091320D02*
X0046308Y0091320D01*
X0046308Y0089721D02*
X0041108Y0089721D01*
X0041108Y0088123D02*
X0046308Y0088123D01*
X0046308Y0086524D02*
X0041108Y0086524D01*
X0041108Y0084926D02*
X0046308Y0084926D01*
X0046308Y0083327D02*
X0041108Y0083327D01*
X0041108Y0081729D02*
X0046308Y0081729D01*
X0045003Y0080130D02*
X0042413Y0080130D01*
X0042908Y0078532D02*
X0044508Y0078532D01*
X0044508Y0076933D02*
X0042908Y0076933D01*
X0042908Y0075334D02*
X0044508Y0075334D01*
X0044508Y0073736D02*
X0042908Y0073736D01*
X0042908Y0072137D02*
X0044508Y0072137D01*
X0045140Y0070539D02*
X0042276Y0070539D01*
X0042162Y0068940D02*
X0046308Y0068940D01*
X0046972Y0067342D02*
X0043760Y0067342D01*
X0045359Y0065743D02*
X0048571Y0065743D01*
X0050169Y0064145D02*
X0046108Y0064145D01*
X0046108Y0062546D02*
X0051308Y0062546D01*
X0053708Y0064000D02*
X0053708Y0052000D01*
X0048913Y0047205D01*
X0048495Y0047205D01*
X0043927Y0046561D02*
X0043064Y0046561D01*
X0043064Y0048160D02*
X0043927Y0048160D01*
X0044360Y0049758D02*
X0044588Y0049758D01*
X0045068Y0050465D02*
X0045068Y0050465D01*
X0045832Y0051357D02*
X0046187Y0051357D01*
X0048311Y0052955D02*
X0048680Y0052955D01*
X0048680Y0054554D02*
X0048311Y0054554D01*
X0048311Y0056152D02*
X0048680Y0056152D01*
X0048680Y0057751D02*
X0048311Y0057751D01*
X0048311Y0059349D02*
X0048680Y0059349D01*
X0048680Y0060948D02*
X0048311Y0060948D01*
X0043708Y0064000D02*
X0043708Y0052500D01*
X0038495Y0047287D01*
X0038495Y0047205D01*
X0033927Y0046561D02*
X0012508Y0046561D01*
X0012508Y0044963D02*
X0034277Y0044963D01*
X0035875Y0043364D02*
X0012508Y0043364D01*
X0012508Y0041766D02*
X0312840Y0041766D01*
X0312840Y0041010D02*
X0313845Y0038584D01*
X0315702Y0036728D01*
X0318128Y0035723D01*
X0320753Y0035723D01*
X0323179Y0036728D01*
X0325036Y0038584D01*
X0326040Y0041010D01*
X0326040Y0053636D01*
X0325036Y0056061D01*
X0323179Y0057918D01*
X0320753Y0058923D01*
X0318128Y0058923D01*
X0315702Y0057918D01*
X0313845Y0056061D01*
X0312840Y0053636D01*
X0312840Y0041010D01*
X0313189Y0040167D02*
X0012508Y0040167D01*
X0012508Y0038569D02*
X0313861Y0038569D01*
X0315459Y0036970D02*
X0012508Y0036970D01*
X0012508Y0035372D02*
X0402908Y0035372D01*
X0402908Y0036970D02*
X0383422Y0036970D01*
X0383179Y0036728D02*
X0385036Y0038584D01*
X0386040Y0041010D01*
X0386040Y0053636D01*
X0385036Y0056061D01*
X0383179Y0057918D01*
X0380753Y0058923D01*
X0378128Y0058923D01*
X0375702Y0057918D01*
X0373845Y0056061D01*
X0372840Y0053636D01*
X0372840Y0041010D01*
X0373845Y0038584D01*
X0375702Y0036728D01*
X0378128Y0035723D01*
X0380753Y0035723D01*
X0383179Y0036728D01*
X0385020Y0038569D02*
X0402908Y0038569D01*
X0402908Y0040167D02*
X0385691Y0040167D01*
X0386040Y0041766D02*
X0402908Y0041766D01*
X0402908Y0043364D02*
X0386040Y0043364D01*
X0386040Y0044963D02*
X0402908Y0044963D01*
X0402908Y0046561D02*
X0386040Y0046561D01*
X0386040Y0048160D02*
X0402908Y0048160D01*
X0402908Y0049758D02*
X0386040Y0049758D01*
X0386040Y0051357D02*
X0402908Y0051357D01*
X0402908Y0052955D02*
X0386040Y0052955D01*
X0385660Y0054554D02*
X0402908Y0054554D01*
X0402908Y0056152D02*
X0384945Y0056152D01*
X0383346Y0057751D02*
X0402908Y0057751D01*
X0402908Y0059349D02*
X0283094Y0059349D01*
X0283264Y0057751D02*
X0315535Y0057751D01*
X0313936Y0056152D02*
X0283264Y0056152D01*
X0282588Y0054554D02*
X0313221Y0054554D01*
X0312840Y0052955D02*
X0280990Y0052955D01*
X0280804Y0051357D02*
X0312840Y0051357D01*
X0312840Y0049758D02*
X0282403Y0049758D01*
X0283064Y0048160D02*
X0312840Y0048160D01*
X0312840Y0046561D02*
X0283064Y0046561D01*
X0282714Y0044963D02*
X0312840Y0044963D01*
X0312840Y0043364D02*
X0281116Y0043364D01*
X0278495Y0047205D02*
X0278495Y0047213D01*
X0273708Y0052000D01*
X0273708Y0064000D01*
X0268299Y0069409D01*
X0268299Y0075500D01*
X0268299Y0084409D01*
X0262708Y0090000D01*
X0262708Y0180000D01*
X0257708Y0185000D01*
X0107708Y0185000D01*
X0102708Y0180000D01*
X0102708Y0175000D01*
X0098140Y0174442D02*
X0097277Y0174442D01*
X0097277Y0176041D02*
X0098140Y0176041D01*
X0098886Y0177639D02*
X0096530Y0177639D01*
X0094931Y0179238D02*
X0100308Y0179238D01*
X0100457Y0180836D02*
X0023867Y0180836D01*
X0027541Y0179238D02*
X0060485Y0179238D01*
X0060816Y0179568D02*
X0058140Y0176892D01*
X0058140Y0173108D01*
X0060816Y0170431D01*
X0064600Y0170431D01*
X0067277Y0173108D01*
X0067277Y0176892D01*
X0064600Y0179568D01*
X0060816Y0179568D01*
X0058886Y0177639D02*
X0029631Y0177639D01*
X0031230Y0176041D02*
X0058140Y0176041D01*
X0058140Y0174442D02*
X0032171Y0174442D01*
X0033093Y0172844D02*
X0058404Y0172844D01*
X0060002Y0171245D02*
X0033521Y0171245D01*
X0033950Y0169647D02*
X0094667Y0169647D01*
X0096266Y0168048D02*
X0034032Y0168048D01*
X0016589Y0180836D02*
X0012508Y0180836D01*
X0012508Y0179238D02*
X0012915Y0179238D01*
X0012508Y0182435D02*
X0101749Y0182435D01*
X0103347Y0184033D02*
X0012508Y0184033D01*
X0012508Y0185632D02*
X0104946Y0185632D01*
X0106821Y0187230D02*
X0012508Y0187230D01*
X0012508Y0188829D02*
X0271238Y0188829D01*
X0271893Y0189100D02*
X0270386Y0188476D01*
X0269232Y0187322D01*
X0268608Y0185816D01*
X0268608Y0097944D01*
X0269232Y0096437D01*
X0270386Y0095284D01*
X0271893Y0094660D01*
X0273524Y0094660D01*
X0275031Y0095284D01*
X0276184Y0096437D01*
X0276808Y0097944D01*
X0276808Y0185816D01*
X0276184Y0187322D01*
X0275031Y0188476D01*
X0273524Y0189100D01*
X0271893Y0189100D01*
X0274178Y0188829D02*
X0402908Y0188829D01*
X0402908Y0190427D02*
X0012508Y0190427D01*
X0012508Y0192026D02*
X0402908Y0192026D01*
X0402908Y0193624D02*
X0012508Y0193624D01*
X0012508Y0195223D02*
X0402908Y0195223D01*
X0402908Y0196821D02*
X0012508Y0196821D01*
X0012508Y0152063D02*
X0086377Y0152063D01*
X0084778Y0150465D02*
X0012508Y0150465D01*
X0012508Y0148866D02*
X0083180Y0148866D01*
X0081581Y0147268D02*
X0012508Y0147268D01*
X0012508Y0145669D02*
X0079983Y0145669D01*
X0078384Y0144070D02*
X0012508Y0144070D01*
X0012508Y0142472D02*
X0076786Y0142472D01*
X0075187Y0140873D02*
X0012508Y0140873D01*
X0012508Y0139275D02*
X0073589Y0139275D01*
X0071990Y0137676D02*
X0012508Y0137676D01*
X0012508Y0136078D02*
X0070392Y0136078D01*
X0068793Y0134479D02*
X0012508Y0134479D01*
X0012508Y0132881D02*
X0067195Y0132881D01*
X0065596Y0131282D02*
X0012508Y0131282D01*
X0012508Y0129684D02*
X0063998Y0129684D01*
X0062399Y0128085D02*
X0012508Y0128085D01*
X0012508Y0126487D02*
X0060801Y0126487D01*
X0059202Y0124888D02*
X0012508Y0124888D01*
X0012508Y0123290D02*
X0057604Y0123290D01*
X0056005Y0121691D02*
X0012508Y0121691D01*
X0012508Y0120093D02*
X0054407Y0120093D01*
X0052808Y0118494D02*
X0012508Y0118494D01*
X0012508Y0116896D02*
X0051210Y0116896D01*
X0049611Y0115297D02*
X0012508Y0115297D01*
X0012508Y0113699D02*
X0048013Y0113699D01*
X0046414Y0112100D02*
X0012508Y0112100D01*
X0012508Y0110502D02*
X0044816Y0110502D01*
X0043217Y0108903D02*
X0012508Y0108903D01*
X0012508Y0107305D02*
X0041619Y0107305D01*
X0040020Y0105706D02*
X0012508Y0105706D01*
X0012508Y0104108D02*
X0038422Y0104108D01*
X0036823Y0102509D02*
X0012508Y0102509D01*
X0012508Y0100911D02*
X0036308Y0100911D01*
X0036308Y0099312D02*
X0012508Y0099312D01*
X0012508Y0097714D02*
X0036308Y0097714D01*
X0036308Y0096115D02*
X0012508Y0096115D01*
X0012508Y0094517D02*
X0036308Y0094517D01*
X0036308Y0092918D02*
X0012508Y0092918D01*
X0012508Y0091320D02*
X0036308Y0091320D01*
X0036308Y0089721D02*
X0012508Y0089721D01*
X0012508Y0088123D02*
X0036308Y0088123D01*
X0036308Y0086524D02*
X0012508Y0086524D01*
X0012508Y0084926D02*
X0036308Y0084926D01*
X0036308Y0083327D02*
X0012508Y0083327D01*
X0012508Y0081729D02*
X0036308Y0081729D01*
X0035003Y0080130D02*
X0012508Y0080130D01*
X0012508Y0078532D02*
X0034508Y0078532D01*
X0034508Y0076933D02*
X0012508Y0076933D01*
X0012508Y0075334D02*
X0034508Y0075334D01*
X0034508Y0073736D02*
X0012508Y0073736D01*
X0012508Y0072137D02*
X0034508Y0072137D01*
X0035140Y0070539D02*
X0012508Y0070539D01*
X0012508Y0068940D02*
X0036308Y0068940D01*
X0036972Y0067342D02*
X0012508Y0067342D01*
X0012508Y0065743D02*
X0038571Y0065743D01*
X0040169Y0064145D02*
X0012508Y0064145D01*
X0012508Y0062546D02*
X0041308Y0062546D01*
X0043708Y0064000D02*
X0038708Y0069000D01*
X0038708Y0075500D01*
X0038708Y0101000D01*
X0102708Y0165000D01*
X0104708Y0169500D02*
X0098208Y0169500D01*
X0092708Y0175000D01*
X0088140Y0174442D02*
X0087277Y0174442D01*
X0087277Y0173108D02*
X0084600Y0170431D01*
X0080816Y0170431D01*
X0078140Y0173108D01*
X0078140Y0176892D01*
X0080816Y0179568D01*
X0084600Y0179568D01*
X0087277Y0176892D01*
X0087277Y0173108D01*
X0087013Y0172844D02*
X0088404Y0172844D01*
X0090002Y0171245D02*
X0085414Y0171245D01*
X0087277Y0176041D02*
X0088140Y0176041D01*
X0088886Y0177639D02*
X0086530Y0177639D01*
X0084931Y0179238D02*
X0090485Y0179238D01*
X0080485Y0179238D02*
X0075214Y0179238D01*
X0074683Y0179768D02*
X0077477Y0176975D01*
X0077477Y0175184D01*
X0072892Y0175184D01*
X0072524Y0175184D01*
X0072524Y0174816D01*
X0072892Y0174816D01*
X0072892Y0170231D01*
X0074683Y0170231D01*
X0077477Y0173025D01*
X0077477Y0174816D01*
X0072892Y0174816D01*
X0072892Y0175184D01*
X0072892Y0179768D01*
X0074683Y0179768D01*
X0072892Y0179238D02*
X0072524Y0179238D01*
X0072524Y0179768D02*
X0070733Y0179768D01*
X0067940Y0176975D01*
X0067940Y0175184D01*
X0072524Y0175184D01*
X0072524Y0179768D01*
X0072524Y0177639D02*
X0072892Y0177639D01*
X0072892Y0176041D02*
X0072524Y0176041D01*
X0072524Y0174816D02*
X0067940Y0174816D01*
X0067940Y0173025D01*
X0070733Y0170231D01*
X0072524Y0170231D01*
X0072524Y0174816D01*
X0072524Y0174442D02*
X0072892Y0174442D01*
X0072892Y0172844D02*
X0072524Y0172844D01*
X0072524Y0171245D02*
X0072892Y0171245D01*
X0075697Y0171245D02*
X0080002Y0171245D01*
X0078404Y0172844D02*
X0077295Y0172844D01*
X0077477Y0174442D02*
X0078140Y0174442D01*
X0078140Y0176041D02*
X0077477Y0176041D01*
X0076813Y0177639D02*
X0078886Y0177639D01*
X0070202Y0179238D02*
X0064931Y0179238D01*
X0066530Y0177639D02*
X0068604Y0177639D01*
X0067940Y0176041D02*
X0067277Y0176041D01*
X0067277Y0174442D02*
X0067940Y0174442D01*
X0068121Y0172844D02*
X0067013Y0172844D01*
X0065414Y0171245D02*
X0069719Y0171245D01*
X0098258Y0172844D02*
X0098404Y0172844D01*
X0104708Y0169500D02*
X0107708Y0172500D01*
X0107708Y0178000D01*
X0110208Y0180500D01*
X0254708Y0180500D01*
X0258299Y0176909D01*
X0258299Y0075500D01*
X0258299Y0069409D01*
X0263708Y0064000D01*
X0263708Y0052000D01*
X0268495Y0047213D01*
X0268495Y0047205D01*
X0263927Y0046561D02*
X0263064Y0046561D01*
X0263064Y0048160D02*
X0263927Y0048160D01*
X0262556Y0049758D02*
X0262403Y0049758D01*
X0261377Y0051357D02*
X0260804Y0051357D01*
X0260990Y0052955D02*
X0261308Y0052955D01*
X0258680Y0052955D02*
X0258311Y0052955D01*
X0258311Y0054554D02*
X0258680Y0054554D01*
X0258680Y0056152D02*
X0258311Y0056152D01*
X0258311Y0057389D02*
X0258311Y0061973D01*
X0256520Y0061973D01*
X0256108Y0061561D01*
X0256108Y0064477D01*
X0255743Y0065359D01*
X0251220Y0069882D01*
X0251859Y0070521D01*
X0252499Y0072065D01*
X0252499Y0078935D01*
X0251859Y0080479D01*
X0250699Y0081640D01*
X0250699Y0094887D01*
X0250333Y0095769D01*
X0239743Y0106359D01*
X0239068Y0107035D01*
X0238185Y0107400D01*
X0237429Y0107400D01*
X0236460Y0108370D01*
X0234999Y0108975D01*
X0233417Y0108975D01*
X0231957Y0108370D01*
X0230838Y0107252D01*
X0230233Y0105791D01*
X0230233Y0104209D01*
X0230838Y0102748D01*
X0231957Y0101630D01*
X0233417Y0101025D01*
X0234999Y0101025D01*
X0236460Y0101630D01*
X0237072Y0102242D01*
X0245899Y0093415D01*
X0245899Y0081640D01*
X0244738Y0080479D01*
X0244099Y0078935D01*
X0244099Y0072065D01*
X0244738Y0070521D01*
X0245899Y0069360D01*
X0245899Y0068932D01*
X0246264Y0068050D01*
X0246939Y0067375D01*
X0251308Y0063006D01*
X0251308Y0061136D01*
X0250471Y0061973D01*
X0248680Y0061973D01*
X0248680Y0057389D01*
X0248311Y0057389D01*
X0248311Y0061973D01*
X0246520Y0061973D01*
X0246108Y0061561D01*
X0246108Y0064477D01*
X0245743Y0065359D01*
X0241220Y0069882D01*
X0241859Y0070521D01*
X0242499Y0072065D01*
X0242499Y0078935D01*
X0241859Y0080479D01*
X0240699Y0081640D01*
X0240699Y0093387D01*
X0240333Y0094269D01*
X0238183Y0096419D01*
X0238183Y0097791D01*
X0237578Y0099252D01*
X0236460Y0100370D01*
X0234999Y0100975D01*
X0233417Y0100975D01*
X0231957Y0100370D01*
X0230838Y0099252D01*
X0230233Y0097791D01*
X0230233Y0096209D01*
X0230838Y0094748D01*
X0231957Y0093630D01*
X0233417Y0093025D01*
X0234789Y0093025D01*
X0235899Y0091915D01*
X0235899Y0081640D01*
X0234738Y0080479D01*
X0234099Y0078935D01*
X0234099Y0072065D01*
X0234738Y0070521D01*
X0235899Y0069360D01*
X0235899Y0068932D01*
X0236264Y0068050D01*
X0236939Y0067375D01*
X0241308Y0063006D01*
X0241308Y0061136D01*
X0240471Y0061973D01*
X0238680Y0061973D01*
X0238680Y0057389D01*
X0238311Y0057389D01*
X0238311Y0061973D01*
X0236520Y0061973D01*
X0236108Y0061561D01*
X0236108Y0064477D01*
X0235743Y0065359D01*
X0231220Y0069882D01*
X0231859Y0070521D01*
X0232499Y0072065D01*
X0232499Y0078935D01*
X0231859Y0080479D01*
X0230678Y0081661D01*
X0230108Y0081897D01*
X0230108Y0111139D01*
X0230816Y0110431D01*
X0234600Y0110431D01*
X0237277Y0113108D01*
X0237277Y0116892D01*
X0234600Y0119568D01*
X0230816Y0119568D01*
X0230108Y0118861D01*
X0230108Y0149006D01*
X0251534Y0170431D01*
X0254600Y0170431D01*
X0255899Y0171730D01*
X0255899Y0118270D01*
X0254600Y0119568D01*
X0250816Y0119568D01*
X0248140Y0116892D01*
X0248140Y0113108D01*
X0250816Y0110431D01*
X0254600Y0110431D01*
X0255899Y0111730D01*
X0255899Y0081640D01*
X0254738Y0080479D01*
X0254099Y0078935D01*
X0254099Y0072065D01*
X0254738Y0070521D01*
X0255899Y0069360D01*
X0255899Y0068932D01*
X0256264Y0068050D01*
X0256939Y0067375D01*
X0261308Y0063006D01*
X0261308Y0061136D01*
X0260471Y0061973D01*
X0258680Y0061973D01*
X0258680Y0057389D01*
X0258311Y0057389D01*
X0258311Y0057751D02*
X0258680Y0057751D01*
X0258680Y0059349D02*
X0258311Y0059349D01*
X0258311Y0060948D02*
X0258680Y0060948D01*
X0256108Y0062546D02*
X0261308Y0062546D01*
X0260169Y0064145D02*
X0256108Y0064145D01*
X0255359Y0065743D02*
X0258571Y0065743D01*
X0256972Y0067342D02*
X0253760Y0067342D01*
X0252162Y0068940D02*
X0255899Y0068940D01*
X0254731Y0070539D02*
X0251867Y0070539D01*
X0252499Y0072137D02*
X0254099Y0072137D01*
X0254099Y0073736D02*
X0252499Y0073736D01*
X0252499Y0075334D02*
X0254099Y0075334D01*
X0254099Y0076933D02*
X0252499Y0076933D01*
X0252499Y0078532D02*
X0254099Y0078532D01*
X0254593Y0080130D02*
X0252004Y0080130D01*
X0250699Y0081729D02*
X0255899Y0081729D01*
X0255899Y0083327D02*
X0250699Y0083327D01*
X0250699Y0084926D02*
X0255899Y0084926D01*
X0255899Y0086524D02*
X0250699Y0086524D01*
X0250699Y0088123D02*
X0255899Y0088123D01*
X0255899Y0089721D02*
X0250699Y0089721D01*
X0250699Y0091320D02*
X0255899Y0091320D01*
X0255899Y0092918D02*
X0250699Y0092918D01*
X0250699Y0094517D02*
X0255899Y0094517D01*
X0255899Y0096115D02*
X0249987Y0096115D01*
X0248389Y0097714D02*
X0255899Y0097714D01*
X0255899Y0099312D02*
X0246790Y0099312D01*
X0245191Y0100911D02*
X0255899Y0100911D01*
X0255899Y0102509D02*
X0243593Y0102509D01*
X0241994Y0104108D02*
X0255899Y0104108D01*
X0255899Y0105706D02*
X0240396Y0105706D01*
X0238415Y0107305D02*
X0255899Y0107305D01*
X0255899Y0108903D02*
X0235171Y0108903D01*
X0234671Y0110502D02*
X0240463Y0110502D01*
X0240733Y0110231D02*
X0242524Y0110231D01*
X0242524Y0114816D01*
X0242892Y0114816D01*
X0242892Y0110231D01*
X0244683Y0110231D01*
X0247477Y0113025D01*
X0247477Y0114816D01*
X0242892Y0114816D01*
X0242892Y0115184D01*
X0242524Y0115184D01*
X0242524Y0114816D01*
X0237940Y0114816D01*
X0237940Y0113025D01*
X0240733Y0110231D01*
X0242524Y0110502D02*
X0242892Y0110502D01*
X0242892Y0112100D02*
X0242524Y0112100D01*
X0242524Y0113699D02*
X0242892Y0113699D01*
X0242892Y0115184D02*
X0247477Y0115184D01*
X0247477Y0116975D01*
X0244683Y0119768D01*
X0242892Y0119768D01*
X0242892Y0115184D01*
X0242892Y0115297D02*
X0242524Y0115297D01*
X0242524Y0115184D02*
X0242524Y0119768D01*
X0240733Y0119768D01*
X0237940Y0116975D01*
X0237940Y0115184D01*
X0242524Y0115184D01*
X0242524Y0116896D02*
X0242892Y0116896D01*
X0242892Y0118494D02*
X0242524Y0118494D01*
X0239459Y0118494D02*
X0235675Y0118494D01*
X0237273Y0116896D02*
X0237940Y0116896D01*
X0237940Y0115297D02*
X0237277Y0115297D01*
X0237277Y0113699D02*
X0237940Y0113699D01*
X0238864Y0112100D02*
X0236269Y0112100D01*
X0233245Y0108903D02*
X0230108Y0108903D01*
X0230108Y0107305D02*
X0230892Y0107305D01*
X0230233Y0105706D02*
X0230108Y0105706D01*
X0230108Y0104108D02*
X0230275Y0104108D01*
X0230108Y0102509D02*
X0231078Y0102509D01*
X0230108Y0100911D02*
X0233263Y0100911D01*
X0235153Y0100911D02*
X0238403Y0100911D01*
X0237517Y0099312D02*
X0240002Y0099312D01*
X0241600Y0097714D02*
X0238183Y0097714D01*
X0238487Y0096115D02*
X0243199Y0096115D01*
X0244797Y0094517D02*
X0240086Y0094517D01*
X0240699Y0092918D02*
X0245899Y0092918D01*
X0245899Y0091320D02*
X0240699Y0091320D01*
X0240699Y0089721D02*
X0245899Y0089721D01*
X0245899Y0088123D02*
X0240699Y0088123D01*
X0240699Y0086524D02*
X0245899Y0086524D01*
X0245899Y0084926D02*
X0240699Y0084926D01*
X0240699Y0083327D02*
X0245899Y0083327D01*
X0245899Y0081729D02*
X0240699Y0081729D01*
X0242004Y0080130D02*
X0244593Y0080130D01*
X0244099Y0078532D02*
X0242499Y0078532D01*
X0242499Y0076933D02*
X0244099Y0076933D01*
X0244099Y0075334D02*
X0242499Y0075334D01*
X0242499Y0073736D02*
X0244099Y0073736D01*
X0244099Y0072137D02*
X0242499Y0072137D01*
X0241867Y0070539D02*
X0244731Y0070539D01*
X0245899Y0068940D02*
X0242162Y0068940D01*
X0243760Y0067342D02*
X0246972Y0067342D01*
X0248571Y0065743D02*
X0245359Y0065743D01*
X0246108Y0064145D02*
X0250169Y0064145D01*
X0251308Y0062546D02*
X0246108Y0062546D01*
X0248311Y0060948D02*
X0248680Y0060948D01*
X0248680Y0059349D02*
X0248311Y0059349D01*
X0248311Y0057751D02*
X0248680Y0057751D01*
X0248680Y0056152D02*
X0248311Y0056152D01*
X0248311Y0054554D02*
X0248680Y0054554D01*
X0248680Y0052955D02*
X0248311Y0052955D01*
X0250990Y0052955D02*
X0251308Y0052955D01*
X0251377Y0051357D02*
X0250804Y0051357D01*
X0252403Y0049758D02*
X0252556Y0049758D01*
X0253064Y0048160D02*
X0253927Y0048160D01*
X0253927Y0046561D02*
X0253064Y0046561D01*
X0252714Y0044963D02*
X0254277Y0044963D01*
X0255875Y0043364D02*
X0251116Y0043364D01*
X0248495Y0047205D02*
X0248495Y0047213D01*
X0243708Y0052000D01*
X0243708Y0064000D01*
X0238299Y0069409D01*
X0238299Y0075500D01*
X0238299Y0092909D01*
X0234208Y0097000D01*
X0231070Y0094517D02*
X0230108Y0094517D01*
X0230108Y0096115D02*
X0230272Y0096115D01*
X0230233Y0097714D02*
X0230108Y0097714D01*
X0230108Y0099312D02*
X0230899Y0099312D01*
X0225308Y0099312D02*
X0220108Y0099312D01*
X0220108Y0097714D02*
X0225308Y0097714D01*
X0225308Y0096115D02*
X0220108Y0096115D01*
X0220108Y0094517D02*
X0225308Y0094517D01*
X0225308Y0092918D02*
X0220108Y0092918D01*
X0220108Y0091320D02*
X0225308Y0091320D01*
X0225308Y0089721D02*
X0220108Y0089721D01*
X0220108Y0088123D02*
X0225308Y0088123D01*
X0225308Y0086524D02*
X0220108Y0086524D01*
X0220108Y0084926D02*
X0225308Y0084926D01*
X0225308Y0083327D02*
X0220108Y0083327D01*
X0220108Y0081897D02*
X0220108Y0111139D01*
X0220816Y0110431D01*
X0224600Y0110431D01*
X0225308Y0111139D01*
X0225308Y0081049D01*
X0224738Y0080479D01*
X0224099Y0078935D01*
X0224099Y0072065D01*
X0224738Y0070521D01*
X0225899Y0069360D01*
X0225899Y0068932D01*
X0226264Y0068050D01*
X0226939Y0067375D01*
X0231308Y0063006D01*
X0231308Y0061136D01*
X0230471Y0061973D01*
X0228680Y0061973D01*
X0228680Y0057389D01*
X0228311Y0057389D01*
X0228311Y0061973D01*
X0226520Y0061973D01*
X0226108Y0061561D01*
X0226108Y0064477D01*
X0225743Y0065359D01*
X0221220Y0069882D01*
X0221859Y0070521D01*
X0222499Y0072065D01*
X0222499Y0078935D01*
X0221859Y0080479D01*
X0220678Y0081661D01*
X0220108Y0081897D01*
X0220514Y0081729D02*
X0225308Y0081729D01*
X0224593Y0080130D02*
X0222004Y0080130D01*
X0222499Y0078532D02*
X0224099Y0078532D01*
X0224099Y0076933D02*
X0222499Y0076933D01*
X0222499Y0075334D02*
X0224099Y0075334D01*
X0224099Y0073736D02*
X0222499Y0073736D01*
X0222499Y0072137D02*
X0224099Y0072137D01*
X0224731Y0070539D02*
X0221867Y0070539D01*
X0222162Y0068940D02*
X0225899Y0068940D01*
X0226972Y0067342D02*
X0223760Y0067342D01*
X0225359Y0065743D02*
X0228571Y0065743D01*
X0230169Y0064145D02*
X0226108Y0064145D01*
X0226108Y0062546D02*
X0231308Y0062546D01*
X0233708Y0064000D02*
X0228299Y0069409D01*
X0228299Y0075500D01*
X0227708Y0076091D01*
X0227708Y0150000D01*
X0252708Y0175000D01*
X0255414Y0171245D02*
X0255899Y0171245D01*
X0255899Y0169647D02*
X0250749Y0169647D01*
X0249150Y0168048D02*
X0255899Y0168048D01*
X0255899Y0166450D02*
X0247552Y0166450D01*
X0245953Y0164851D02*
X0255899Y0164851D01*
X0255899Y0163253D02*
X0244355Y0163253D01*
X0242756Y0161654D02*
X0255899Y0161654D01*
X0255899Y0160056D02*
X0241158Y0160056D01*
X0239559Y0158457D02*
X0255899Y0158457D01*
X0255899Y0156859D02*
X0237961Y0156859D01*
X0236362Y0155260D02*
X0255899Y0155260D01*
X0255899Y0153662D02*
X0234764Y0153662D01*
X0233165Y0152063D02*
X0255899Y0152063D01*
X0255899Y0150465D02*
X0231567Y0150465D01*
X0230108Y0148866D02*
X0255899Y0148866D01*
X0255899Y0147268D02*
X0230108Y0147268D01*
X0230108Y0145669D02*
X0255899Y0145669D01*
X0255899Y0144070D02*
X0230108Y0144070D01*
X0230108Y0142472D02*
X0255899Y0142472D01*
X0255899Y0140873D02*
X0230108Y0140873D01*
X0230108Y0139275D02*
X0255899Y0139275D01*
X0255899Y0137676D02*
X0230108Y0137676D01*
X0230108Y0136078D02*
X0255899Y0136078D01*
X0255899Y0134479D02*
X0230108Y0134479D01*
X0230108Y0132881D02*
X0255899Y0132881D01*
X0255899Y0131282D02*
X0230108Y0131282D01*
X0230108Y0129684D02*
X0255899Y0129684D01*
X0255899Y0128085D02*
X0230108Y0128085D01*
X0230108Y0126487D02*
X0255899Y0126487D01*
X0255899Y0124888D02*
X0230108Y0124888D01*
X0230108Y0123290D02*
X0255899Y0123290D01*
X0255899Y0121691D02*
X0230108Y0121691D01*
X0230108Y0120093D02*
X0255899Y0120093D01*
X0255899Y0118494D02*
X0255675Y0118494D01*
X0249742Y0118494D02*
X0245957Y0118494D01*
X0247477Y0116896D02*
X0248143Y0116896D01*
X0248140Y0115297D02*
X0247477Y0115297D01*
X0247477Y0113699D02*
X0248140Y0113699D01*
X0249147Y0112100D02*
X0246552Y0112100D01*
X0244953Y0110502D02*
X0250745Y0110502D01*
X0254671Y0110502D02*
X0255899Y0110502D01*
X0265108Y0110502D02*
X0268608Y0110502D01*
X0268608Y0112100D02*
X0265108Y0112100D01*
X0265108Y0113699D02*
X0268608Y0113699D01*
X0268608Y0115297D02*
X0265108Y0115297D01*
X0265108Y0116896D02*
X0268608Y0116896D01*
X0268608Y0118494D02*
X0265108Y0118494D01*
X0265108Y0120093D02*
X0268608Y0120093D01*
X0268608Y0121691D02*
X0265108Y0121691D01*
X0265108Y0123290D02*
X0268608Y0123290D01*
X0268608Y0124888D02*
X0265108Y0124888D01*
X0265108Y0126487D02*
X0268608Y0126487D01*
X0268608Y0128085D02*
X0265108Y0128085D01*
X0265108Y0129684D02*
X0268608Y0129684D01*
X0268608Y0131282D02*
X0265108Y0131282D01*
X0265108Y0132881D02*
X0268608Y0132881D01*
X0268608Y0134479D02*
X0265108Y0134479D01*
X0265108Y0136078D02*
X0268608Y0136078D01*
X0268608Y0137676D02*
X0265108Y0137676D01*
X0265108Y0139275D02*
X0268608Y0139275D01*
X0268608Y0140873D02*
X0265108Y0140873D01*
X0265108Y0142472D02*
X0268608Y0142472D01*
X0268608Y0144070D02*
X0265108Y0144070D01*
X0265108Y0145669D02*
X0268608Y0145669D01*
X0268608Y0147268D02*
X0265108Y0147268D01*
X0265108Y0148866D02*
X0268608Y0148866D01*
X0268608Y0150465D02*
X0265108Y0150465D01*
X0265108Y0152063D02*
X0268608Y0152063D01*
X0268608Y0153662D02*
X0265108Y0153662D01*
X0265108Y0155260D02*
X0268608Y0155260D01*
X0268608Y0156859D02*
X0265108Y0156859D01*
X0265108Y0158457D02*
X0268608Y0158457D01*
X0268608Y0160056D02*
X0265108Y0160056D01*
X0265108Y0161654D02*
X0268608Y0161654D01*
X0268608Y0163253D02*
X0265108Y0163253D01*
X0265108Y0164851D02*
X0268608Y0164851D01*
X0268608Y0166450D02*
X0265108Y0166450D01*
X0265108Y0168048D02*
X0268608Y0168048D01*
X0268608Y0169647D02*
X0265108Y0169647D01*
X0265108Y0171245D02*
X0268608Y0171245D01*
X0268608Y0172844D02*
X0265108Y0172844D01*
X0265108Y0174442D02*
X0268608Y0174442D01*
X0268608Y0176041D02*
X0265108Y0176041D01*
X0265108Y0177639D02*
X0268608Y0177639D01*
X0268608Y0179238D02*
X0265108Y0179238D01*
X0264959Y0180836D02*
X0268608Y0180836D01*
X0268608Y0182435D02*
X0263667Y0182435D01*
X0262069Y0184033D02*
X0268608Y0184033D01*
X0268608Y0185632D02*
X0260470Y0185632D01*
X0258595Y0187230D02*
X0269194Y0187230D01*
X0276222Y0187230D02*
X0402908Y0187230D01*
X0402908Y0185632D02*
X0276808Y0185632D01*
X0276808Y0184033D02*
X0402908Y0184033D01*
X0402908Y0182435D02*
X0276808Y0182435D01*
X0276808Y0180836D02*
X0391549Y0180836D01*
X0387875Y0179238D02*
X0276808Y0179238D01*
X0276808Y0177639D02*
X0385785Y0177639D01*
X0384187Y0176041D02*
X0276808Y0176041D01*
X0276808Y0174442D02*
X0383245Y0174442D01*
X0382323Y0172844D02*
X0305663Y0172844D01*
X0306184Y0172322D02*
X0305031Y0173476D01*
X0303524Y0174100D01*
X0301893Y0174100D01*
X0300386Y0173476D01*
X0299232Y0172322D01*
X0298608Y0170816D01*
X0298608Y0124184D01*
X0299232Y0122678D01*
X0300386Y0121524D01*
X0301893Y0120900D01*
X0303524Y0120900D01*
X0328510Y0120900D01*
X0330386Y0119024D01*
X0331893Y0118400D01*
X0333524Y0118400D01*
X0335031Y0119024D01*
X0336184Y0120178D01*
X0336808Y0121684D01*
X0336808Y0123316D01*
X0336184Y0124822D01*
X0332531Y0128476D01*
X0331024Y0129100D01*
X0306808Y0129100D01*
X0306808Y0170816D01*
X0306184Y0172322D01*
X0306630Y0171245D02*
X0381895Y0171245D01*
X0381467Y0169647D02*
X0306808Y0169647D01*
X0306808Y0168048D02*
X0381384Y0168048D01*
X0381384Y0166450D02*
X0306808Y0166450D01*
X0306808Y0164851D02*
X0381612Y0164851D01*
X0382040Y0163253D02*
X0306808Y0163253D01*
X0306808Y0161654D02*
X0382635Y0161654D01*
X0383557Y0160056D02*
X0306808Y0160056D01*
X0306808Y0158457D02*
X0384728Y0158457D01*
X0386327Y0156859D02*
X0306808Y0156859D01*
X0306808Y0155260D02*
X0388813Y0155260D01*
X0401564Y0155260D02*
X0402908Y0155260D01*
X0402908Y0153662D02*
X0306808Y0153662D01*
X0306808Y0152063D02*
X0402908Y0152063D01*
X0402908Y0150465D02*
X0306808Y0150465D01*
X0306808Y0148866D02*
X0402908Y0148866D01*
X0402908Y0147268D02*
X0306808Y0147268D01*
X0306808Y0145669D02*
X0402908Y0145669D01*
X0402908Y0144070D02*
X0306808Y0144070D01*
X0306808Y0142472D02*
X0402908Y0142472D01*
X0402908Y0140873D02*
X0306808Y0140873D01*
X0306808Y0139275D02*
X0402908Y0139275D01*
X0402908Y0137676D02*
X0306808Y0137676D01*
X0306808Y0136078D02*
X0402908Y0136078D01*
X0402908Y0134479D02*
X0306808Y0134479D01*
X0306808Y0132881D02*
X0402908Y0132881D01*
X0402908Y0131282D02*
X0365047Y0131282D01*
X0364960Y0131370D02*
X0363499Y0131975D01*
X0361917Y0131975D01*
X0360457Y0131370D01*
X0359338Y0130252D01*
X0358733Y0128791D01*
X0358733Y0127209D01*
X0359338Y0125748D01*
X0360308Y0124779D01*
X0360308Y0113221D01*
X0359338Y0112252D01*
X0358733Y0110791D01*
X0358733Y0109209D01*
X0359338Y0107748D01*
X0360457Y0106630D01*
X0361917Y0106025D01*
X0363499Y0106025D01*
X0364960Y0106630D01*
X0366078Y0107748D01*
X0366683Y0109209D01*
X0366683Y0110791D01*
X0366078Y0112252D01*
X0365108Y0113221D01*
X0365108Y0124779D01*
X0366078Y0125748D01*
X0366683Y0127209D01*
X0366683Y0128791D01*
X0366078Y0130252D01*
X0364960Y0131370D01*
X0366313Y0129684D02*
X0402908Y0129684D01*
X0402908Y0128085D02*
X0366683Y0128085D01*
X0366384Y0126487D02*
X0402908Y0126487D01*
X0402908Y0124888D02*
X0365218Y0124888D01*
X0365108Y0123290D02*
X0402908Y0123290D01*
X0402908Y0121691D02*
X0365108Y0121691D01*
X0365108Y0120093D02*
X0402908Y0120093D01*
X0402908Y0118494D02*
X0365108Y0118494D01*
X0365108Y0116896D02*
X0402908Y0116896D01*
X0402908Y0115297D02*
X0365108Y0115297D01*
X0365108Y0113699D02*
X0402908Y0113699D01*
X0402908Y0112100D02*
X0366140Y0112100D01*
X0366683Y0110502D02*
X0402908Y0110502D01*
X0402908Y0108903D02*
X0366556Y0108903D01*
X0365634Y0107305D02*
X0402908Y0107305D01*
X0402908Y0105706D02*
X0276808Y0105706D01*
X0276808Y0104108D02*
X0402908Y0104108D01*
X0402908Y0102509D02*
X0276808Y0102509D01*
X0276808Y0100911D02*
X0402908Y0100911D01*
X0402908Y0099312D02*
X0276808Y0099312D01*
X0276713Y0097714D02*
X0402908Y0097714D01*
X0402908Y0096115D02*
X0275862Y0096115D01*
X0270683Y0084926D02*
X0402908Y0084926D01*
X0402908Y0086524D02*
X0269578Y0086524D01*
X0267980Y0088123D02*
X0402908Y0088123D01*
X0402908Y0089721D02*
X0266381Y0089721D01*
X0265108Y0091320D02*
X0402908Y0091320D01*
X0402908Y0092918D02*
X0265108Y0092918D01*
X0265108Y0094517D02*
X0402908Y0094517D01*
X0402908Y0083327D02*
X0270699Y0083327D01*
X0270699Y0081729D02*
X0276084Y0081729D01*
X0275920Y0081661D02*
X0274738Y0080479D01*
X0274099Y0078935D01*
X0274099Y0072065D01*
X0274738Y0070521D01*
X0275920Y0069339D01*
X0277463Y0068700D01*
X0279134Y0068700D01*
X0280678Y0069339D01*
X0281859Y0070521D01*
X0282499Y0072065D01*
X0282499Y0078935D01*
X0281859Y0080479D01*
X0280678Y0081661D01*
X0279134Y0082300D01*
X0277463Y0082300D01*
X0275920Y0081661D01*
X0274593Y0080130D02*
X0272004Y0080130D01*
X0272499Y0078532D02*
X0274099Y0078532D01*
X0274099Y0076933D02*
X0272499Y0076933D01*
X0272499Y0075334D02*
X0274099Y0075334D01*
X0274099Y0073736D02*
X0272499Y0073736D01*
X0272499Y0072137D02*
X0274099Y0072137D01*
X0274731Y0070539D02*
X0271867Y0070539D01*
X0272162Y0068940D02*
X0276883Y0068940D01*
X0279715Y0068940D02*
X0402908Y0068940D01*
X0402908Y0067342D02*
X0273760Y0067342D01*
X0275359Y0065743D02*
X0402908Y0065743D01*
X0402908Y0064145D02*
X0276108Y0064145D01*
X0276108Y0062546D02*
X0402908Y0062546D01*
X0402908Y0060948D02*
X0281496Y0060948D01*
X0278680Y0060948D02*
X0278311Y0060948D01*
X0278311Y0059349D02*
X0278680Y0059349D01*
X0278680Y0057751D02*
X0278311Y0057751D01*
X0278311Y0056152D02*
X0278680Y0056152D01*
X0278680Y0054554D02*
X0278311Y0054554D01*
X0278311Y0052955D02*
X0278680Y0052955D01*
X0273927Y0048160D02*
X0273064Y0048160D01*
X0273064Y0046561D02*
X0273927Y0046561D01*
X0274277Y0044963D02*
X0272714Y0044963D01*
X0271116Y0043364D02*
X0275875Y0043364D01*
X0272556Y0049758D02*
X0272403Y0049758D01*
X0271377Y0051357D02*
X0270804Y0051357D01*
X0270990Y0052955D02*
X0271308Y0052955D01*
X0268680Y0052955D02*
X0268311Y0052955D01*
X0268311Y0054554D02*
X0268680Y0054554D01*
X0268680Y0056152D02*
X0268311Y0056152D01*
X0268311Y0057389D02*
X0268311Y0061973D01*
X0266520Y0061973D01*
X0266108Y0061561D01*
X0266108Y0064477D01*
X0265743Y0065359D01*
X0261220Y0069882D01*
X0261859Y0070521D01*
X0262499Y0072065D01*
X0262499Y0078935D01*
X0261859Y0080479D01*
X0260699Y0081640D01*
X0260699Y0088615D01*
X0265899Y0083415D01*
X0265899Y0081640D01*
X0264738Y0080479D01*
X0264099Y0078935D01*
X0264099Y0072065D01*
X0264738Y0070521D01*
X0265899Y0069360D01*
X0265899Y0068932D01*
X0266264Y0068050D01*
X0266939Y0067375D01*
X0271308Y0063006D01*
X0271308Y0061136D01*
X0270471Y0061973D01*
X0268680Y0061973D01*
X0268680Y0057389D01*
X0268311Y0057389D01*
X0268311Y0057751D02*
X0268680Y0057751D01*
X0268680Y0059349D02*
X0268311Y0059349D01*
X0268311Y0060948D02*
X0268680Y0060948D01*
X0266108Y0062546D02*
X0271308Y0062546D01*
X0270169Y0064145D02*
X0266108Y0064145D01*
X0265359Y0065743D02*
X0268571Y0065743D01*
X0266972Y0067342D02*
X0263760Y0067342D01*
X0262162Y0068940D02*
X0265899Y0068940D01*
X0264731Y0070539D02*
X0261867Y0070539D01*
X0262499Y0072137D02*
X0264099Y0072137D01*
X0264099Y0073736D02*
X0262499Y0073736D01*
X0262499Y0075334D02*
X0264099Y0075334D01*
X0264099Y0076933D02*
X0262499Y0076933D01*
X0262499Y0078532D02*
X0264099Y0078532D01*
X0264593Y0080130D02*
X0262004Y0080130D01*
X0260699Y0081729D02*
X0265899Y0081729D01*
X0265899Y0083327D02*
X0260699Y0083327D01*
X0260699Y0084926D02*
X0264388Y0084926D01*
X0262790Y0086524D02*
X0260699Y0086524D01*
X0260699Y0088123D02*
X0261191Y0088123D01*
X0265108Y0096115D02*
X0269554Y0096115D01*
X0268704Y0097714D02*
X0265108Y0097714D01*
X0265108Y0099312D02*
X0268608Y0099312D01*
X0268608Y0100911D02*
X0265108Y0100911D01*
X0265108Y0102509D02*
X0268608Y0102509D01*
X0268608Y0104108D02*
X0265108Y0104108D01*
X0265108Y0105706D02*
X0268608Y0105706D01*
X0268608Y0107305D02*
X0265108Y0107305D01*
X0265108Y0108903D02*
X0268608Y0108903D01*
X0276808Y0108903D02*
X0358860Y0108903D01*
X0358733Y0110502D02*
X0276808Y0110502D01*
X0276808Y0112100D02*
X0359276Y0112100D01*
X0360308Y0113699D02*
X0276808Y0113699D01*
X0276808Y0115297D02*
X0360308Y0115297D01*
X0360308Y0116896D02*
X0276808Y0116896D01*
X0276808Y0118494D02*
X0331665Y0118494D01*
X0333751Y0118494D02*
X0360308Y0118494D01*
X0360308Y0120093D02*
X0336099Y0120093D01*
X0336808Y0121691D02*
X0360308Y0121691D01*
X0360308Y0123290D02*
X0336808Y0123290D01*
X0336118Y0124888D02*
X0360198Y0124888D01*
X0359033Y0126487D02*
X0334519Y0126487D01*
X0332921Y0128085D02*
X0358733Y0128085D01*
X0359103Y0129684D02*
X0306808Y0129684D01*
X0306808Y0131282D02*
X0360369Y0131282D01*
X0362708Y0128000D02*
X0362708Y0110000D01*
X0359782Y0107305D02*
X0276808Y0107305D01*
X0276808Y0120093D02*
X0329317Y0120093D01*
X0300218Y0121691D02*
X0276808Y0121691D01*
X0276808Y0123290D02*
X0298979Y0123290D01*
X0298608Y0124888D02*
X0276808Y0124888D01*
X0276808Y0126487D02*
X0298608Y0126487D01*
X0298608Y0128085D02*
X0276808Y0128085D01*
X0276808Y0129684D02*
X0298608Y0129684D01*
X0298608Y0131282D02*
X0276808Y0131282D01*
X0276808Y0132881D02*
X0298608Y0132881D01*
X0298608Y0134479D02*
X0276808Y0134479D01*
X0276808Y0136078D02*
X0298608Y0136078D01*
X0298608Y0137676D02*
X0276808Y0137676D01*
X0276808Y0139275D02*
X0298608Y0139275D01*
X0298608Y0140873D02*
X0276808Y0140873D01*
X0276808Y0142472D02*
X0298608Y0142472D01*
X0298608Y0144070D02*
X0276808Y0144070D01*
X0276808Y0145669D02*
X0298608Y0145669D01*
X0298608Y0147268D02*
X0276808Y0147268D01*
X0276808Y0148866D02*
X0298608Y0148866D01*
X0298608Y0150465D02*
X0276808Y0150465D01*
X0276808Y0152063D02*
X0298608Y0152063D01*
X0298608Y0153662D02*
X0276808Y0153662D01*
X0276808Y0155260D02*
X0298608Y0155260D01*
X0298608Y0156859D02*
X0276808Y0156859D01*
X0276808Y0158457D02*
X0298608Y0158457D01*
X0298608Y0160056D02*
X0276808Y0160056D01*
X0276808Y0161654D02*
X0298608Y0161654D01*
X0298608Y0163253D02*
X0276808Y0163253D01*
X0276808Y0164851D02*
X0298608Y0164851D01*
X0298608Y0166450D02*
X0276808Y0166450D01*
X0276808Y0168048D02*
X0298608Y0168048D01*
X0298608Y0169647D02*
X0276808Y0169647D01*
X0276808Y0171245D02*
X0298786Y0171245D01*
X0299753Y0172844D02*
X0276808Y0172844D01*
X0242708Y0175000D02*
X0217708Y0150000D01*
X0217708Y0076091D01*
X0218299Y0075500D01*
X0218299Y0069409D01*
X0223708Y0064000D01*
X0223708Y0052000D01*
X0228495Y0047213D01*
X0228495Y0047205D01*
X0223927Y0046561D02*
X0223064Y0046561D01*
X0223064Y0048160D02*
X0223927Y0048160D01*
X0222556Y0049758D02*
X0222403Y0049758D01*
X0221377Y0051357D02*
X0220804Y0051357D01*
X0220990Y0052955D02*
X0221308Y0052955D01*
X0218680Y0052955D02*
X0218311Y0052955D01*
X0218311Y0054554D02*
X0218680Y0054554D01*
X0218680Y0056152D02*
X0218311Y0056152D01*
X0218311Y0057389D02*
X0218311Y0061973D01*
X0216520Y0061973D01*
X0216108Y0061561D01*
X0216108Y0064477D01*
X0215743Y0065359D01*
X0211220Y0069882D01*
X0211859Y0070521D01*
X0212499Y0072065D01*
X0212499Y0078935D01*
X0211859Y0080479D01*
X0210678Y0081661D01*
X0210108Y0081897D01*
X0210108Y0093979D01*
X0210457Y0093630D01*
X0211917Y0093025D01*
X0213499Y0093025D01*
X0214960Y0093630D01*
X0215308Y0093979D01*
X0215308Y0081049D01*
X0214738Y0080479D01*
X0214099Y0078935D01*
X0214099Y0072065D01*
X0214738Y0070521D01*
X0215899Y0069360D01*
X0215899Y0068932D01*
X0216264Y0068050D01*
X0216939Y0067375D01*
X0221308Y0063006D01*
X0221308Y0061136D01*
X0220471Y0061973D01*
X0218680Y0061973D01*
X0218680Y0057389D01*
X0218311Y0057389D01*
X0218311Y0057751D02*
X0218680Y0057751D01*
X0218680Y0059349D02*
X0218311Y0059349D01*
X0218311Y0060948D02*
X0218680Y0060948D01*
X0216108Y0062546D02*
X0221308Y0062546D01*
X0220169Y0064145D02*
X0216108Y0064145D01*
X0215359Y0065743D02*
X0218571Y0065743D01*
X0216972Y0067342D02*
X0213760Y0067342D01*
X0212162Y0068940D02*
X0215899Y0068940D01*
X0214731Y0070539D02*
X0211867Y0070539D01*
X0212499Y0072137D02*
X0214099Y0072137D01*
X0214099Y0073736D02*
X0212499Y0073736D01*
X0212499Y0075334D02*
X0214099Y0075334D01*
X0214099Y0076933D02*
X0212499Y0076933D01*
X0212499Y0078532D02*
X0214099Y0078532D01*
X0214593Y0080130D02*
X0212004Y0080130D01*
X0210514Y0081729D02*
X0215308Y0081729D01*
X0215308Y0083327D02*
X0210108Y0083327D01*
X0210108Y0084926D02*
X0215308Y0084926D01*
X0215308Y0086524D02*
X0210108Y0086524D01*
X0210108Y0088123D02*
X0215308Y0088123D01*
X0215308Y0089721D02*
X0210108Y0089721D01*
X0210108Y0091320D02*
X0215308Y0091320D01*
X0215308Y0092918D02*
X0210108Y0092918D01*
X0205308Y0092918D02*
X0200108Y0092918D01*
X0200108Y0091320D02*
X0205308Y0091320D01*
X0205308Y0089721D02*
X0200108Y0089721D01*
X0200108Y0088123D02*
X0205308Y0088123D01*
X0205308Y0086524D02*
X0200108Y0086524D01*
X0200108Y0084926D02*
X0205308Y0084926D01*
X0205308Y0083327D02*
X0200108Y0083327D01*
X0200108Y0081897D02*
X0200108Y0101979D01*
X0200457Y0101630D01*
X0201917Y0101025D01*
X0203499Y0101025D01*
X0204960Y0101630D01*
X0205308Y0101979D01*
X0205308Y0081049D01*
X0204738Y0080479D01*
X0204099Y0078935D01*
X0204099Y0072065D01*
X0204738Y0070521D01*
X0205899Y0069360D01*
X0205899Y0068932D01*
X0206264Y0068050D01*
X0206939Y0067375D01*
X0211308Y0063006D01*
X0211308Y0061136D01*
X0210471Y0061973D01*
X0208680Y0061973D01*
X0208680Y0057389D01*
X0208311Y0057389D01*
X0208311Y0061973D01*
X0206520Y0061973D01*
X0206108Y0061561D01*
X0206108Y0064477D01*
X0205743Y0065359D01*
X0201220Y0069882D01*
X0201859Y0070521D01*
X0202499Y0072065D01*
X0202499Y0078935D01*
X0201859Y0080479D01*
X0200678Y0081661D01*
X0200108Y0081897D01*
X0200514Y0081729D02*
X0205308Y0081729D01*
X0204593Y0080130D02*
X0202004Y0080130D01*
X0202499Y0078532D02*
X0204099Y0078532D01*
X0204099Y0076933D02*
X0202499Y0076933D01*
X0202499Y0075334D02*
X0204099Y0075334D01*
X0204099Y0073736D02*
X0202499Y0073736D01*
X0202499Y0072137D02*
X0204099Y0072137D01*
X0204731Y0070539D02*
X0201867Y0070539D01*
X0202162Y0068940D02*
X0205899Y0068940D01*
X0206972Y0067342D02*
X0203760Y0067342D01*
X0205359Y0065743D02*
X0208571Y0065743D01*
X0210169Y0064145D02*
X0206108Y0064145D01*
X0206108Y0062546D02*
X0211308Y0062546D01*
X0213708Y0064000D02*
X0208299Y0069409D01*
X0208299Y0075500D01*
X0207708Y0076091D01*
X0207708Y0150000D01*
X0232708Y0175000D01*
X0222708Y0175000D02*
X0197708Y0150000D01*
X0197708Y0076091D01*
X0198299Y0075500D01*
X0198299Y0069409D01*
X0203708Y0064000D01*
X0203708Y0052000D01*
X0208495Y0047213D01*
X0208495Y0047205D01*
X0203927Y0046561D02*
X0203064Y0046561D01*
X0203064Y0048160D02*
X0203927Y0048160D01*
X0202556Y0049758D02*
X0202403Y0049758D01*
X0201377Y0051357D02*
X0200804Y0051357D01*
X0200990Y0052955D02*
X0201308Y0052955D01*
X0198680Y0052955D02*
X0198311Y0052955D01*
X0198311Y0054554D02*
X0198680Y0054554D01*
X0198680Y0056152D02*
X0198311Y0056152D01*
X0198311Y0057751D02*
X0198680Y0057751D01*
X0198680Y0059349D02*
X0198311Y0059349D01*
X0198311Y0060948D02*
X0198680Y0060948D01*
X0196108Y0062546D02*
X0201308Y0062546D01*
X0200169Y0064145D02*
X0196108Y0064145D01*
X0195359Y0065743D02*
X0198571Y0065743D01*
X0196972Y0067342D02*
X0193760Y0067342D01*
X0195068Y0066035D02*
X0195068Y0066035D01*
X0193708Y0064000D02*
X0188299Y0069409D01*
X0188299Y0075500D01*
X0188299Y0109409D01*
X0182708Y0115000D01*
X0178140Y0115297D02*
X0177277Y0115297D01*
X0177277Y0116892D02*
X0174600Y0119568D01*
X0170816Y0119568D01*
X0168140Y0116892D01*
X0168140Y0113108D01*
X0170816Y0110431D01*
X0174600Y0110431D01*
X0177277Y0113108D01*
X0177277Y0116892D01*
X0177273Y0116896D02*
X0178143Y0116896D01*
X0179742Y0118494D02*
X0175675Y0118494D01*
X0177277Y0113699D02*
X0178140Y0113699D01*
X0179147Y0112100D02*
X0176269Y0112100D01*
X0174671Y0110502D02*
X0180745Y0110502D01*
X0185411Y0108903D02*
X0139852Y0108903D01*
X0140108Y0110502D02*
X0140745Y0110502D01*
X0137708Y0110000D02*
X0137708Y0120000D01*
X0172708Y0155000D01*
X0192708Y0155000D01*
X0212708Y0175000D01*
X0217277Y0174442D02*
X0218140Y0174442D01*
X0218140Y0176041D02*
X0217277Y0176041D01*
X0216530Y0177639D02*
X0218886Y0177639D01*
X0217158Y0172844D02*
X0217013Y0172844D01*
X0215559Y0171245D02*
X0215414Y0171245D01*
X0213961Y0169647D02*
X0210749Y0169647D01*
X0209150Y0168048D02*
X0212362Y0168048D01*
X0210764Y0166450D02*
X0207552Y0166450D01*
X0205953Y0164851D02*
X0209165Y0164851D01*
X0207567Y0163253D02*
X0204355Y0163253D01*
X0202756Y0161654D02*
X0205968Y0161654D01*
X0204370Y0160056D02*
X0201158Y0160056D01*
X0199559Y0158457D02*
X0202771Y0158457D01*
X0201173Y0156859D02*
X0197961Y0156859D01*
X0196362Y0155260D02*
X0199574Y0155260D01*
X0197976Y0153662D02*
X0194764Y0153662D01*
X0196377Y0152063D02*
X0173165Y0152063D01*
X0171567Y0150465D02*
X0195308Y0150465D01*
X0195308Y0148866D02*
X0169968Y0148866D01*
X0168370Y0147268D02*
X0195308Y0147268D01*
X0195308Y0145669D02*
X0166771Y0145669D01*
X0165173Y0144070D02*
X0195308Y0144070D01*
X0195308Y0142472D02*
X0163574Y0142472D01*
X0161976Y0140873D02*
X0195308Y0140873D01*
X0195308Y0139275D02*
X0160377Y0139275D01*
X0158779Y0137676D02*
X0195308Y0137676D01*
X0195308Y0136078D02*
X0157180Y0136078D01*
X0155582Y0134479D02*
X0195308Y0134479D01*
X0195308Y0132881D02*
X0153983Y0132881D01*
X0152385Y0131282D02*
X0195308Y0131282D01*
X0195308Y0129684D02*
X0150786Y0129684D01*
X0149188Y0128085D02*
X0195308Y0128085D01*
X0195308Y0126487D02*
X0147589Y0126487D01*
X0145991Y0124888D02*
X0195308Y0124888D01*
X0195308Y0123290D02*
X0144392Y0123290D01*
X0142793Y0121691D02*
X0195308Y0121691D01*
X0195308Y0120093D02*
X0141195Y0120093D01*
X0135308Y0111139D02*
X0135308Y0110994D01*
X0116673Y0092359D01*
X0116308Y0091477D01*
X0116308Y0081640D01*
X0115147Y0080479D01*
X0114508Y0078935D01*
X0114508Y0072065D01*
X0115147Y0070521D01*
X0116308Y0069360D01*
X0116308Y0068523D01*
X0116673Y0067641D01*
X0121308Y0063006D01*
X0121308Y0061136D01*
X0120471Y0061973D01*
X0118680Y0061973D01*
X0118680Y0057389D01*
X0118311Y0057389D01*
X0118311Y0061973D01*
X0116520Y0061973D01*
X0116108Y0061561D01*
X0116108Y0064477D01*
X0115743Y0065359D01*
X0115068Y0066035D01*
X0111425Y0069677D01*
X0112269Y0070521D01*
X0112908Y0072065D01*
X0112908Y0078935D01*
X0112269Y0080479D01*
X0111108Y0081640D01*
X0111108Y0090006D01*
X0129068Y0107965D01*
X0129743Y0108641D01*
X0130108Y0109523D01*
X0130108Y0111139D01*
X0130816Y0110431D01*
X0134600Y0110431D01*
X0135308Y0111139D01*
X0134816Y0110502D02*
X0134671Y0110502D01*
X0133217Y0108903D02*
X0129852Y0108903D01*
X0130108Y0110502D02*
X0130745Y0110502D01*
X0127708Y0110000D02*
X0127708Y0120000D01*
X0167708Y0160000D01*
X0187708Y0160000D01*
X0202708Y0175000D01*
X0192708Y0175000D02*
X0182708Y0165000D01*
X0162708Y0165000D01*
X0117708Y0120000D01*
X0117708Y0110000D01*
X0098708Y0091000D01*
X0098708Y0075500D01*
X0098708Y0069000D01*
X0103708Y0064000D01*
X0103708Y0052500D01*
X0098495Y0047287D01*
X0098495Y0047205D01*
X0093927Y0046561D02*
X0093064Y0046561D01*
X0093064Y0048160D02*
X0093927Y0048160D01*
X0094360Y0049758D02*
X0094588Y0049758D01*
X0095832Y0051357D02*
X0096187Y0051357D01*
X0098311Y0052955D02*
X0098680Y0052955D01*
X0098680Y0054554D02*
X0098311Y0054554D01*
X0098311Y0056152D02*
X0098680Y0056152D01*
X0098680Y0057389D02*
X0098311Y0057389D01*
X0098311Y0061973D01*
X0096520Y0061973D01*
X0096108Y0061561D01*
X0096108Y0064477D01*
X0095743Y0065359D01*
X0095068Y0066035D01*
X0091425Y0069677D01*
X0092269Y0070521D01*
X0092908Y0072065D01*
X0092908Y0078935D01*
X0092269Y0080479D01*
X0091108Y0081640D01*
X0091108Y0090006D01*
X0109068Y0107965D01*
X0109743Y0108641D01*
X0110108Y0109523D01*
X0110108Y0111139D01*
X0110816Y0110431D01*
X0114600Y0110431D01*
X0115308Y0111139D01*
X0115308Y0110994D01*
X0096673Y0092359D01*
X0096308Y0091477D01*
X0096308Y0081640D01*
X0095147Y0080479D01*
X0094508Y0078935D01*
X0094508Y0072065D01*
X0095147Y0070521D01*
X0096308Y0069360D01*
X0096308Y0068523D01*
X0096673Y0067641D01*
X0101308Y0063006D01*
X0101308Y0061136D01*
X0100471Y0061973D01*
X0098680Y0061973D01*
X0098680Y0057389D01*
X0098680Y0057751D02*
X0098311Y0057751D01*
X0098311Y0059349D02*
X0098680Y0059349D01*
X0098680Y0060948D02*
X0098311Y0060948D01*
X0096108Y0062546D02*
X0101308Y0062546D01*
X0100169Y0064145D02*
X0096108Y0064145D01*
X0095359Y0065743D02*
X0098571Y0065743D01*
X0096972Y0067342D02*
X0093760Y0067342D01*
X0092162Y0068940D02*
X0096308Y0068940D01*
X0095140Y0070539D02*
X0092276Y0070539D01*
X0092908Y0072137D02*
X0094508Y0072137D01*
X0094508Y0073736D02*
X0092908Y0073736D01*
X0092908Y0075334D02*
X0094508Y0075334D01*
X0094508Y0076933D02*
X0092908Y0076933D01*
X0092908Y0078532D02*
X0094508Y0078532D01*
X0095003Y0080130D02*
X0092413Y0080130D01*
X0091108Y0081729D02*
X0096308Y0081729D01*
X0096308Y0083327D02*
X0091108Y0083327D01*
X0091108Y0084926D02*
X0096308Y0084926D01*
X0096308Y0086524D02*
X0091108Y0086524D01*
X0091108Y0088123D02*
X0096308Y0088123D01*
X0096308Y0089721D02*
X0091108Y0089721D01*
X0092422Y0091320D02*
X0096308Y0091320D01*
X0097232Y0092918D02*
X0094020Y0092918D01*
X0095619Y0094517D02*
X0098831Y0094517D01*
X0100429Y0096115D02*
X0097217Y0096115D01*
X0098816Y0097714D02*
X0102028Y0097714D01*
X0103626Y0099312D02*
X0100414Y0099312D01*
X0102013Y0100911D02*
X0105225Y0100911D01*
X0106823Y0102509D02*
X0103611Y0102509D01*
X0105210Y0104108D02*
X0108422Y0104108D01*
X0110020Y0105706D02*
X0106808Y0105706D01*
X0108407Y0107305D02*
X0111619Y0107305D01*
X0113217Y0108903D02*
X0109852Y0108903D01*
X0110108Y0110502D02*
X0110745Y0110502D01*
X0107708Y0110000D02*
X0107708Y0120000D01*
X0162708Y0175000D01*
X0152708Y0175000D02*
X0097708Y0120000D01*
X0097708Y0110000D01*
X0078708Y0091000D01*
X0078708Y0075500D01*
X0078708Y0069000D01*
X0083708Y0064000D01*
X0083708Y0052500D01*
X0078495Y0047287D01*
X0078495Y0047205D01*
X0073927Y0046561D02*
X0073064Y0046561D01*
X0073064Y0048160D02*
X0073927Y0048160D01*
X0074360Y0049758D02*
X0074588Y0049758D01*
X0075832Y0051357D02*
X0076187Y0051357D01*
X0078311Y0052955D02*
X0078680Y0052955D01*
X0078680Y0054554D02*
X0078311Y0054554D01*
X0078311Y0056152D02*
X0078680Y0056152D01*
X0078680Y0057389D02*
X0078311Y0057389D01*
X0078311Y0061973D01*
X0076520Y0061973D01*
X0076108Y0061561D01*
X0076108Y0064477D01*
X0075743Y0065359D01*
X0075068Y0066035D01*
X0071425Y0069677D01*
X0072269Y0070521D01*
X0072908Y0072065D01*
X0072908Y0078935D01*
X0072269Y0080479D01*
X0071108Y0081640D01*
X0071108Y0090006D01*
X0089068Y0107965D01*
X0089743Y0108641D01*
X0090108Y0109523D01*
X0090108Y0111139D01*
X0090816Y0110431D01*
X0094600Y0110431D01*
X0095308Y0111139D01*
X0095308Y0110994D01*
X0076673Y0092359D01*
X0076308Y0091477D01*
X0076308Y0081640D01*
X0075147Y0080479D01*
X0074508Y0078935D01*
X0074508Y0072065D01*
X0075147Y0070521D01*
X0076308Y0069360D01*
X0076308Y0068523D01*
X0076673Y0067641D01*
X0081308Y0063006D01*
X0081308Y0061136D01*
X0080471Y0061973D01*
X0078680Y0061973D01*
X0078680Y0057389D01*
X0078680Y0057751D02*
X0078311Y0057751D01*
X0078311Y0059349D02*
X0078680Y0059349D01*
X0078680Y0060948D02*
X0078311Y0060948D01*
X0076108Y0062546D02*
X0081308Y0062546D01*
X0080169Y0064145D02*
X0076108Y0064145D01*
X0075359Y0065743D02*
X0078571Y0065743D01*
X0076972Y0067342D02*
X0073760Y0067342D01*
X0075068Y0066035D02*
X0075068Y0066035D01*
X0073708Y0064000D02*
X0073708Y0052500D01*
X0068495Y0047287D01*
X0068495Y0047205D01*
X0063927Y0046561D02*
X0063064Y0046561D01*
X0063064Y0048160D02*
X0063927Y0048160D01*
X0064360Y0049758D02*
X0064588Y0049758D01*
X0065832Y0051357D02*
X0066187Y0051357D01*
X0068311Y0052955D02*
X0068680Y0052955D01*
X0068680Y0054554D02*
X0068311Y0054554D01*
X0068311Y0056152D02*
X0068680Y0056152D01*
X0068680Y0057389D02*
X0068311Y0057389D01*
X0068311Y0061973D01*
X0066520Y0061973D01*
X0066108Y0061561D01*
X0066108Y0064477D01*
X0065743Y0065359D01*
X0065068Y0066035D01*
X0061425Y0069677D01*
X0062269Y0070521D01*
X0062908Y0072065D01*
X0062908Y0078935D01*
X0062269Y0080479D01*
X0061108Y0081640D01*
X0061108Y0090006D01*
X0079068Y0107965D01*
X0079743Y0108641D01*
X0080108Y0109523D01*
X0080108Y0111139D01*
X0080816Y0110431D01*
X0084600Y0110431D01*
X0085308Y0111139D01*
X0085308Y0110994D01*
X0066673Y0092359D01*
X0066308Y0091477D01*
X0066308Y0081640D01*
X0065147Y0080479D01*
X0064508Y0078935D01*
X0064508Y0072065D01*
X0065147Y0070521D01*
X0066308Y0069360D01*
X0066308Y0068523D01*
X0066673Y0067641D01*
X0071308Y0063006D01*
X0071308Y0061136D01*
X0070471Y0061973D01*
X0068680Y0061973D01*
X0068680Y0057389D01*
X0068680Y0057751D02*
X0068311Y0057751D01*
X0068311Y0059349D02*
X0068680Y0059349D01*
X0068680Y0060948D02*
X0068311Y0060948D01*
X0066108Y0062546D02*
X0071308Y0062546D01*
X0070169Y0064145D02*
X0066108Y0064145D01*
X0065359Y0065743D02*
X0068571Y0065743D01*
X0066972Y0067342D02*
X0063760Y0067342D01*
X0062162Y0068940D02*
X0066308Y0068940D01*
X0065140Y0070539D02*
X0062276Y0070539D01*
X0062908Y0072137D02*
X0064508Y0072137D01*
X0064508Y0073736D02*
X0062908Y0073736D01*
X0062908Y0075334D02*
X0064508Y0075334D01*
X0064508Y0076933D02*
X0062908Y0076933D01*
X0062908Y0078532D02*
X0064508Y0078532D01*
X0065003Y0080130D02*
X0062413Y0080130D01*
X0061108Y0081729D02*
X0066308Y0081729D01*
X0066308Y0083327D02*
X0061108Y0083327D01*
X0061108Y0084926D02*
X0066308Y0084926D01*
X0066308Y0086524D02*
X0061108Y0086524D01*
X0061108Y0088123D02*
X0066308Y0088123D01*
X0066308Y0089721D02*
X0061108Y0089721D01*
X0062422Y0091320D02*
X0066308Y0091320D01*
X0067232Y0092918D02*
X0064020Y0092918D01*
X0065619Y0094517D02*
X0068831Y0094517D01*
X0070429Y0096115D02*
X0067217Y0096115D01*
X0068816Y0097714D02*
X0072028Y0097714D01*
X0073626Y0099312D02*
X0070414Y0099312D01*
X0072013Y0100911D02*
X0075225Y0100911D01*
X0076823Y0102509D02*
X0073611Y0102509D01*
X0075210Y0104108D02*
X0078422Y0104108D01*
X0080020Y0105706D02*
X0076808Y0105706D01*
X0078407Y0107305D02*
X0081619Y0107305D01*
X0083217Y0108903D02*
X0079852Y0108903D01*
X0080108Y0110502D02*
X0080745Y0110502D01*
X0077708Y0110000D02*
X0077708Y0120000D01*
X0132708Y0175000D01*
X0122708Y0175000D02*
X0067708Y0120000D01*
X0067708Y0110000D01*
X0048708Y0091000D01*
X0048708Y0075500D01*
X0048708Y0069000D01*
X0053708Y0064000D01*
X0055359Y0065743D02*
X0058571Y0065743D01*
X0060169Y0064145D02*
X0056108Y0064145D01*
X0056108Y0064477D02*
X0055743Y0065359D01*
X0055068Y0066035D01*
X0051425Y0069677D01*
X0052269Y0070521D01*
X0052908Y0072065D01*
X0052908Y0078935D01*
X0052269Y0080479D01*
X0051108Y0081640D01*
X0051108Y0090006D01*
X0069068Y0107965D01*
X0069743Y0108641D01*
X0070108Y0109523D01*
X0070108Y0111139D01*
X0070816Y0110431D01*
X0074600Y0110431D01*
X0075308Y0111139D01*
X0075308Y0110994D01*
X0056673Y0092359D01*
X0056308Y0091477D01*
X0056308Y0081640D01*
X0055147Y0080479D01*
X0054508Y0078935D01*
X0054508Y0072065D01*
X0055147Y0070521D01*
X0056308Y0069360D01*
X0056308Y0068523D01*
X0056673Y0067641D01*
X0061308Y0063006D01*
X0061308Y0061136D01*
X0060471Y0061973D01*
X0058680Y0061973D01*
X0058680Y0057389D01*
X0058311Y0057389D01*
X0058311Y0061973D01*
X0056520Y0061973D01*
X0056108Y0061561D01*
X0056108Y0064477D01*
X0056108Y0062546D02*
X0061308Y0062546D01*
X0063708Y0064000D02*
X0058708Y0069000D01*
X0058708Y0075500D01*
X0058708Y0091000D01*
X0077708Y0110000D01*
X0074816Y0110502D02*
X0074671Y0110502D01*
X0073217Y0108903D02*
X0069852Y0108903D01*
X0070108Y0110502D02*
X0070745Y0110502D01*
X0071619Y0107305D02*
X0068407Y0107305D01*
X0066808Y0105706D02*
X0070020Y0105706D01*
X0068422Y0104108D02*
X0065210Y0104108D01*
X0063611Y0102509D02*
X0066823Y0102509D01*
X0065225Y0100911D02*
X0062013Y0100911D01*
X0060414Y0099312D02*
X0063626Y0099312D01*
X0062028Y0097714D02*
X0058816Y0097714D01*
X0057217Y0096115D02*
X0060429Y0096115D01*
X0058831Y0094517D02*
X0055619Y0094517D01*
X0054020Y0092918D02*
X0057232Y0092918D01*
X0056308Y0091320D02*
X0052422Y0091320D01*
X0051108Y0089721D02*
X0056308Y0089721D01*
X0056308Y0088123D02*
X0051108Y0088123D01*
X0051108Y0086524D02*
X0056308Y0086524D01*
X0056308Y0084926D02*
X0051108Y0084926D01*
X0051108Y0083327D02*
X0056308Y0083327D01*
X0056308Y0081729D02*
X0051108Y0081729D01*
X0052413Y0080130D02*
X0055003Y0080130D01*
X0054508Y0078532D02*
X0052908Y0078532D01*
X0052908Y0076933D02*
X0054508Y0076933D01*
X0054508Y0075334D02*
X0052908Y0075334D01*
X0052908Y0073736D02*
X0054508Y0073736D01*
X0054508Y0072137D02*
X0052908Y0072137D01*
X0052276Y0070539D02*
X0055140Y0070539D01*
X0056308Y0068940D02*
X0052162Y0068940D01*
X0053760Y0067342D02*
X0056972Y0067342D01*
X0058311Y0060948D02*
X0058680Y0060948D01*
X0058680Y0059349D02*
X0058311Y0059349D01*
X0058311Y0057751D02*
X0058680Y0057751D01*
X0058680Y0057020D02*
X0058680Y0052436D01*
X0060250Y0052436D01*
X0059587Y0051773D01*
X0056603Y0051773D01*
X0055935Y0051105D01*
X0056108Y0051523D01*
X0056108Y0052848D01*
X0056520Y0052436D01*
X0058311Y0052436D01*
X0058311Y0057020D01*
X0058680Y0057020D01*
X0058680Y0056152D02*
X0058311Y0056152D01*
X0058311Y0054554D02*
X0058680Y0054554D01*
X0058680Y0052955D02*
X0058311Y0052955D01*
X0056187Y0051357D02*
X0056039Y0051357D01*
X0053927Y0048160D02*
X0053262Y0048160D01*
X0053064Y0046561D02*
X0053927Y0046561D01*
X0054277Y0044963D02*
X0052714Y0044963D01*
X0051116Y0043364D02*
X0055875Y0043364D01*
X0058495Y0047205D02*
X0058495Y0047287D01*
X0063708Y0052500D01*
X0063708Y0064000D01*
X0068708Y0069000D02*
X0073708Y0064000D01*
X0072162Y0068940D02*
X0076308Y0068940D01*
X0075140Y0070539D02*
X0072276Y0070539D01*
X0072908Y0072137D02*
X0074508Y0072137D01*
X0074508Y0073736D02*
X0072908Y0073736D01*
X0072908Y0075334D02*
X0074508Y0075334D01*
X0074508Y0076933D02*
X0072908Y0076933D01*
X0072908Y0078532D02*
X0074508Y0078532D01*
X0075003Y0080130D02*
X0072413Y0080130D01*
X0071108Y0081729D02*
X0076308Y0081729D01*
X0076308Y0083327D02*
X0071108Y0083327D01*
X0071108Y0084926D02*
X0076308Y0084926D01*
X0076308Y0086524D02*
X0071108Y0086524D01*
X0071108Y0088123D02*
X0076308Y0088123D01*
X0076308Y0089721D02*
X0071108Y0089721D01*
X0072422Y0091320D02*
X0076308Y0091320D01*
X0077232Y0092918D02*
X0074020Y0092918D01*
X0075619Y0094517D02*
X0078831Y0094517D01*
X0080429Y0096115D02*
X0077217Y0096115D01*
X0078816Y0097714D02*
X0082028Y0097714D01*
X0083626Y0099312D02*
X0080414Y0099312D01*
X0082013Y0100911D02*
X0085225Y0100911D01*
X0086823Y0102509D02*
X0083611Y0102509D01*
X0085210Y0104108D02*
X0088422Y0104108D01*
X0090020Y0105706D02*
X0086808Y0105706D01*
X0088407Y0107305D02*
X0091619Y0107305D01*
X0093217Y0108903D02*
X0089852Y0108903D01*
X0090108Y0110502D02*
X0090745Y0110502D01*
X0087708Y0110000D02*
X0087708Y0120000D01*
X0142708Y0175000D01*
X0150816Y0119568D02*
X0148140Y0116892D01*
X0148140Y0113108D01*
X0150816Y0110431D01*
X0154600Y0110431D01*
X0157277Y0113108D01*
X0157277Y0116892D01*
X0154600Y0119568D01*
X0150816Y0119568D01*
X0149742Y0118494D02*
X0145675Y0118494D01*
X0147273Y0116896D02*
X0148143Y0116896D01*
X0148140Y0115297D02*
X0147277Y0115297D01*
X0147277Y0113699D02*
X0148140Y0113699D01*
X0149147Y0112100D02*
X0146269Y0112100D01*
X0144671Y0110502D02*
X0150745Y0110502D01*
X0154671Y0110502D02*
X0160745Y0110502D01*
X0160816Y0110431D02*
X0164600Y0110431D01*
X0167277Y0113108D01*
X0167277Y0116892D01*
X0164600Y0119568D01*
X0160816Y0119568D01*
X0158140Y0116892D01*
X0158140Y0113108D01*
X0160816Y0110431D01*
X0159147Y0112100D02*
X0156269Y0112100D01*
X0157277Y0113699D02*
X0158140Y0113699D01*
X0158140Y0115297D02*
X0157277Y0115297D01*
X0157273Y0116896D02*
X0158143Y0116896D01*
X0159742Y0118494D02*
X0155675Y0118494D01*
X0165675Y0118494D02*
X0169742Y0118494D01*
X0168143Y0116896D02*
X0167273Y0116896D01*
X0167277Y0115297D02*
X0168140Y0115297D01*
X0168140Y0113699D02*
X0167277Y0113699D01*
X0166269Y0112100D02*
X0169147Y0112100D01*
X0170745Y0110502D02*
X0164671Y0110502D01*
X0185899Y0107305D02*
X0138407Y0107305D01*
X0136808Y0105706D02*
X0185899Y0105706D01*
X0185899Y0104108D02*
X0135210Y0104108D01*
X0133611Y0102509D02*
X0185899Y0102509D01*
X0185899Y0100911D02*
X0132013Y0100911D01*
X0130414Y0099312D02*
X0185899Y0099312D01*
X0185899Y0097714D02*
X0128816Y0097714D01*
X0127217Y0096115D02*
X0185899Y0096115D01*
X0185899Y0094517D02*
X0125619Y0094517D01*
X0124020Y0092918D02*
X0185899Y0092918D01*
X0185899Y0091320D02*
X0122422Y0091320D01*
X0121108Y0089721D02*
X0185899Y0089721D01*
X0185899Y0088123D02*
X0121108Y0088123D01*
X0121108Y0086524D02*
X0185899Y0086524D01*
X0185899Y0084926D02*
X0121108Y0084926D01*
X0121108Y0083327D02*
X0185899Y0083327D01*
X0185899Y0081729D02*
X0130923Y0081729D01*
X0131087Y0081661D02*
X0129544Y0082300D01*
X0127873Y0082300D01*
X0126329Y0081661D01*
X0125147Y0080479D01*
X0124508Y0078935D01*
X0124508Y0072065D01*
X0125147Y0070521D01*
X0126329Y0069339D01*
X0127873Y0068700D01*
X0129544Y0068700D01*
X0131087Y0069339D01*
X0132269Y0070521D01*
X0132908Y0072065D01*
X0132908Y0078935D01*
X0132269Y0080479D01*
X0131087Y0081661D01*
X0132413Y0080130D02*
X0184593Y0080130D01*
X0184099Y0078532D02*
X0132908Y0078532D01*
X0132908Y0076933D02*
X0184099Y0076933D01*
X0184099Y0075334D02*
X0132908Y0075334D01*
X0132908Y0073736D02*
X0184099Y0073736D01*
X0184099Y0072137D02*
X0132908Y0072137D01*
X0132276Y0070539D02*
X0184731Y0070539D01*
X0185899Y0068940D02*
X0130124Y0068940D01*
X0127292Y0068940D02*
X0122162Y0068940D01*
X0122276Y0070539D02*
X0125140Y0070539D01*
X0124508Y0072137D02*
X0122908Y0072137D01*
X0122908Y0073736D02*
X0124508Y0073736D01*
X0124508Y0075334D02*
X0122908Y0075334D01*
X0122908Y0076933D02*
X0124508Y0076933D01*
X0124508Y0078532D02*
X0122908Y0078532D01*
X0122413Y0080130D02*
X0125003Y0080130D01*
X0126493Y0081729D02*
X0121108Y0081729D01*
X0118708Y0075500D02*
X0118708Y0091000D01*
X0137708Y0110000D01*
X0131619Y0107305D02*
X0128407Y0107305D01*
X0126808Y0105706D02*
X0130020Y0105706D01*
X0128422Y0104108D02*
X0125210Y0104108D01*
X0123611Y0102509D02*
X0126823Y0102509D01*
X0125225Y0100911D02*
X0122013Y0100911D01*
X0120414Y0099312D02*
X0123626Y0099312D01*
X0122028Y0097714D02*
X0118816Y0097714D01*
X0117217Y0096115D02*
X0120429Y0096115D01*
X0118831Y0094517D02*
X0115619Y0094517D01*
X0114020Y0092918D02*
X0117232Y0092918D01*
X0116308Y0091320D02*
X0112422Y0091320D01*
X0111108Y0089721D02*
X0116308Y0089721D01*
X0116308Y0088123D02*
X0111108Y0088123D01*
X0111108Y0086524D02*
X0116308Y0086524D01*
X0116308Y0084926D02*
X0111108Y0084926D01*
X0111108Y0083327D02*
X0116308Y0083327D01*
X0116308Y0081729D02*
X0111108Y0081729D01*
X0112413Y0080130D02*
X0115003Y0080130D01*
X0114508Y0078532D02*
X0112908Y0078532D01*
X0112908Y0076933D02*
X0114508Y0076933D01*
X0114508Y0075334D02*
X0112908Y0075334D01*
X0112908Y0073736D02*
X0114508Y0073736D01*
X0114508Y0072137D02*
X0112908Y0072137D01*
X0112276Y0070539D02*
X0115140Y0070539D01*
X0116308Y0068940D02*
X0112162Y0068940D01*
X0113760Y0067342D02*
X0116972Y0067342D01*
X0118571Y0065743D02*
X0115359Y0065743D01*
X0115068Y0066035D02*
X0115068Y0066035D01*
X0116108Y0064145D02*
X0120169Y0064145D01*
X0121308Y0062546D02*
X0116108Y0062546D01*
X0118311Y0060948D02*
X0118680Y0060948D01*
X0118680Y0059349D02*
X0118311Y0059349D01*
X0118311Y0057751D02*
X0118680Y0057751D01*
X0118680Y0057020D02*
X0118680Y0052436D01*
X0120471Y0052436D01*
X0121308Y0053274D01*
X0121308Y0051523D01*
X0121582Y0050862D01*
X0120471Y0051973D01*
X0118680Y0051973D01*
X0118680Y0047389D01*
X0118311Y0047389D01*
X0118311Y0051973D01*
X0116520Y0051973D01*
X0115782Y0051235D01*
X0116108Y0052023D01*
X0116108Y0052848D01*
X0116520Y0052436D01*
X0118311Y0052436D01*
X0118311Y0057020D01*
X0118680Y0057020D01*
X0118680Y0056152D02*
X0118311Y0056152D01*
X0118311Y0054554D02*
X0118680Y0054554D01*
X0118680Y0052955D02*
X0118311Y0052955D01*
X0118311Y0051357D02*
X0118680Y0051357D01*
X0118680Y0049758D02*
X0118311Y0049758D01*
X0118311Y0048160D02*
X0118680Y0048160D01*
X0118311Y0047020D02*
X0113727Y0047020D01*
X0113727Y0045230D01*
X0116520Y0042436D01*
X0118311Y0042436D01*
X0118311Y0047020D01*
X0118311Y0046561D02*
X0118680Y0046561D01*
X0118680Y0044963D02*
X0118311Y0044963D01*
X0118311Y0043364D02*
X0118680Y0043364D01*
X0121399Y0043364D02*
X0125875Y0043364D01*
X0124277Y0044963D02*
X0122997Y0044963D01*
X0123264Y0046561D02*
X0123927Y0046561D01*
X0123927Y0048160D02*
X0123264Y0048160D01*
X0121377Y0051357D02*
X0121087Y0051357D01*
X0120990Y0052955D02*
X0121308Y0052955D01*
X0123708Y0052000D02*
X0123708Y0064000D01*
X0118708Y0069000D01*
X0118708Y0075500D01*
X0123760Y0067342D02*
X0186972Y0067342D01*
X0186939Y0067375D02*
X0186939Y0067375D01*
X0188571Y0065743D02*
X0125359Y0065743D01*
X0126108Y0064145D02*
X0190169Y0064145D01*
X0191308Y0062546D02*
X0126108Y0062546D01*
X0128311Y0060948D02*
X0128680Y0060948D01*
X0128680Y0059349D02*
X0128311Y0059349D01*
X0128311Y0057751D02*
X0128680Y0057751D01*
X0128680Y0056152D02*
X0128311Y0056152D01*
X0128311Y0054554D02*
X0128680Y0054554D01*
X0128680Y0052955D02*
X0128311Y0052955D01*
X0130990Y0052955D02*
X0136001Y0052955D01*
X0136520Y0052436D02*
X0138311Y0052436D01*
X0138311Y0057020D01*
X0138680Y0057020D01*
X0138680Y0052436D01*
X0140471Y0052436D01*
X0143264Y0055230D01*
X0143264Y0057020D01*
X0138680Y0057020D01*
X0138680Y0057389D01*
X0143264Y0057389D01*
X0143264Y0059180D01*
X0140471Y0061973D01*
X0138680Y0061973D01*
X0138680Y0057389D01*
X0138311Y0057389D01*
X0138311Y0057020D01*
X0133727Y0057020D01*
X0133727Y0055230D01*
X0136520Y0052436D01*
X0136520Y0051973D02*
X0133727Y0049180D01*
X0133727Y0047389D01*
X0138311Y0047389D01*
X0138311Y0047020D01*
X0138680Y0047020D01*
X0138680Y0042436D01*
X0140471Y0042436D01*
X0143264Y0045230D01*
X0143264Y0047020D01*
X0138680Y0047020D01*
X0138680Y0047389D01*
X0143264Y0047389D01*
X0143264Y0049180D01*
X0140471Y0051973D01*
X0138680Y0051973D01*
X0138680Y0047389D01*
X0138311Y0047389D01*
X0138311Y0051973D01*
X0136520Y0051973D01*
X0135904Y0051357D02*
X0130804Y0051357D01*
X0132403Y0049758D02*
X0134305Y0049758D01*
X0133727Y0048160D02*
X0133064Y0048160D01*
X0133727Y0047020D02*
X0133727Y0045230D01*
X0136520Y0042436D01*
X0138311Y0042436D01*
X0138311Y0047020D01*
X0133727Y0047020D01*
X0133727Y0046561D02*
X0133064Y0046561D01*
X0132714Y0044963D02*
X0133994Y0044963D01*
X0135592Y0043364D02*
X0131116Y0043364D01*
X0128495Y0047205D02*
X0128495Y0047213D01*
X0123708Y0052000D01*
X0115904Y0051357D02*
X0115832Y0051357D01*
X0113708Y0052500D02*
X0113708Y0064000D01*
X0108708Y0069000D01*
X0108708Y0075500D01*
X0108708Y0091000D01*
X0127708Y0110000D01*
X0125308Y0110994D02*
X0106673Y0092359D01*
X0106308Y0091477D01*
X0106308Y0081640D01*
X0105147Y0080479D01*
X0104508Y0078935D01*
X0104508Y0072065D01*
X0105147Y0070521D01*
X0106308Y0069360D01*
X0106308Y0068523D01*
X0106673Y0067641D01*
X0111308Y0063006D01*
X0111308Y0061136D01*
X0110471Y0061973D01*
X0108680Y0061973D01*
X0108680Y0057389D01*
X0108311Y0057389D01*
X0108311Y0061973D01*
X0106520Y0061973D01*
X0106108Y0061561D01*
X0106108Y0064477D01*
X0105743Y0065359D01*
X0105068Y0066035D01*
X0101425Y0069677D01*
X0102269Y0070521D01*
X0102908Y0072065D01*
X0102908Y0078935D01*
X0102269Y0080479D01*
X0101108Y0081640D01*
X0101108Y0090006D01*
X0119068Y0107965D01*
X0119743Y0108641D01*
X0120108Y0109523D01*
X0120108Y0111139D01*
X0120816Y0110431D01*
X0124600Y0110431D01*
X0125308Y0111139D01*
X0125308Y0110994D01*
X0124816Y0110502D02*
X0124671Y0110502D01*
X0123217Y0108903D02*
X0119852Y0108903D01*
X0120108Y0110502D02*
X0120745Y0110502D01*
X0121619Y0107305D02*
X0118407Y0107305D01*
X0116808Y0105706D02*
X0120020Y0105706D01*
X0118422Y0104108D02*
X0115210Y0104108D01*
X0113611Y0102509D02*
X0116823Y0102509D01*
X0115225Y0100911D02*
X0112013Y0100911D01*
X0110414Y0099312D02*
X0113626Y0099312D01*
X0112028Y0097714D02*
X0108816Y0097714D01*
X0107217Y0096115D02*
X0110429Y0096115D01*
X0108831Y0094517D02*
X0105619Y0094517D01*
X0104020Y0092918D02*
X0107232Y0092918D01*
X0106308Y0091320D02*
X0102422Y0091320D01*
X0101108Y0089721D02*
X0106308Y0089721D01*
X0106308Y0088123D02*
X0101108Y0088123D01*
X0101108Y0086524D02*
X0106308Y0086524D01*
X0106308Y0084926D02*
X0101108Y0084926D01*
X0101108Y0083327D02*
X0106308Y0083327D01*
X0106308Y0081729D02*
X0101108Y0081729D01*
X0102413Y0080130D02*
X0105003Y0080130D01*
X0104508Y0078532D02*
X0102908Y0078532D01*
X0102908Y0076933D02*
X0104508Y0076933D01*
X0104508Y0075334D02*
X0102908Y0075334D01*
X0102908Y0073736D02*
X0104508Y0073736D01*
X0104508Y0072137D02*
X0102908Y0072137D01*
X0102276Y0070539D02*
X0105140Y0070539D01*
X0106308Y0068940D02*
X0102162Y0068940D01*
X0103760Y0067342D02*
X0106972Y0067342D01*
X0108571Y0065743D02*
X0105359Y0065743D01*
X0106108Y0064145D02*
X0110169Y0064145D01*
X0111308Y0062546D02*
X0106108Y0062546D01*
X0108311Y0060948D02*
X0108680Y0060948D01*
X0108680Y0059349D02*
X0108311Y0059349D01*
X0108311Y0057751D02*
X0108680Y0057751D01*
X0108680Y0056152D02*
X0108311Y0056152D01*
X0108311Y0054554D02*
X0108680Y0054554D01*
X0108680Y0052955D02*
X0108311Y0052955D01*
X0106187Y0051357D02*
X0105832Y0051357D01*
X0104588Y0049758D02*
X0104360Y0049758D01*
X0103927Y0048160D02*
X0103064Y0048160D01*
X0103064Y0046561D02*
X0103927Y0046561D01*
X0104277Y0044963D02*
X0102714Y0044963D01*
X0101116Y0043364D02*
X0105875Y0043364D01*
X0108495Y0047205D02*
X0108495Y0047287D01*
X0113708Y0052500D01*
X0113727Y0048160D02*
X0113064Y0048160D01*
X0113064Y0046561D02*
X0113727Y0046561D01*
X0113994Y0044963D02*
X0112714Y0044963D01*
X0111116Y0043364D02*
X0115592Y0043364D01*
X0095875Y0043364D02*
X0091116Y0043364D01*
X0092714Y0044963D02*
X0094277Y0044963D01*
X0088495Y0047205D02*
X0088495Y0047287D01*
X0093708Y0052500D01*
X0093708Y0064000D01*
X0088708Y0069000D01*
X0088708Y0075500D01*
X0088708Y0091000D01*
X0107708Y0110000D01*
X0105308Y0110994D02*
X0086673Y0092359D01*
X0086308Y0091477D01*
X0086308Y0081640D01*
X0085147Y0080479D01*
X0084508Y0078935D01*
X0084508Y0072065D01*
X0085147Y0070521D01*
X0086308Y0069360D01*
X0086308Y0068523D01*
X0086673Y0067641D01*
X0091308Y0063006D01*
X0091308Y0061136D01*
X0090471Y0061973D01*
X0088680Y0061973D01*
X0088680Y0057389D01*
X0088311Y0057389D01*
X0088311Y0061973D01*
X0086520Y0061973D01*
X0086108Y0061561D01*
X0086108Y0064477D01*
X0085743Y0065359D01*
X0081425Y0069677D01*
X0082269Y0070521D01*
X0082908Y0072065D01*
X0082908Y0078935D01*
X0082269Y0080479D01*
X0081108Y0081640D01*
X0081108Y0090006D01*
X0099068Y0107965D01*
X0099743Y0108641D01*
X0100108Y0109523D01*
X0100108Y0111139D01*
X0100816Y0110431D01*
X0104600Y0110431D01*
X0105308Y0111139D01*
X0105308Y0110994D01*
X0104816Y0110502D02*
X0104671Y0110502D01*
X0103217Y0108903D02*
X0099852Y0108903D01*
X0100108Y0110502D02*
X0100745Y0110502D01*
X0101619Y0107305D02*
X0098407Y0107305D01*
X0096808Y0105706D02*
X0100020Y0105706D01*
X0098422Y0104108D02*
X0095210Y0104108D01*
X0093611Y0102509D02*
X0096823Y0102509D01*
X0095225Y0100911D02*
X0092013Y0100911D01*
X0090414Y0099312D02*
X0093626Y0099312D01*
X0092028Y0097714D02*
X0088816Y0097714D01*
X0087217Y0096115D02*
X0090429Y0096115D01*
X0088831Y0094517D02*
X0085619Y0094517D01*
X0084020Y0092918D02*
X0087232Y0092918D01*
X0086308Y0091320D02*
X0082422Y0091320D01*
X0081108Y0089721D02*
X0086308Y0089721D01*
X0086308Y0088123D02*
X0081108Y0088123D01*
X0081108Y0086524D02*
X0086308Y0086524D01*
X0086308Y0084926D02*
X0081108Y0084926D01*
X0081108Y0083327D02*
X0086308Y0083327D01*
X0086308Y0081729D02*
X0081108Y0081729D01*
X0082413Y0080130D02*
X0085003Y0080130D01*
X0084508Y0078532D02*
X0082908Y0078532D01*
X0082908Y0076933D02*
X0084508Y0076933D01*
X0084508Y0075334D02*
X0082908Y0075334D01*
X0082908Y0073736D02*
X0084508Y0073736D01*
X0084508Y0072137D02*
X0082908Y0072137D01*
X0082276Y0070539D02*
X0085140Y0070539D01*
X0086308Y0068940D02*
X0082162Y0068940D01*
X0083760Y0067342D02*
X0086972Y0067342D01*
X0088571Y0065743D02*
X0085359Y0065743D01*
X0086108Y0064145D02*
X0090169Y0064145D01*
X0091308Y0062546D02*
X0086108Y0062546D01*
X0088311Y0060948D02*
X0088680Y0060948D01*
X0088680Y0059349D02*
X0088311Y0059349D01*
X0088311Y0057751D02*
X0088680Y0057751D01*
X0088680Y0056152D02*
X0088311Y0056152D01*
X0088311Y0054554D02*
X0088680Y0054554D01*
X0088680Y0052955D02*
X0088311Y0052955D01*
X0086187Y0051357D02*
X0085832Y0051357D01*
X0085068Y0050465D02*
X0085068Y0050465D01*
X0084588Y0049758D02*
X0084360Y0049758D01*
X0083927Y0048160D02*
X0083064Y0048160D01*
X0083064Y0046561D02*
X0083927Y0046561D01*
X0084277Y0044963D02*
X0082714Y0044963D01*
X0081116Y0043364D02*
X0085875Y0043364D01*
X0075875Y0043364D02*
X0071116Y0043364D01*
X0072714Y0044963D02*
X0074277Y0044963D01*
X0065875Y0043364D02*
X0061116Y0043364D01*
X0062714Y0044963D02*
X0064277Y0044963D01*
X0051269Y0052955D02*
X0050990Y0052955D01*
X0044277Y0044963D02*
X0042714Y0044963D01*
X0041116Y0043364D02*
X0045875Y0043364D01*
X0038311Y0052436D02*
X0038311Y0057020D01*
X0033727Y0057020D01*
X0033727Y0055230D01*
X0036520Y0052436D01*
X0038311Y0052436D01*
X0038311Y0052955D02*
X0038680Y0052955D01*
X0038680Y0054554D02*
X0038311Y0054554D01*
X0038311Y0056152D02*
X0038680Y0056152D01*
X0038311Y0057389D02*
X0033727Y0057389D01*
X0033727Y0059180D01*
X0036520Y0061973D01*
X0038311Y0061973D01*
X0038311Y0057389D01*
X0038311Y0057751D02*
X0038680Y0057751D01*
X0038680Y0059349D02*
X0038311Y0059349D01*
X0038311Y0060948D02*
X0038680Y0060948D01*
X0035495Y0060948D02*
X0012508Y0060948D01*
X0012508Y0059349D02*
X0033896Y0059349D01*
X0033727Y0057751D02*
X0012508Y0057751D01*
X0012508Y0056152D02*
X0033727Y0056152D01*
X0034403Y0054554D02*
X0012508Y0054554D01*
X0012508Y0052955D02*
X0036001Y0052955D01*
X0036187Y0051357D02*
X0012508Y0051357D01*
X0012508Y0049758D02*
X0034588Y0049758D01*
X0033927Y0048160D02*
X0012508Y0048160D01*
X0012508Y0033773D02*
X0295376Y0033773D01*
X0295597Y0033994D02*
X0294659Y0033056D01*
X0294659Y0018676D01*
X0295597Y0017739D01*
X0309977Y0017739D01*
X0310914Y0018676D01*
X0310914Y0033056D01*
X0309977Y0033994D01*
X0295597Y0033994D01*
X0294659Y0032175D02*
X0012508Y0032175D01*
X0012508Y0030576D02*
X0294659Y0030576D01*
X0294659Y0028978D02*
X0012508Y0028978D01*
X0012508Y0027379D02*
X0294659Y0027379D01*
X0294659Y0025781D02*
X0012508Y0025781D01*
X0012508Y0024182D02*
X0294659Y0024182D01*
X0294659Y0022584D02*
X0012508Y0022584D01*
X0012508Y0020985D02*
X0294659Y0020985D01*
X0294659Y0019387D02*
X0012508Y0019387D01*
X0012508Y0017788D02*
X0295547Y0017788D01*
X0310027Y0017788D02*
X0388854Y0017788D01*
X0387966Y0019387D02*
X0310914Y0019387D01*
X0310914Y0020985D02*
X0387966Y0020985D01*
X0387966Y0022584D02*
X0310914Y0022584D01*
X0310914Y0024182D02*
X0387966Y0024182D01*
X0387966Y0025781D02*
X0310914Y0025781D01*
X0310914Y0027379D02*
X0387966Y0027379D01*
X0387966Y0028978D02*
X0310914Y0028978D01*
X0310914Y0030576D02*
X0387966Y0030576D01*
X0387966Y0032175D02*
X0310914Y0032175D01*
X0310198Y0033773D02*
X0388683Y0033773D01*
X0375459Y0036970D02*
X0363635Y0036970D01*
X0363934Y0037199D02*
X0364564Y0037830D01*
X0365106Y0038537D01*
X0365552Y0039309D01*
X0365893Y0040132D01*
X0366124Y0040993D01*
X0366240Y0041877D01*
X0366240Y0046646D01*
X0360117Y0046646D01*
X0360117Y0035553D01*
X0360770Y0035639D01*
X0361631Y0035870D01*
X0362454Y0036211D01*
X0363226Y0036657D01*
X0363934Y0037199D01*
X0365125Y0038569D02*
X0373861Y0038569D01*
X0373189Y0040167D02*
X0365903Y0040167D01*
X0366226Y0041766D02*
X0372840Y0041766D01*
X0372840Y0043364D02*
X0366240Y0043364D01*
X0366240Y0044963D02*
X0372840Y0044963D01*
X0372840Y0046561D02*
X0366240Y0046561D01*
X0366240Y0047999D02*
X0366240Y0052769D01*
X0366124Y0053652D01*
X0365893Y0054513D01*
X0365552Y0055337D01*
X0365106Y0056109D01*
X0364564Y0056816D01*
X0363934Y0057446D01*
X0363226Y0057989D01*
X0362454Y0058435D01*
X0361631Y0058776D01*
X0360770Y0059006D01*
X0360117Y0059092D01*
X0360117Y0047999D01*
X0366240Y0047999D01*
X0366240Y0048160D02*
X0372840Y0048160D01*
X0372840Y0049758D02*
X0366240Y0049758D01*
X0366240Y0051357D02*
X0372840Y0051357D01*
X0372840Y0052955D02*
X0366216Y0052955D01*
X0365877Y0054554D02*
X0373221Y0054554D01*
X0373936Y0056152D02*
X0365073Y0056152D01*
X0363537Y0057751D02*
X0375535Y0057751D01*
X0360117Y0057751D02*
X0358764Y0057751D01*
X0358764Y0059092D02*
X0358764Y0047999D01*
X0358764Y0046646D01*
X0360117Y0046646D01*
X0360117Y0047999D01*
X0358764Y0047999D01*
X0352640Y0047999D01*
X0352640Y0052769D01*
X0352757Y0053652D01*
X0352987Y0054513D01*
X0353329Y0055337D01*
X0353774Y0056109D01*
X0354317Y0056816D01*
X0354947Y0057446D01*
X0355654Y0057989D01*
X0356426Y0058435D01*
X0357250Y0058776D01*
X0358111Y0059006D01*
X0358764Y0059092D01*
X0358764Y0056152D02*
X0360117Y0056152D01*
X0360117Y0054554D02*
X0358764Y0054554D01*
X0358764Y0052955D02*
X0360117Y0052955D01*
X0360117Y0051357D02*
X0358764Y0051357D01*
X0358764Y0049758D02*
X0360117Y0049758D01*
X0360117Y0048160D02*
X0358764Y0048160D01*
X0358764Y0046646D02*
X0352640Y0046646D01*
X0352640Y0041877D01*
X0352757Y0040993D01*
X0352987Y0040132D01*
X0353329Y0039309D01*
X0353774Y0038537D01*
X0354317Y0037830D01*
X0354947Y0037199D01*
X0355654Y0036657D01*
X0356426Y0036211D01*
X0357250Y0035870D01*
X0358111Y0035639D01*
X0358764Y0035553D01*
X0358764Y0046646D01*
X0358764Y0046561D02*
X0360117Y0046561D01*
X0360117Y0044963D02*
X0358764Y0044963D01*
X0358764Y0043364D02*
X0360117Y0043364D01*
X0360117Y0041766D02*
X0358764Y0041766D01*
X0358764Y0040167D02*
X0360117Y0040167D01*
X0360117Y0038569D02*
X0358764Y0038569D01*
X0358764Y0036970D02*
X0360117Y0036970D01*
X0355246Y0036970D02*
X0343635Y0036970D01*
X0343934Y0037199D02*
X0344564Y0037830D01*
X0345106Y0038537D01*
X0345552Y0039309D01*
X0345893Y0040132D01*
X0346124Y0040993D01*
X0346240Y0041877D01*
X0346240Y0046646D01*
X0340117Y0046646D01*
X0340117Y0035553D01*
X0340770Y0035639D01*
X0341631Y0035870D01*
X0342454Y0036211D01*
X0343226Y0036657D01*
X0343934Y0037199D01*
X0345125Y0038569D02*
X0353756Y0038569D01*
X0352978Y0040167D02*
X0345903Y0040167D01*
X0346226Y0041766D02*
X0352655Y0041766D01*
X0352640Y0043364D02*
X0346240Y0043364D01*
X0346240Y0044963D02*
X0352640Y0044963D01*
X0352640Y0046561D02*
X0346240Y0046561D01*
X0346240Y0047999D02*
X0346240Y0052769D01*
X0346124Y0053652D01*
X0345893Y0054513D01*
X0345552Y0055337D01*
X0345106Y0056109D01*
X0344564Y0056816D01*
X0343934Y0057446D01*
X0343226Y0057989D01*
X0342454Y0058435D01*
X0341631Y0058776D01*
X0340770Y0059006D01*
X0340117Y0059092D01*
X0340117Y0047999D01*
X0346240Y0047999D01*
X0346240Y0048160D02*
X0352640Y0048160D01*
X0352640Y0049758D02*
X0346240Y0049758D01*
X0346240Y0051357D02*
X0352640Y0051357D01*
X0352665Y0052955D02*
X0346216Y0052955D01*
X0345877Y0054554D02*
X0353004Y0054554D01*
X0353808Y0056152D02*
X0345073Y0056152D01*
X0343537Y0057751D02*
X0355344Y0057751D01*
X0340117Y0057751D02*
X0338764Y0057751D01*
X0338764Y0059092D02*
X0338764Y0047999D01*
X0338764Y0046646D01*
X0340117Y0046646D01*
X0340117Y0047999D01*
X0338764Y0047999D01*
X0332640Y0047999D01*
X0332640Y0052769D01*
X0332757Y0053652D01*
X0332987Y0054513D01*
X0333329Y0055337D01*
X0333774Y0056109D01*
X0334317Y0056816D01*
X0334947Y0057446D01*
X0335654Y0057989D01*
X0336426Y0058435D01*
X0337250Y0058776D01*
X0338111Y0059006D01*
X0338764Y0059092D01*
X0338764Y0056152D02*
X0340117Y0056152D01*
X0340117Y0054554D02*
X0338764Y0054554D01*
X0338764Y0052955D02*
X0340117Y0052955D01*
X0340117Y0051357D02*
X0338764Y0051357D01*
X0338764Y0049758D02*
X0340117Y0049758D01*
X0340117Y0048160D02*
X0338764Y0048160D01*
X0338764Y0046646D02*
X0332640Y0046646D01*
X0332640Y0041877D01*
X0332757Y0040993D01*
X0332987Y0040132D01*
X0333329Y0039309D01*
X0333774Y0038537D01*
X0334317Y0037830D01*
X0334947Y0037199D01*
X0335654Y0036657D01*
X0336426Y0036211D01*
X0337250Y0035870D01*
X0338111Y0035639D01*
X0338764Y0035553D01*
X0338764Y0046646D01*
X0338764Y0046561D02*
X0340117Y0046561D01*
X0340117Y0044963D02*
X0338764Y0044963D01*
X0338764Y0043364D02*
X0340117Y0043364D01*
X0340117Y0041766D02*
X0338764Y0041766D01*
X0338764Y0040167D02*
X0340117Y0040167D01*
X0340117Y0038569D02*
X0338764Y0038569D01*
X0338764Y0036970D02*
X0340117Y0036970D01*
X0335246Y0036970D02*
X0323422Y0036970D01*
X0325020Y0038569D02*
X0333756Y0038569D01*
X0332978Y0040167D02*
X0325691Y0040167D01*
X0326040Y0041766D02*
X0332655Y0041766D01*
X0332640Y0043364D02*
X0326040Y0043364D01*
X0326040Y0044963D02*
X0332640Y0044963D01*
X0332640Y0046561D02*
X0326040Y0046561D01*
X0326040Y0048160D02*
X0332640Y0048160D01*
X0332640Y0049758D02*
X0326040Y0049758D01*
X0326040Y0051357D02*
X0332640Y0051357D01*
X0332665Y0052955D02*
X0326040Y0052955D01*
X0325660Y0054554D02*
X0333004Y0054554D01*
X0333808Y0056152D02*
X0324945Y0056152D01*
X0323346Y0057751D02*
X0335344Y0057751D01*
X0282499Y0072137D02*
X0402908Y0072137D01*
X0402908Y0070539D02*
X0281867Y0070539D01*
X0282499Y0073736D02*
X0402908Y0073736D01*
X0402908Y0075334D02*
X0282499Y0075334D01*
X0282499Y0076933D02*
X0402908Y0076933D01*
X0402908Y0078532D02*
X0282499Y0078532D01*
X0282004Y0080130D02*
X0402908Y0080130D01*
X0402908Y0081729D02*
X0280514Y0081729D01*
X0253708Y0052000D02*
X0258495Y0047213D01*
X0258495Y0047205D01*
X0261116Y0043364D02*
X0265875Y0043364D01*
X0264277Y0044963D02*
X0262714Y0044963D01*
X0253708Y0052000D02*
X0253708Y0064000D01*
X0248299Y0069409D01*
X0248299Y0075500D01*
X0248299Y0094409D01*
X0237708Y0105000D01*
X0234208Y0105000D01*
X0230745Y0110502D02*
X0230108Y0110502D01*
X0225308Y0110502D02*
X0224671Y0110502D01*
X0225308Y0108903D02*
X0220108Y0108903D01*
X0220108Y0107305D02*
X0225308Y0107305D01*
X0225308Y0105706D02*
X0220108Y0105706D01*
X0220108Y0104108D02*
X0225308Y0104108D01*
X0225308Y0102509D02*
X0220108Y0102509D01*
X0220108Y0100911D02*
X0225308Y0100911D01*
X0230108Y0092918D02*
X0234896Y0092918D01*
X0235899Y0091320D02*
X0230108Y0091320D01*
X0230108Y0089721D02*
X0235899Y0089721D01*
X0235899Y0088123D02*
X0230108Y0088123D01*
X0230108Y0086524D02*
X0235899Y0086524D01*
X0235899Y0084926D02*
X0230108Y0084926D01*
X0230108Y0083327D02*
X0235899Y0083327D01*
X0235899Y0081729D02*
X0230514Y0081729D01*
X0232004Y0080130D02*
X0234593Y0080130D01*
X0234099Y0078532D02*
X0232499Y0078532D01*
X0232499Y0076933D02*
X0234099Y0076933D01*
X0234099Y0075334D02*
X0232499Y0075334D01*
X0232499Y0073736D02*
X0234099Y0073736D01*
X0234099Y0072137D02*
X0232499Y0072137D01*
X0231867Y0070539D02*
X0234731Y0070539D01*
X0235899Y0068940D02*
X0232162Y0068940D01*
X0233760Y0067342D02*
X0236972Y0067342D01*
X0238571Y0065743D02*
X0235359Y0065743D01*
X0236108Y0064145D02*
X0240169Y0064145D01*
X0241308Y0062546D02*
X0236108Y0062546D01*
X0238311Y0060948D02*
X0238680Y0060948D01*
X0238680Y0059349D02*
X0238311Y0059349D01*
X0238311Y0057751D02*
X0238680Y0057751D01*
X0238680Y0056152D02*
X0238311Y0056152D01*
X0238311Y0054554D02*
X0238680Y0054554D01*
X0238680Y0052955D02*
X0238311Y0052955D01*
X0240990Y0052955D02*
X0241308Y0052955D01*
X0241377Y0051357D02*
X0240804Y0051357D01*
X0242403Y0049758D02*
X0242556Y0049758D01*
X0243064Y0048160D02*
X0243927Y0048160D01*
X0243927Y0046561D02*
X0243064Y0046561D01*
X0242714Y0044963D02*
X0244277Y0044963D01*
X0245875Y0043364D02*
X0241116Y0043364D01*
X0238495Y0047205D02*
X0238495Y0047213D01*
X0233708Y0052000D01*
X0233708Y0064000D01*
X0228680Y0060948D02*
X0228311Y0060948D01*
X0228311Y0059349D02*
X0228680Y0059349D01*
X0228680Y0057751D02*
X0228311Y0057751D01*
X0228311Y0056152D02*
X0228680Y0056152D01*
X0228680Y0054554D02*
X0228311Y0054554D01*
X0228311Y0052955D02*
X0228680Y0052955D01*
X0230990Y0052955D02*
X0231308Y0052955D01*
X0231377Y0051357D02*
X0230804Y0051357D01*
X0232403Y0049758D02*
X0232556Y0049758D01*
X0233064Y0048160D02*
X0233927Y0048160D01*
X0233927Y0046561D02*
X0233064Y0046561D01*
X0232714Y0044963D02*
X0234277Y0044963D01*
X0235875Y0043364D02*
X0231116Y0043364D01*
X0225875Y0043364D02*
X0221116Y0043364D01*
X0222714Y0044963D02*
X0224277Y0044963D01*
X0218495Y0047205D02*
X0218495Y0047213D01*
X0213708Y0052000D01*
X0213708Y0064000D01*
X0208680Y0060948D02*
X0208311Y0060948D01*
X0208311Y0059349D02*
X0208680Y0059349D01*
X0208680Y0057751D02*
X0208311Y0057751D01*
X0208311Y0056152D02*
X0208680Y0056152D01*
X0208680Y0054554D02*
X0208311Y0054554D01*
X0208311Y0052955D02*
X0208680Y0052955D01*
X0210990Y0052955D02*
X0211308Y0052955D01*
X0211377Y0051357D02*
X0210804Y0051357D01*
X0212403Y0049758D02*
X0212556Y0049758D01*
X0213064Y0048160D02*
X0213927Y0048160D01*
X0213927Y0046561D02*
X0213064Y0046561D01*
X0212714Y0044963D02*
X0214277Y0044963D01*
X0215875Y0043364D02*
X0211116Y0043364D01*
X0205875Y0043364D02*
X0201116Y0043364D01*
X0202714Y0044963D02*
X0204277Y0044963D01*
X0198495Y0047205D02*
X0198495Y0047213D01*
X0193708Y0052000D01*
X0193708Y0064000D01*
X0192162Y0068940D02*
X0195899Y0068940D01*
X0194731Y0070539D02*
X0191867Y0070539D01*
X0192499Y0072137D02*
X0194099Y0072137D01*
X0194099Y0073736D02*
X0192499Y0073736D01*
X0192499Y0075334D02*
X0194099Y0075334D01*
X0194099Y0076933D02*
X0192499Y0076933D01*
X0192499Y0078532D02*
X0194099Y0078532D01*
X0194593Y0080130D02*
X0192004Y0080130D01*
X0190699Y0081729D02*
X0195308Y0081729D01*
X0195308Y0083327D02*
X0190699Y0083327D01*
X0190699Y0084926D02*
X0195308Y0084926D01*
X0195308Y0086524D02*
X0190699Y0086524D01*
X0190699Y0088123D02*
X0195308Y0088123D01*
X0195308Y0089721D02*
X0190699Y0089721D01*
X0190699Y0091320D02*
X0195308Y0091320D01*
X0195308Y0092918D02*
X0190699Y0092918D01*
X0190699Y0094517D02*
X0195308Y0094517D01*
X0195308Y0096115D02*
X0190699Y0096115D01*
X0190699Y0097714D02*
X0195308Y0097714D01*
X0195308Y0099312D02*
X0190699Y0099312D01*
X0190699Y0100911D02*
X0195308Y0100911D01*
X0195308Y0102509D02*
X0190699Y0102509D01*
X0190699Y0104108D02*
X0195308Y0104108D01*
X0195308Y0105706D02*
X0190699Y0105706D01*
X0190699Y0107305D02*
X0195308Y0107305D01*
X0195308Y0108903D02*
X0190699Y0108903D01*
X0190745Y0110502D02*
X0190444Y0110502D01*
X0189147Y0112100D02*
X0189002Y0112100D01*
X0188140Y0113699D02*
X0187403Y0113699D01*
X0187277Y0115297D02*
X0188140Y0115297D01*
X0188143Y0116896D02*
X0187273Y0116896D01*
X0185675Y0118494D02*
X0189742Y0118494D01*
X0194671Y0110502D02*
X0195308Y0110502D01*
X0202708Y0115000D02*
X0202708Y0105000D01*
X0200108Y0100911D02*
X0205308Y0100911D01*
X0205308Y0099312D02*
X0200108Y0099312D01*
X0200108Y0097714D02*
X0205308Y0097714D01*
X0205308Y0096115D02*
X0200108Y0096115D01*
X0200108Y0094517D02*
X0205308Y0094517D01*
X0212708Y0097000D02*
X0212708Y0115000D01*
X0220108Y0110502D02*
X0220745Y0110502D01*
X0188311Y0061973D02*
X0188311Y0057389D01*
X0183727Y0057389D01*
X0183727Y0059180D01*
X0186520Y0061973D01*
X0188311Y0061973D01*
X0188311Y0060948D02*
X0188680Y0060948D01*
X0188680Y0059349D02*
X0188311Y0059349D01*
X0188311Y0057751D02*
X0188680Y0057751D01*
X0188311Y0057020D02*
X0183727Y0057020D01*
X0183727Y0055230D01*
X0186520Y0052436D01*
X0188311Y0052436D01*
X0188311Y0057020D01*
X0188311Y0056152D02*
X0188680Y0056152D01*
X0188680Y0054554D02*
X0188311Y0054554D01*
X0188311Y0052955D02*
X0188680Y0052955D01*
X0188311Y0051973D02*
X0186520Y0051973D01*
X0183727Y0049180D01*
X0183727Y0047389D01*
X0188311Y0047389D01*
X0188311Y0047020D01*
X0188680Y0047020D01*
X0188680Y0042436D01*
X0190471Y0042436D01*
X0193264Y0045230D01*
X0193264Y0047020D01*
X0188680Y0047020D01*
X0188680Y0047389D01*
X0188311Y0047389D01*
X0188311Y0051973D01*
X0188311Y0051357D02*
X0188680Y0051357D01*
X0188680Y0049758D02*
X0188311Y0049758D01*
X0188311Y0048160D02*
X0188680Y0048160D01*
X0188311Y0047020D02*
X0183727Y0047020D01*
X0183727Y0045230D01*
X0186520Y0042436D01*
X0188311Y0042436D01*
X0188311Y0047020D01*
X0188311Y0046561D02*
X0188680Y0046561D01*
X0188680Y0044963D02*
X0188311Y0044963D01*
X0188311Y0043364D02*
X0188680Y0043364D01*
X0191399Y0043364D02*
X0195875Y0043364D01*
X0194277Y0044963D02*
X0192997Y0044963D01*
X0193264Y0046561D02*
X0193927Y0046561D01*
X0193927Y0048160D02*
X0193264Y0048160D01*
X0191377Y0051357D02*
X0191087Y0051357D01*
X0190990Y0052955D02*
X0191308Y0052955D01*
X0186001Y0052955D02*
X0180990Y0052955D01*
X0180471Y0052436D02*
X0183264Y0055230D01*
X0183264Y0057020D01*
X0178680Y0057020D01*
X0178680Y0052436D01*
X0180471Y0052436D01*
X0180471Y0051973D02*
X0178680Y0051973D01*
X0178680Y0047389D01*
X0183264Y0047389D01*
X0183264Y0049180D01*
X0180471Y0051973D01*
X0181087Y0051357D02*
X0185904Y0051357D01*
X0184305Y0049758D02*
X0182686Y0049758D01*
X0183264Y0048160D02*
X0183727Y0048160D01*
X0183264Y0047020D02*
X0178680Y0047020D01*
X0178680Y0042436D01*
X0180471Y0042436D01*
X0183264Y0045230D01*
X0183264Y0047020D01*
X0183264Y0046561D02*
X0183727Y0046561D01*
X0183994Y0044963D02*
X0182997Y0044963D01*
X0181399Y0043364D02*
X0185592Y0043364D01*
X0178680Y0043364D02*
X0178311Y0043364D01*
X0178311Y0042436D02*
X0178311Y0047020D01*
X0178680Y0047020D01*
X0178680Y0047389D01*
X0178311Y0047389D01*
X0178311Y0047020D01*
X0173727Y0047020D01*
X0173727Y0045230D01*
X0176520Y0042436D01*
X0178311Y0042436D01*
X0178311Y0044963D02*
X0178680Y0044963D01*
X0178680Y0046561D02*
X0178311Y0046561D01*
X0178311Y0047389D02*
X0173727Y0047389D01*
X0173727Y0049180D01*
X0176520Y0051973D01*
X0178311Y0051973D01*
X0178311Y0047389D01*
X0178311Y0048160D02*
X0178680Y0048160D01*
X0178680Y0049758D02*
X0178311Y0049758D01*
X0178311Y0051357D02*
X0178680Y0051357D01*
X0178311Y0052436D02*
X0178311Y0057020D01*
X0178680Y0057020D01*
X0178680Y0057389D01*
X0183264Y0057389D01*
X0183264Y0059180D01*
X0180471Y0061973D01*
X0178680Y0061973D01*
X0178680Y0057389D01*
X0178311Y0057389D01*
X0178311Y0057020D01*
X0173727Y0057020D01*
X0173727Y0055230D01*
X0176520Y0052436D01*
X0178311Y0052436D01*
X0178311Y0052955D02*
X0178680Y0052955D01*
X0178680Y0054554D02*
X0178311Y0054554D01*
X0178311Y0056152D02*
X0178680Y0056152D01*
X0178311Y0057389D02*
X0173727Y0057389D01*
X0173727Y0059180D01*
X0176520Y0061973D01*
X0178311Y0061973D01*
X0178311Y0057389D01*
X0178311Y0057751D02*
X0178680Y0057751D01*
X0178680Y0059349D02*
X0178311Y0059349D01*
X0178311Y0060948D02*
X0178680Y0060948D01*
X0181496Y0060948D02*
X0185495Y0060948D01*
X0183896Y0059349D02*
X0183094Y0059349D01*
X0183264Y0057751D02*
X0183727Y0057751D01*
X0183727Y0056152D02*
X0183264Y0056152D01*
X0182588Y0054554D02*
X0184403Y0054554D01*
X0176001Y0052955D02*
X0170990Y0052955D01*
X0170471Y0052436D02*
X0173264Y0055230D01*
X0173264Y0057020D01*
X0168680Y0057020D01*
X0168680Y0052436D01*
X0170471Y0052436D01*
X0170471Y0051973D02*
X0168680Y0051973D01*
X0168680Y0047389D01*
X0173264Y0047389D01*
X0173264Y0049180D01*
X0170471Y0051973D01*
X0171087Y0051357D02*
X0175904Y0051357D01*
X0174305Y0049758D02*
X0172686Y0049758D01*
X0173264Y0048160D02*
X0173727Y0048160D01*
X0173264Y0047020D02*
X0168680Y0047020D01*
X0168680Y0042436D01*
X0170471Y0042436D01*
X0173264Y0045230D01*
X0173264Y0047020D01*
X0173264Y0046561D02*
X0173727Y0046561D01*
X0173994Y0044963D02*
X0172997Y0044963D01*
X0171399Y0043364D02*
X0175592Y0043364D01*
X0168680Y0043364D02*
X0168311Y0043364D01*
X0168311Y0042436D02*
X0168311Y0047020D01*
X0168680Y0047020D01*
X0168680Y0047389D01*
X0168311Y0047389D01*
X0168311Y0047020D01*
X0163727Y0047020D01*
X0163727Y0045230D01*
X0166520Y0042436D01*
X0168311Y0042436D01*
X0168311Y0044963D02*
X0168680Y0044963D01*
X0168680Y0046561D02*
X0168311Y0046561D01*
X0168311Y0047389D02*
X0163727Y0047389D01*
X0163727Y0049180D01*
X0166520Y0051973D01*
X0168311Y0051973D01*
X0168311Y0047389D01*
X0168311Y0048160D02*
X0168680Y0048160D01*
X0168680Y0049758D02*
X0168311Y0049758D01*
X0168311Y0051357D02*
X0168680Y0051357D01*
X0168311Y0052436D02*
X0168311Y0057020D01*
X0168680Y0057020D01*
X0168680Y0057389D01*
X0173264Y0057389D01*
X0173264Y0059180D01*
X0170471Y0061973D01*
X0168680Y0061973D01*
X0168680Y0057389D01*
X0168311Y0057389D01*
X0168311Y0057020D01*
X0163727Y0057020D01*
X0163727Y0055230D01*
X0166520Y0052436D01*
X0168311Y0052436D01*
X0168311Y0052955D02*
X0168680Y0052955D01*
X0168680Y0054554D02*
X0168311Y0054554D01*
X0168311Y0056152D02*
X0168680Y0056152D01*
X0168311Y0057389D02*
X0163727Y0057389D01*
X0163727Y0059180D01*
X0166520Y0061973D01*
X0168311Y0061973D01*
X0168311Y0057389D01*
X0168311Y0057751D02*
X0168680Y0057751D01*
X0168680Y0059349D02*
X0168311Y0059349D01*
X0168311Y0060948D02*
X0168680Y0060948D01*
X0171496Y0060948D02*
X0175495Y0060948D01*
X0173896Y0059349D02*
X0173094Y0059349D01*
X0173264Y0057751D02*
X0173727Y0057751D01*
X0173727Y0056152D02*
X0173264Y0056152D01*
X0172588Y0054554D02*
X0174403Y0054554D01*
X0166001Y0052955D02*
X0160707Y0052955D01*
X0160388Y0052636D02*
X0163064Y0055312D01*
X0163064Y0059097D01*
X0160388Y0061773D01*
X0156603Y0061773D01*
X0153927Y0059097D01*
X0153927Y0055312D01*
X0156603Y0052636D01*
X0160388Y0052636D01*
X0160388Y0051773D02*
X0156603Y0051773D01*
X0153927Y0049097D01*
X0153927Y0045312D01*
X0156603Y0042636D01*
X0160388Y0042636D01*
X0163064Y0045312D01*
X0163064Y0049097D01*
X0160388Y0051773D01*
X0160804Y0051357D02*
X0165904Y0051357D01*
X0164305Y0049758D02*
X0162403Y0049758D01*
X0163064Y0048160D02*
X0163727Y0048160D01*
X0163727Y0046561D02*
X0163064Y0046561D01*
X0162714Y0044963D02*
X0163994Y0044963D01*
X0165592Y0043364D02*
X0161116Y0043364D01*
X0155875Y0043364D02*
X0151399Y0043364D01*
X0150471Y0042436D02*
X0153264Y0045230D01*
X0153264Y0047020D01*
X0148680Y0047020D01*
X0148680Y0042436D01*
X0150471Y0042436D01*
X0148680Y0043364D02*
X0148311Y0043364D01*
X0148311Y0042436D02*
X0148311Y0047020D01*
X0148680Y0047020D01*
X0148680Y0047389D01*
X0153264Y0047389D01*
X0153264Y0049180D01*
X0150471Y0051973D01*
X0148680Y0051973D01*
X0148680Y0047389D01*
X0148311Y0047389D01*
X0148311Y0047020D01*
X0143727Y0047020D01*
X0143727Y0045230D01*
X0146520Y0042436D01*
X0148311Y0042436D01*
X0148311Y0044963D02*
X0148680Y0044963D01*
X0148680Y0046561D02*
X0148311Y0046561D01*
X0148311Y0047389D02*
X0143727Y0047389D01*
X0143727Y0049180D01*
X0146520Y0051973D01*
X0148311Y0051973D01*
X0148311Y0047389D01*
X0148311Y0048160D02*
X0148680Y0048160D01*
X0148680Y0049758D02*
X0148311Y0049758D01*
X0148311Y0051357D02*
X0148680Y0051357D01*
X0148680Y0052436D02*
X0150471Y0052436D01*
X0153264Y0055230D01*
X0153264Y0057020D01*
X0148680Y0057020D01*
X0148680Y0052436D01*
X0148311Y0052436D02*
X0148311Y0057020D01*
X0148680Y0057020D01*
X0148680Y0057389D01*
X0153264Y0057389D01*
X0153264Y0059180D01*
X0150471Y0061973D01*
X0148680Y0061973D01*
X0148680Y0057389D01*
X0148311Y0057389D01*
X0148311Y0057020D01*
X0143727Y0057020D01*
X0143727Y0055230D01*
X0146520Y0052436D01*
X0148311Y0052436D01*
X0148311Y0052955D02*
X0148680Y0052955D01*
X0148680Y0054554D02*
X0148311Y0054554D01*
X0148311Y0056152D02*
X0148680Y0056152D01*
X0148311Y0057389D02*
X0143727Y0057389D01*
X0143727Y0059180D01*
X0146520Y0061973D01*
X0148311Y0061973D01*
X0148311Y0057389D01*
X0148311Y0057751D02*
X0148680Y0057751D01*
X0148680Y0059349D02*
X0148311Y0059349D01*
X0148311Y0060948D02*
X0148680Y0060948D01*
X0151496Y0060948D02*
X0155778Y0060948D01*
X0154179Y0059349D02*
X0153094Y0059349D01*
X0153264Y0057751D02*
X0153927Y0057751D01*
X0153927Y0056152D02*
X0153264Y0056152D01*
X0152588Y0054554D02*
X0154686Y0054554D01*
X0156284Y0052955D02*
X0150990Y0052955D01*
X0151087Y0051357D02*
X0156187Y0051357D01*
X0154588Y0049758D02*
X0152686Y0049758D01*
X0153264Y0048160D02*
X0153927Y0048160D01*
X0153927Y0046561D02*
X0153264Y0046561D01*
X0152997Y0044963D02*
X0154277Y0044963D01*
X0145592Y0043364D02*
X0141399Y0043364D01*
X0142997Y0044963D02*
X0143994Y0044963D01*
X0143727Y0046561D02*
X0143264Y0046561D01*
X0143264Y0048160D02*
X0143727Y0048160D01*
X0144305Y0049758D02*
X0142686Y0049758D01*
X0141087Y0051357D02*
X0145904Y0051357D01*
X0146001Y0052955D02*
X0140990Y0052955D01*
X0142588Y0054554D02*
X0144403Y0054554D01*
X0143727Y0056152D02*
X0143264Y0056152D01*
X0143264Y0057751D02*
X0143727Y0057751D01*
X0143896Y0059349D02*
X0143094Y0059349D01*
X0141496Y0060948D02*
X0145495Y0060948D01*
X0138680Y0060948D02*
X0138311Y0060948D01*
X0138311Y0061973D02*
X0136520Y0061973D01*
X0133727Y0059180D01*
X0133727Y0057389D01*
X0138311Y0057389D01*
X0138311Y0061973D01*
X0138311Y0059349D02*
X0138680Y0059349D01*
X0138680Y0057751D02*
X0138311Y0057751D01*
X0138311Y0056152D02*
X0138680Y0056152D01*
X0138680Y0054554D02*
X0138311Y0054554D01*
X0138311Y0052955D02*
X0138680Y0052955D01*
X0138680Y0051357D02*
X0138311Y0051357D01*
X0138311Y0049758D02*
X0138680Y0049758D01*
X0138680Y0048160D02*
X0138311Y0048160D01*
X0138311Y0046561D02*
X0138680Y0046561D01*
X0138680Y0044963D02*
X0138311Y0044963D01*
X0138311Y0043364D02*
X0138680Y0043364D01*
X0134403Y0054554D02*
X0132588Y0054554D01*
X0133264Y0056152D02*
X0133727Y0056152D01*
X0133727Y0057751D02*
X0133264Y0057751D01*
X0133094Y0059349D02*
X0133896Y0059349D01*
X0135495Y0060948D02*
X0131496Y0060948D01*
X0161213Y0060948D02*
X0165495Y0060948D01*
X0163896Y0059349D02*
X0162812Y0059349D01*
X0163064Y0057751D02*
X0163727Y0057751D01*
X0163727Y0056152D02*
X0163064Y0056152D01*
X0162305Y0054554D02*
X0164403Y0054554D01*
X0114816Y0110502D02*
X0114671Y0110502D01*
X0094816Y0110502D02*
X0094671Y0110502D01*
X0087708Y0110000D02*
X0068708Y0091000D01*
X0068708Y0075500D01*
X0068708Y0069000D01*
X0064816Y0110502D02*
X0064671Y0110502D01*
X0084671Y0110502D02*
X0084816Y0110502D01*
X0012508Y0016190D02*
X0402908Y0016190D01*
X0402908Y0014591D02*
X0012508Y0014591D01*
X0012508Y0012993D02*
X0402908Y0012993D01*
X0402908Y0011394D02*
X0012508Y0011394D01*
X0398828Y0180836D02*
X0402908Y0180836D01*
X0402908Y0179238D02*
X0402502Y0179238D01*
D18*
X0332708Y0122500D02*
X0330208Y0125000D01*
X0302708Y0125000D01*
X0302708Y0170000D01*
X0272708Y0185000D02*
X0272708Y0098760D01*
M02*
