G75*
%MOIN*%
%OFA0B0*%
%FSLAX25Y25*%
%IPPOS*%
%LPD*%
%AMOC8*
5,1,8,0,0,1.08239X$1,22.5*
%
%ADD10C,0.10000*%
%ADD11R,0.13055X0.13055*%
%ADD12OC8,0.05937*%
%ADD13R,0.03937X0.05118*%
%ADD14R,0.02756X0.05118*%
%ADD15R,0.03937X0.03150*%
%ADD16R,0.03937X0.11024*%
%ADD17R,0.05118X0.07480*%
%ADD18R,0.05000X0.02500*%
%ADD19R,0.02362X0.04724*%
%ADD20R,0.05906X0.05118*%
%ADD21C,0.05200*%
%ADD22R,0.05118X0.05906*%
%ADD23R,0.03937X0.02362*%
%ADD24R,0.04331X0.03937*%
%ADD25C,0.03962*%
%ADD26C,0.24409*%
%ADD27C,0.05000*%
%ADD28C,0.04750*%
%ADD29C,0.03200*%
%ADD30C,0.02400*%
%ADD31C,0.01600*%
%ADD32C,0.04000*%
%ADD33C,0.01000*%
D10*
X0319440Y0042323D02*
X0319440Y0052323D01*
X0339440Y0052323D02*
X0339440Y0042323D01*
X0359440Y0042323D02*
X0359440Y0052323D01*
X0379440Y0052323D02*
X0379440Y0042323D01*
D11*
X0396094Y0025866D03*
X0302787Y0025866D03*
D12*
X0278495Y0047205D03*
X0278495Y0057205D03*
X0268495Y0057205D03*
X0268495Y0047205D03*
X0258495Y0047205D03*
X0258495Y0057205D03*
X0248495Y0057205D03*
X0248495Y0047205D03*
X0238495Y0047205D03*
X0238495Y0057205D03*
X0228495Y0057205D03*
X0228495Y0047205D03*
X0218495Y0047205D03*
X0218495Y0057205D03*
X0208495Y0057205D03*
X0208495Y0047205D03*
X0198495Y0047205D03*
X0198495Y0057205D03*
X0188495Y0057205D03*
X0188495Y0047205D03*
X0178495Y0047205D03*
X0178495Y0057205D03*
X0168495Y0057205D03*
X0168495Y0047205D03*
X0158495Y0047205D03*
X0158495Y0057205D03*
X0148495Y0057205D03*
X0148495Y0047205D03*
X0138495Y0047205D03*
X0138495Y0057205D03*
X0128495Y0057205D03*
X0128495Y0047205D03*
X0118495Y0047205D03*
X0118495Y0057205D03*
X0108495Y0057205D03*
X0108495Y0047205D03*
X0098495Y0047205D03*
X0098495Y0057205D03*
X0088495Y0057205D03*
X0088495Y0047205D03*
X0078495Y0047205D03*
X0078495Y0057205D03*
X0068495Y0057205D03*
X0068495Y0047205D03*
X0058495Y0047205D03*
X0058495Y0057205D03*
X0048495Y0057205D03*
X0048495Y0047205D03*
X0038495Y0047205D03*
X0038495Y0057205D03*
X0062708Y0115000D03*
X0072708Y0115000D03*
X0082708Y0115000D03*
X0092708Y0115000D03*
X0102708Y0115000D03*
X0112708Y0115000D03*
X0122708Y0115000D03*
X0132708Y0115000D03*
X0142708Y0115000D03*
X0152708Y0115000D03*
X0162708Y0115000D03*
X0172708Y0115000D03*
X0182708Y0115000D03*
X0192708Y0115000D03*
X0202708Y0115000D03*
X0212708Y0115000D03*
X0222708Y0115000D03*
X0232708Y0115000D03*
X0242708Y0115000D03*
X0252708Y0115000D03*
X0252708Y0175000D03*
X0242708Y0175000D03*
X0232708Y0175000D03*
X0222708Y0175000D03*
X0212708Y0175000D03*
X0202708Y0175000D03*
X0192708Y0175000D03*
X0182708Y0175000D03*
X0172708Y0175000D03*
X0162708Y0175000D03*
X0152708Y0175000D03*
X0142708Y0175000D03*
X0132708Y0175000D03*
X0122708Y0175000D03*
X0112708Y0175000D03*
X0102708Y0175000D03*
X0092708Y0175000D03*
X0082708Y0175000D03*
X0072708Y0175000D03*
X0062708Y0175000D03*
D13*
X0320779Y0136654D03*
X0364677Y0153583D03*
D14*
X0360936Y0136654D03*
X0357196Y0136654D03*
X0352866Y0136654D03*
X0348535Y0136654D03*
X0344204Y0136654D03*
X0339873Y0136654D03*
X0335543Y0136654D03*
X0331212Y0136654D03*
X0326881Y0136654D03*
D15*
X0364677Y0177992D03*
D16*
X0364677Y0194331D03*
D17*
X0311527Y0196102D03*
D18*
X0293708Y0170000D03*
X0293708Y0165000D03*
X0293708Y0160000D03*
X0293708Y0155000D03*
X0293708Y0150000D03*
X0281708Y0150000D03*
X0281708Y0155000D03*
X0281708Y0160000D03*
X0281708Y0165000D03*
X0281708Y0170000D03*
D19*
X0161448Y0080142D03*
X0153968Y0080142D03*
X0153968Y0069858D03*
X0157708Y0069858D03*
X0161448Y0069858D03*
D20*
X0172708Y0071260D03*
X0172708Y0078740D03*
X0142708Y0078740D03*
X0142708Y0071260D03*
D21*
X0128708Y0072900D02*
X0128708Y0078100D01*
X0118708Y0078100D02*
X0118708Y0072900D01*
X0108708Y0072900D02*
X0108708Y0078100D01*
X0098708Y0078100D02*
X0098708Y0072900D01*
X0088708Y0072900D02*
X0088708Y0078100D01*
X0078708Y0078100D02*
X0078708Y0072900D01*
X0068708Y0072900D02*
X0068708Y0078100D01*
X0058708Y0078100D02*
X0058708Y0072900D01*
X0048708Y0072900D02*
X0048708Y0078100D01*
X0038708Y0078100D02*
X0038708Y0072900D01*
X0188299Y0072900D02*
X0188299Y0078100D01*
X0198299Y0078100D02*
X0198299Y0072900D01*
X0208299Y0072900D02*
X0208299Y0078100D01*
X0218299Y0078100D02*
X0218299Y0072900D01*
X0228299Y0072900D02*
X0228299Y0078100D01*
X0238299Y0078100D02*
X0238299Y0072900D01*
X0248299Y0072900D02*
X0248299Y0078100D01*
X0258299Y0078100D02*
X0258299Y0072900D01*
X0268299Y0072900D02*
X0268299Y0078100D01*
X0278299Y0078100D02*
X0278299Y0072900D01*
D22*
X0251948Y0098000D03*
X0244468Y0098000D03*
X0340468Y0122500D03*
X0347948Y0122500D03*
X0080948Y0192000D03*
X0073468Y0192000D03*
D23*
X0024507Y0141953D03*
X0024507Y0138047D03*
X0015909Y0138047D03*
X0015909Y0141953D03*
D24*
X0044362Y0140000D03*
X0044362Y0134000D03*
X0051055Y0134000D03*
X0051055Y0140000D03*
X0051055Y0146000D03*
X0044362Y0146000D03*
D25*
X0052708Y0645000D03*
D26*
X0020228Y0167520D03*
X0395188Y0167520D03*
D27*
X0368948Y0098760D02*
X0379440Y0088268D01*
X0379440Y0047323D01*
X0368948Y0098760D02*
X0272708Y0098760D01*
X0252708Y0098760D01*
X0251948Y0098000D01*
X0252708Y0098760D02*
X0252708Y0115000D01*
X0242708Y0115000D02*
X0242708Y0099760D01*
X0244468Y0098000D01*
X0232708Y0115000D02*
X0232708Y0120000D01*
X0237708Y0125000D01*
X0302708Y0125000D01*
X0332708Y0122500D02*
X0340468Y0122500D01*
X0272708Y0185000D02*
X0265708Y0192000D01*
X0080948Y0192000D01*
X0082708Y0190240D01*
X0082708Y0175000D01*
X0072708Y0175000D02*
X0072708Y0191240D01*
X0073468Y0192000D01*
D28*
X0202708Y0105000D03*
X0212708Y0097000D03*
X0234208Y0097000D03*
X0234208Y0105000D03*
X0272708Y0098760D03*
X0302708Y0125000D03*
X0302708Y0170000D03*
X0272708Y0185000D03*
X0332708Y0122500D03*
X0355708Y0122500D03*
X0362708Y0128000D03*
X0362708Y0110000D03*
D29*
X0355708Y0122500D02*
X0347948Y0122500D01*
D30*
X0348535Y0123087D01*
X0348535Y0136654D01*
X0339873Y0136654D02*
X0339873Y0123094D01*
X0340468Y0122500D01*
X0158495Y0047213D02*
X0153708Y0052000D01*
X0158495Y0047213D02*
X0158495Y0047205D01*
X0153708Y0060500D02*
X0153968Y0060760D01*
X0153968Y0065000D01*
X0153968Y0069858D01*
X0144110Y0069858D01*
X0153968Y0080142D02*
X0153968Y0084740D01*
X0152708Y0086000D01*
D31*
X0012508Y0136036D02*
X0012508Y0009800D01*
X0402908Y0009800D01*
X0402908Y0017739D01*
X0388904Y0017739D01*
X0387966Y0018676D01*
X0387966Y0033056D01*
X0388904Y0033994D01*
X0402908Y0033994D01*
X0402908Y0149192D01*
X0399303Y0147911D01*
X0399303Y0147911D01*
X0393861Y0147539D01*
X0393861Y0147539D01*
X0388521Y0148648D01*
X0388521Y0148648D01*
X0383678Y0151158D01*
X0379692Y0154880D01*
X0379692Y0154880D01*
X0376858Y0159541D01*
X0375387Y0164793D01*
X0375387Y0170247D01*
X0376858Y0175499D01*
X0376858Y0175499D01*
X0379692Y0180159D01*
X0379692Y0180159D01*
X0383678Y0183882D01*
X0383678Y0183882D01*
X0388521Y0186391D01*
X0388521Y0186391D01*
X0393861Y0187501D01*
X0393861Y0187501D01*
X0399303Y0187129D01*
X0399303Y0187129D01*
X0402908Y0185847D01*
X0402908Y0197050D01*
X0368445Y0197050D01*
X0368445Y0194515D01*
X0364861Y0194515D01*
X0364861Y0194146D01*
X0364861Y0187019D01*
X0366882Y0187019D01*
X0367340Y0187142D01*
X0367750Y0187379D01*
X0368085Y0187714D01*
X0368322Y0188124D01*
X0368445Y0188582D01*
X0368445Y0194146D01*
X0364861Y0194146D01*
X0364492Y0194146D01*
X0364492Y0187019D01*
X0362471Y0187019D01*
X0362013Y0187142D01*
X0361603Y0187379D01*
X0361268Y0187714D01*
X0361031Y0188124D01*
X0360908Y0188582D01*
X0360908Y0194146D01*
X0364492Y0194146D01*
X0364492Y0194515D01*
X0360908Y0194515D01*
X0360908Y0197050D01*
X0315886Y0197050D01*
X0315886Y0196582D01*
X0312007Y0196582D01*
X0312007Y0195623D01*
X0315886Y0195623D01*
X0315886Y0192125D01*
X0315763Y0191667D01*
X0315526Y0191257D01*
X0315191Y0190922D01*
X0314781Y0190685D01*
X0314323Y0190562D01*
X0312006Y0190562D01*
X0312006Y0195623D01*
X0311047Y0195623D01*
X0307168Y0195623D01*
X0307168Y0192125D01*
X0307291Y0191667D01*
X0307528Y0191257D01*
X0307863Y0190922D01*
X0308273Y0190685D01*
X0308731Y0190562D01*
X0311047Y0190562D01*
X0311047Y0195623D01*
X0311047Y0196582D01*
X0307168Y0196582D01*
X0307168Y0197050D01*
X0012508Y0197050D01*
X0012508Y0185866D01*
X0013521Y0186391D01*
X0013521Y0186391D01*
X0018861Y0187501D01*
X0018861Y0187501D01*
X0024303Y0187129D01*
X0024303Y0187129D01*
X0029442Y0185302D01*
X0029442Y0185302D01*
X0033898Y0182157D01*
X0033898Y0182157D01*
X0033898Y0182157D01*
X0037340Y0177926D01*
X0037340Y0177926D01*
X0039513Y0172923D01*
X0039513Y0172923D01*
X0040255Y0167520D01*
X0039513Y0162116D01*
X0039513Y0162116D01*
X0037340Y0157114D01*
X0037340Y0157114D01*
X0033898Y0152883D01*
X0033898Y0152883D01*
X0033898Y0152883D01*
X0029442Y0149737D01*
X0029442Y0149737D01*
X0024303Y0147911D01*
X0024303Y0147911D01*
X0018861Y0147539D01*
X0018861Y0147539D01*
X0013521Y0148648D01*
X0013521Y0148648D01*
X0012508Y0149173D01*
X0012508Y0143964D01*
X0013278Y0144734D01*
X0016048Y0144734D01*
X0017673Y0146359D01*
X0018349Y0147035D01*
X0019231Y0147400D01*
X0031714Y0147400D01*
X0058140Y0173826D01*
X0058140Y0176892D01*
X0060816Y0179568D01*
X0064600Y0179568D01*
X0067277Y0176892D01*
X0067277Y0173108D01*
X0064600Y0170431D01*
X0061534Y0170431D01*
X0039502Y0148400D01*
X0040596Y0148400D01*
X0040596Y0148631D01*
X0041534Y0149568D01*
X0047190Y0149568D01*
X0047708Y0149050D01*
X0048226Y0149568D01*
X0053883Y0149568D01*
X0054820Y0148631D01*
X0054820Y0148400D01*
X0112185Y0148400D01*
X0113068Y0148035D01*
X0134068Y0127035D01*
X0134743Y0126359D01*
X0135108Y0125477D01*
X0135108Y0119061D01*
X0137277Y0116892D01*
X0137277Y0113108D01*
X0134600Y0110431D01*
X0130816Y0110431D01*
X0128140Y0113108D01*
X0128140Y0116892D01*
X0130308Y0119061D01*
X0130308Y0124006D01*
X0110714Y0143600D01*
X0054820Y0143600D01*
X0054820Y0143369D01*
X0054451Y0143000D01*
X0054820Y0142631D01*
X0054820Y0142400D01*
X0108185Y0142400D01*
X0109068Y0142035D01*
X0124068Y0127035D01*
X0124743Y0126359D01*
X0125108Y0125477D01*
X0125108Y0119061D01*
X0127277Y0116892D01*
X0127277Y0113108D01*
X0124600Y0110431D01*
X0120816Y0110431D01*
X0118140Y0113108D01*
X0118140Y0116892D01*
X0120308Y0119061D01*
X0120308Y0124006D01*
X0106714Y0137600D01*
X0054820Y0137600D01*
X0054820Y0137369D01*
X0054451Y0137000D01*
X0054820Y0136631D01*
X0054820Y0136400D01*
X0104185Y0136400D01*
X0105068Y0136035D01*
X0114068Y0127035D01*
X0114743Y0126359D01*
X0115108Y0125477D01*
X0115108Y0119061D01*
X0117277Y0116892D01*
X0117277Y0113108D01*
X0114600Y0110431D01*
X0110816Y0110431D01*
X0108140Y0113108D01*
X0108140Y0116892D01*
X0110308Y0119061D01*
X0110308Y0124006D01*
X0102714Y0131600D01*
X0054820Y0131600D01*
X0054820Y0131369D01*
X0053883Y0130431D01*
X0048226Y0130431D01*
X0047708Y0130950D01*
X0047190Y0130431D01*
X0041534Y0130431D01*
X0040596Y0131369D01*
X0040596Y0131600D01*
X0020231Y0131600D01*
X0019349Y0131965D01*
X0018673Y0132641D01*
X0016048Y0135266D01*
X0013278Y0135266D01*
X0012508Y0136036D01*
X0012508Y0134479D02*
X0016835Y0134479D01*
X0018433Y0132881D02*
X0012508Y0132881D01*
X0012508Y0131282D02*
X0040683Y0131282D01*
X0044362Y0134000D02*
X0020708Y0134000D01*
X0016661Y0138047D01*
X0015909Y0138047D01*
X0015909Y0141953D02*
X0016661Y0141953D01*
X0019708Y0145000D01*
X0032708Y0145000D01*
X0062708Y0175000D01*
X0067277Y0174442D02*
X0067940Y0174442D01*
X0067940Y0174816D02*
X0067940Y0173025D01*
X0068408Y0172556D01*
X0068408Y0171169D01*
X0068877Y0170700D01*
X0070264Y0170700D01*
X0070733Y0170231D01*
X0072524Y0170231D01*
X0072524Y0170700D01*
X0072892Y0170700D01*
X0072892Y0170231D01*
X0074683Y0170231D01*
X0075152Y0170700D01*
X0076539Y0170700D01*
X0077008Y0171169D01*
X0077008Y0172556D01*
X0077477Y0173025D01*
X0077477Y0174816D01*
X0077008Y0174816D01*
X0077008Y0175184D01*
X0077477Y0175184D01*
X0077477Y0176975D01*
X0077008Y0177444D01*
X0077008Y0187535D01*
X0077132Y0187607D01*
X0077349Y0187824D01*
X0077726Y0187447D01*
X0078608Y0187447D01*
X0078608Y0177361D01*
X0078140Y0176892D01*
X0078140Y0173108D01*
X0080816Y0170431D01*
X0084600Y0170431D01*
X0087277Y0173108D01*
X0087277Y0176892D01*
X0086808Y0177361D01*
X0086808Y0187900D01*
X0264010Y0187900D01*
X0270386Y0181524D01*
X0271893Y0180900D01*
X0273524Y0180900D01*
X0275031Y0181524D01*
X0276184Y0182678D01*
X0276808Y0184184D01*
X0276808Y0185816D01*
X0276184Y0187322D01*
X0268031Y0195476D01*
X0266524Y0196100D01*
X0084623Y0196100D01*
X0084170Y0196553D01*
X0077726Y0196553D01*
X0077349Y0196176D01*
X0077132Y0196393D01*
X0076722Y0196630D01*
X0076264Y0196753D01*
X0073947Y0196753D01*
X0073947Y0192480D01*
X0072988Y0192480D01*
X0072988Y0196753D01*
X0070672Y0196753D01*
X0070214Y0196630D01*
X0069804Y0196393D01*
X0069468Y0196058D01*
X0069232Y0195648D01*
X0069109Y0195190D01*
X0069109Y0192480D01*
X0072988Y0192480D01*
X0072988Y0191520D01*
X0069109Y0191520D01*
X0069109Y0191300D01*
X0068877Y0191300D01*
X0068408Y0190831D01*
X0068408Y0177444D01*
X0067940Y0176975D01*
X0067940Y0175184D01*
X0068408Y0175184D01*
X0068408Y0174816D01*
X0067940Y0174816D01*
X0067940Y0176041D02*
X0067277Y0176041D01*
X0066530Y0177639D02*
X0068408Y0177639D01*
X0068408Y0179238D02*
X0064931Y0179238D01*
X0068408Y0180836D02*
X0034972Y0180836D01*
X0036273Y0179238D02*
X0060485Y0179238D01*
X0058886Y0177639D02*
X0037464Y0177639D01*
X0038159Y0176041D02*
X0058140Y0176041D01*
X0058140Y0174442D02*
X0038853Y0174442D01*
X0039524Y0172844D02*
X0057158Y0172844D01*
X0055559Y0171245D02*
X0039743Y0171245D01*
X0039963Y0169647D02*
X0053961Y0169647D01*
X0052362Y0168048D02*
X0040183Y0168048D01*
X0040108Y0166450D02*
X0050764Y0166450D01*
X0049165Y0164851D02*
X0039889Y0164851D01*
X0039669Y0163253D02*
X0047567Y0163253D01*
X0045968Y0161654D02*
X0039312Y0161654D01*
X0038618Y0160056D02*
X0044370Y0160056D01*
X0042771Y0158457D02*
X0037923Y0158457D01*
X0037132Y0156859D02*
X0041173Y0156859D01*
X0039574Y0155260D02*
X0035832Y0155260D01*
X0034531Y0153662D02*
X0037976Y0153662D01*
X0036377Y0152063D02*
X0032737Y0152063D01*
X0034778Y0150465D02*
X0030472Y0150465D01*
X0033180Y0148866D02*
X0026990Y0148866D01*
X0024507Y0141953D02*
X0034661Y0141953D01*
X0038708Y0146000D01*
X0044362Y0146000D01*
X0040831Y0148866D02*
X0039968Y0148866D01*
X0041567Y0150465D02*
X0175203Y0150465D01*
X0176801Y0152063D02*
X0043165Y0152063D01*
X0044764Y0153662D02*
X0178400Y0153662D01*
X0179998Y0155260D02*
X0046362Y0155260D01*
X0047961Y0156859D02*
X0181597Y0156859D01*
X0183195Y0158457D02*
X0049559Y0158457D01*
X0051158Y0160056D02*
X0184794Y0160056D01*
X0186392Y0161654D02*
X0052756Y0161654D01*
X0054355Y0163253D02*
X0187991Y0163253D01*
X0189338Y0164600D02*
X0146838Y0122100D01*
X0145608Y0120870D01*
X0145608Y0118561D01*
X0144600Y0119568D01*
X0140816Y0119568D01*
X0138140Y0116892D01*
X0138140Y0113108D01*
X0140816Y0110431D01*
X0142807Y0110431D01*
X0149338Y0103900D01*
X0174578Y0103900D01*
X0175808Y0105130D01*
X0179808Y0109130D01*
X0179808Y0111439D01*
X0180816Y0110431D01*
X0184600Y0110431D01*
X0187277Y0113108D01*
X0187277Y0116892D01*
X0184600Y0119568D01*
X0180816Y0119568D01*
X0179808Y0118561D01*
X0179808Y0134130D01*
X0191078Y0145400D01*
X0291078Y0145400D01*
X0292308Y0146630D01*
X0292828Y0147150D01*
X0296871Y0147150D01*
X0297321Y0147600D01*
X0326714Y0147600D01*
X0328812Y0145502D01*
X0328812Y0140813D01*
X0324841Y0140813D01*
X0324246Y0140218D01*
X0324188Y0140318D01*
X0323853Y0140653D01*
X0323442Y0140890D01*
X0322984Y0141013D01*
X0320963Y0141013D01*
X0320963Y0136838D01*
X0320595Y0136838D01*
X0320595Y0141013D01*
X0318573Y0141013D01*
X0318116Y0140890D01*
X0317705Y0140653D01*
X0317370Y0140318D01*
X0317133Y0139907D01*
X0317010Y0139450D01*
X0317010Y0136838D01*
X0320595Y0136838D01*
X0320595Y0136469D01*
X0320963Y0136469D01*
X0320963Y0132294D01*
X0322984Y0132294D01*
X0323442Y0132417D01*
X0323853Y0132654D01*
X0324188Y0132989D01*
X0324246Y0133089D01*
X0324481Y0132854D01*
X0324481Y0120349D01*
X0324847Y0119467D01*
X0330673Y0113641D01*
X0331349Y0112965D01*
X0332231Y0112600D01*
X0359687Y0112600D01*
X0359487Y0112400D01*
X0328702Y0112400D01*
X0304068Y0137035D01*
X0303185Y0137400D01*
X0212231Y0137400D01*
X0211349Y0137035D01*
X0210673Y0136359D01*
X0193882Y0119568D01*
X0190816Y0119568D01*
X0188140Y0116892D01*
X0188140Y0113108D01*
X0190816Y0110431D01*
X0194600Y0110431D01*
X0197277Y0113108D01*
X0197277Y0116174D01*
X0213702Y0132600D01*
X0301714Y0132600D01*
X0325673Y0108641D01*
X0326349Y0107965D01*
X0327231Y0107600D01*
X0359487Y0107600D01*
X0360457Y0106630D01*
X0361917Y0106025D01*
X0363499Y0106025D01*
X0364960Y0106630D01*
X0366078Y0107748D01*
X0366683Y0109209D01*
X0366683Y0110791D01*
X0366078Y0112252D01*
X0365729Y0112600D01*
X0368185Y0112600D01*
X0369068Y0112965D01*
X0374068Y0117965D01*
X0374743Y0118641D01*
X0375108Y0119523D01*
X0375108Y0165477D01*
X0374743Y0166359D01*
X0369743Y0171359D01*
X0369068Y0172035D01*
X0368185Y0172400D01*
X0320702Y0172400D01*
X0317510Y0175592D01*
X0361271Y0175592D01*
X0362045Y0174817D01*
X0367308Y0174817D01*
X0368245Y0175755D01*
X0368245Y0180230D01*
X0367308Y0181167D01*
X0362045Y0181167D01*
X0361271Y0180392D01*
X0290223Y0180392D01*
X0289341Y0180027D01*
X0288666Y0179352D01*
X0288666Y0179352D01*
X0282164Y0172850D01*
X0278545Y0172850D01*
X0277608Y0171913D01*
X0277608Y0168087D01*
X0278195Y0167500D01*
X0277608Y0166913D01*
X0277608Y0164600D01*
X0189338Y0164600D01*
X0190816Y0170431D02*
X0194600Y0170431D01*
X0197277Y0173108D01*
X0197277Y0176892D01*
X0194600Y0179568D01*
X0190816Y0179568D01*
X0188140Y0176892D01*
X0188140Y0173108D01*
X0190816Y0170431D01*
X0190002Y0171245D02*
X0185414Y0171245D01*
X0184600Y0170431D02*
X0187277Y0173108D01*
X0187277Y0176892D01*
X0184600Y0179568D01*
X0180816Y0179568D01*
X0178140Y0176892D01*
X0178140Y0173108D01*
X0180816Y0170431D01*
X0184600Y0170431D01*
X0187013Y0172844D02*
X0188404Y0172844D01*
X0188140Y0174442D02*
X0187277Y0174442D01*
X0187277Y0176041D02*
X0188140Y0176041D01*
X0188886Y0177639D02*
X0186530Y0177639D01*
X0184931Y0179238D02*
X0190485Y0179238D01*
X0194931Y0179238D02*
X0200485Y0179238D01*
X0200816Y0179568D02*
X0198140Y0176892D01*
X0198140Y0173108D01*
X0200816Y0170431D01*
X0204600Y0170431D01*
X0207277Y0173108D01*
X0207277Y0176892D01*
X0204600Y0179568D01*
X0200816Y0179568D01*
X0198886Y0177639D02*
X0196530Y0177639D01*
X0197277Y0176041D02*
X0198140Y0176041D01*
X0198140Y0174442D02*
X0197277Y0174442D01*
X0197013Y0172844D02*
X0198404Y0172844D01*
X0200002Y0171245D02*
X0195414Y0171245D01*
X0205414Y0171245D02*
X0210002Y0171245D01*
X0210816Y0170431D02*
X0214600Y0170431D01*
X0217277Y0173108D01*
X0217277Y0176892D01*
X0214600Y0179568D01*
X0210816Y0179568D01*
X0208140Y0176892D01*
X0208140Y0173108D01*
X0210816Y0170431D01*
X0208404Y0172844D02*
X0207013Y0172844D01*
X0207277Y0174442D02*
X0208140Y0174442D01*
X0208140Y0176041D02*
X0207277Y0176041D01*
X0206530Y0177639D02*
X0208886Y0177639D01*
X0210485Y0179238D02*
X0204931Y0179238D01*
X0214931Y0179238D02*
X0220485Y0179238D01*
X0220816Y0179568D02*
X0218140Y0176892D01*
X0218140Y0173108D01*
X0220816Y0170431D01*
X0224600Y0170431D01*
X0227277Y0173108D01*
X0227277Y0176892D01*
X0224600Y0179568D01*
X0220816Y0179568D01*
X0218886Y0177639D02*
X0216530Y0177639D01*
X0217277Y0176041D02*
X0218140Y0176041D01*
X0218140Y0174442D02*
X0217277Y0174442D01*
X0217013Y0172844D02*
X0218404Y0172844D01*
X0220002Y0171245D02*
X0215414Y0171245D01*
X0225414Y0171245D02*
X0230002Y0171245D01*
X0230816Y0170431D02*
X0234600Y0170431D01*
X0237277Y0173108D01*
X0237277Y0176892D01*
X0234600Y0179568D01*
X0230816Y0179568D01*
X0228140Y0176892D01*
X0228140Y0173108D01*
X0230816Y0170431D01*
X0228404Y0172844D02*
X0227013Y0172844D01*
X0227277Y0174442D02*
X0228140Y0174442D01*
X0228140Y0176041D02*
X0227277Y0176041D01*
X0226530Y0177639D02*
X0228886Y0177639D01*
X0230485Y0179238D02*
X0224931Y0179238D01*
X0234931Y0179238D02*
X0240485Y0179238D01*
X0240816Y0179568D02*
X0238140Y0176892D01*
X0238140Y0173108D01*
X0240816Y0170431D01*
X0244600Y0170431D01*
X0247277Y0173108D01*
X0247277Y0176892D01*
X0244600Y0179568D01*
X0240816Y0179568D01*
X0238886Y0177639D02*
X0236530Y0177639D01*
X0237277Y0176041D02*
X0238140Y0176041D01*
X0238140Y0174442D02*
X0237277Y0174442D01*
X0237013Y0172844D02*
X0238404Y0172844D01*
X0240002Y0171245D02*
X0235414Y0171245D01*
X0244931Y0179238D02*
X0250485Y0179238D01*
X0250816Y0179568D02*
X0248140Y0176892D01*
X0248140Y0173108D01*
X0250816Y0170431D01*
X0254600Y0170431D01*
X0257277Y0173108D01*
X0257277Y0176892D01*
X0254600Y0179568D01*
X0250816Y0179568D01*
X0248886Y0177639D02*
X0246530Y0177639D01*
X0247277Y0176041D02*
X0248140Y0176041D01*
X0248140Y0174442D02*
X0247277Y0174442D01*
X0247013Y0172844D02*
X0248404Y0172844D01*
X0250002Y0171245D02*
X0245414Y0171245D01*
X0255414Y0171245D02*
X0277608Y0171245D01*
X0277608Y0169647D02*
X0060749Y0169647D01*
X0059150Y0168048D02*
X0277647Y0168048D01*
X0277608Y0166450D02*
X0057552Y0166450D01*
X0055953Y0164851D02*
X0277608Y0164851D01*
X0281708Y0165000D02*
X0285208Y0165000D01*
X0287708Y0167500D01*
X0287708Y0171000D01*
X0291708Y0175000D01*
X0314708Y0175000D01*
X0319708Y0170000D01*
X0367708Y0170000D01*
X0372708Y0165000D01*
X0372708Y0120000D01*
X0367708Y0115000D01*
X0332708Y0115000D01*
X0326881Y0120827D01*
X0326881Y0136654D01*
X0331212Y0136654D02*
X0331212Y0146496D01*
X0327708Y0150000D01*
X0293708Y0150000D01*
X0296988Y0147268D02*
X0327046Y0147268D01*
X0328645Y0145669D02*
X0291347Y0145669D01*
X0293708Y0155000D02*
X0332708Y0155000D01*
X0335543Y0152165D01*
X0335543Y0136654D01*
X0328812Y0140873D02*
X0323471Y0140873D01*
X0320963Y0140873D02*
X0320595Y0140873D01*
X0320595Y0139275D02*
X0320963Y0139275D01*
X0320963Y0137676D02*
X0320595Y0137676D01*
X0320595Y0136469D02*
X0317010Y0136469D01*
X0317010Y0133858D01*
X0317133Y0133400D01*
X0317370Y0132989D01*
X0317705Y0132654D01*
X0318116Y0132417D01*
X0318573Y0132294D01*
X0320595Y0132294D01*
X0320595Y0136469D01*
X0320595Y0136078D02*
X0320963Y0136078D01*
X0320963Y0134479D02*
X0320595Y0134479D01*
X0320595Y0132881D02*
X0320963Y0132881D01*
X0324079Y0132881D02*
X0324454Y0132881D01*
X0324481Y0131282D02*
X0309820Y0131282D01*
X0311418Y0129684D02*
X0324481Y0129684D01*
X0324481Y0128085D02*
X0313017Y0128085D01*
X0314615Y0126487D02*
X0324481Y0126487D01*
X0324481Y0124888D02*
X0316214Y0124888D01*
X0317812Y0123290D02*
X0324481Y0123290D01*
X0324481Y0121691D02*
X0319411Y0121691D01*
X0321009Y0120093D02*
X0324588Y0120093D01*
X0325820Y0118494D02*
X0322608Y0118494D01*
X0324206Y0116896D02*
X0327418Y0116896D01*
X0329017Y0115297D02*
X0325805Y0115297D01*
X0327403Y0113699D02*
X0330615Y0113699D01*
X0327708Y0110000D02*
X0362708Y0110000D01*
X0359782Y0107305D02*
X0256808Y0107305D01*
X0256808Y0108903D02*
X0325411Y0108903D01*
X0323812Y0110502D02*
X0256808Y0110502D01*
X0256808Y0112100D02*
X0322214Y0112100D01*
X0320615Y0113699D02*
X0257277Y0113699D01*
X0257277Y0113108D02*
X0257277Y0116892D01*
X0254600Y0119568D01*
X0250816Y0119568D01*
X0248140Y0116892D01*
X0248140Y0113108D01*
X0248608Y0112639D01*
X0248608Y0102434D01*
X0248349Y0102176D01*
X0248132Y0102393D01*
X0247722Y0102630D01*
X0247264Y0102753D01*
X0247008Y0102753D01*
X0247008Y0112556D01*
X0247477Y0113025D01*
X0247477Y0114816D01*
X0247008Y0114816D01*
X0247008Y0115184D01*
X0247477Y0115184D01*
X0247477Y0116975D01*
X0247008Y0117444D01*
X0247008Y0118831D01*
X0246539Y0119300D01*
X0245152Y0119300D01*
X0244683Y0119768D01*
X0242892Y0119768D01*
X0242892Y0119300D01*
X0242524Y0119300D01*
X0242524Y0119768D01*
X0240733Y0119768D01*
X0240264Y0119300D01*
X0238877Y0119300D01*
X0238408Y0118831D01*
X0238408Y0117444D01*
X0237940Y0116975D01*
X0237940Y0115184D01*
X0238408Y0115184D01*
X0238408Y0114816D01*
X0237940Y0114816D01*
X0237940Y0113025D01*
X0238408Y0112556D01*
X0238408Y0099669D01*
X0238877Y0099200D01*
X0240109Y0099200D01*
X0240109Y0098480D01*
X0243988Y0098480D01*
X0243988Y0097520D01*
X0244947Y0097520D01*
X0244947Y0093247D01*
X0247264Y0093247D01*
X0247722Y0093370D01*
X0248132Y0093607D01*
X0248349Y0093824D01*
X0248726Y0093447D01*
X0255170Y0093447D01*
X0256107Y0094384D01*
X0256107Y0094660D01*
X0367250Y0094660D01*
X0375340Y0086569D01*
X0375340Y0057557D01*
X0373845Y0056061D01*
X0372840Y0053636D01*
X0372840Y0041010D01*
X0373845Y0038584D01*
X0375702Y0036728D01*
X0378128Y0035723D01*
X0380753Y0035723D01*
X0383179Y0036728D01*
X0385036Y0038584D01*
X0386040Y0041010D01*
X0386040Y0053636D01*
X0385036Y0056061D01*
X0383540Y0057557D01*
X0383540Y0089083D01*
X0382916Y0090590D01*
X0381763Y0091744D01*
X0371271Y0102236D01*
X0369764Y0102860D01*
X0256808Y0102860D01*
X0256808Y0112639D01*
X0257277Y0113108D01*
X0257277Y0115297D02*
X0319017Y0115297D01*
X0317418Y0116896D02*
X0257273Y0116896D01*
X0255675Y0118494D02*
X0315820Y0118494D01*
X0314221Y0120093D02*
X0238599Y0120093D01*
X0239406Y0120900D02*
X0303524Y0120900D01*
X0305031Y0121524D01*
X0306184Y0122678D01*
X0306808Y0124184D01*
X0306808Y0125816D01*
X0306184Y0127322D01*
X0305031Y0128476D01*
X0303524Y0129100D01*
X0236893Y0129100D01*
X0235386Y0128476D01*
X0234232Y0127322D01*
X0229232Y0122322D01*
X0228608Y0120816D01*
X0228608Y0117361D01*
X0228140Y0116892D01*
X0228140Y0113108D01*
X0230816Y0110431D01*
X0234600Y0110431D01*
X0237277Y0113108D01*
X0237277Y0116892D01*
X0236808Y0117361D01*
X0236808Y0118302D01*
X0239406Y0120900D01*
X0238408Y0118494D02*
X0237001Y0118494D01*
X0237273Y0116896D02*
X0237940Y0116896D01*
X0237940Y0115297D02*
X0237277Y0115297D01*
X0237277Y0113699D02*
X0237940Y0113699D01*
X0238408Y0112100D02*
X0236269Y0112100D01*
X0234671Y0110502D02*
X0238408Y0110502D01*
X0238408Y0108903D02*
X0235171Y0108903D01*
X0234999Y0108975D02*
X0233417Y0108975D01*
X0231957Y0108370D01*
X0230987Y0107400D01*
X0205929Y0107400D01*
X0204960Y0108370D01*
X0203499Y0108975D01*
X0201917Y0108975D01*
X0200457Y0108370D01*
X0199338Y0107252D01*
X0198733Y0105791D01*
X0198733Y0104209D01*
X0199338Y0102748D01*
X0200457Y0101630D01*
X0201917Y0101025D01*
X0203499Y0101025D01*
X0204960Y0101630D01*
X0205929Y0102600D01*
X0230987Y0102600D01*
X0231957Y0101630D01*
X0233417Y0101025D01*
X0234999Y0101025D01*
X0236460Y0101630D01*
X0237578Y0102748D01*
X0238183Y0104209D01*
X0238183Y0105791D01*
X0237578Y0107252D01*
X0236460Y0108370D01*
X0234999Y0108975D01*
X0233245Y0108903D02*
X0203671Y0108903D01*
X0204600Y0110431D02*
X0207277Y0113108D01*
X0207277Y0116892D01*
X0204600Y0119568D01*
X0200816Y0119568D01*
X0198140Y0116892D01*
X0198140Y0113108D01*
X0200816Y0110431D01*
X0204600Y0110431D01*
X0204671Y0110502D02*
X0210745Y0110502D01*
X0210816Y0110431D02*
X0214600Y0110431D01*
X0217277Y0113108D01*
X0217277Y0116892D01*
X0214600Y0119568D01*
X0210816Y0119568D01*
X0208140Y0116892D01*
X0208140Y0113108D01*
X0210816Y0110431D01*
X0209147Y0112100D02*
X0206269Y0112100D01*
X0207277Y0113699D02*
X0208140Y0113699D01*
X0208140Y0115297D02*
X0207277Y0115297D01*
X0207273Y0116896D02*
X0208143Y0116896D01*
X0209742Y0118494D02*
X0205675Y0118494D01*
X0202794Y0121691D02*
X0228971Y0121691D01*
X0228608Y0120093D02*
X0201195Y0120093D01*
X0199742Y0118494D02*
X0199596Y0118494D01*
X0198143Y0116896D02*
X0197998Y0116896D01*
X0198140Y0115297D02*
X0197277Y0115297D01*
X0197277Y0113699D02*
X0198140Y0113699D01*
X0199147Y0112100D02*
X0196269Y0112100D01*
X0194671Y0110502D02*
X0200745Y0110502D01*
X0201745Y0108903D02*
X0179581Y0108903D01*
X0179808Y0110502D02*
X0180745Y0110502D01*
X0184671Y0110502D02*
X0190745Y0110502D01*
X0189147Y0112100D02*
X0186269Y0112100D01*
X0187277Y0113699D02*
X0188140Y0113699D01*
X0188140Y0115297D02*
X0187277Y0115297D01*
X0187273Y0116896D02*
X0188143Y0116896D01*
X0189742Y0118494D02*
X0185675Y0118494D01*
X0179808Y0120093D02*
X0194407Y0120093D01*
X0196005Y0121691D02*
X0179808Y0121691D01*
X0179808Y0123290D02*
X0197604Y0123290D01*
X0199202Y0124888D02*
X0179808Y0124888D01*
X0179808Y0126487D02*
X0200801Y0126487D01*
X0202399Y0128085D02*
X0179808Y0128085D01*
X0179808Y0129684D02*
X0203998Y0129684D01*
X0205596Y0131282D02*
X0179808Y0131282D01*
X0179808Y0132881D02*
X0207195Y0132881D01*
X0208793Y0134479D02*
X0180157Y0134479D01*
X0181756Y0136078D02*
X0210392Y0136078D01*
X0212708Y0135000D02*
X0302708Y0135000D01*
X0327708Y0110000D01*
X0333702Y0117400D02*
X0332702Y0118400D01*
X0336793Y0118400D01*
X0337246Y0117947D01*
X0343690Y0117947D01*
X0344067Y0118324D01*
X0344284Y0118107D01*
X0344694Y0117870D01*
X0345152Y0117747D01*
X0347469Y0117747D01*
X0347469Y0122020D01*
X0348428Y0122020D01*
X0348428Y0117747D01*
X0350744Y0117747D01*
X0351202Y0117870D01*
X0351612Y0118107D01*
X0351948Y0118442D01*
X0352185Y0118852D01*
X0352307Y0119310D01*
X0352307Y0122020D01*
X0348428Y0122020D01*
X0348428Y0122980D01*
X0352307Y0122980D01*
X0352307Y0125690D01*
X0352185Y0126148D01*
X0351948Y0126558D01*
X0351612Y0126893D01*
X0351508Y0126953D01*
X0351508Y0132494D01*
X0354906Y0132494D01*
X0355031Y0132619D01*
X0355156Y0132494D01*
X0360308Y0132494D01*
X0360308Y0131221D01*
X0359338Y0130252D01*
X0358733Y0128791D01*
X0358733Y0127209D01*
X0359338Y0125748D01*
X0360457Y0124630D01*
X0361917Y0124025D01*
X0363499Y0124025D01*
X0364960Y0124630D01*
X0366078Y0125748D01*
X0366683Y0127209D01*
X0366683Y0128791D01*
X0366078Y0130252D01*
X0365108Y0131221D01*
X0365108Y0135359D01*
X0364743Y0136241D01*
X0363914Y0137070D01*
X0363914Y0139875D01*
X0362977Y0140813D01*
X0359596Y0140813D01*
X0359596Y0150989D01*
X0359231Y0151871D01*
X0344743Y0166359D01*
X0344068Y0167035D01*
X0343185Y0167400D01*
X0305729Y0167400D01*
X0306078Y0167748D01*
X0306683Y0169209D01*
X0306683Y0170791D01*
X0306078Y0172252D01*
X0305729Y0172600D01*
X0313714Y0172600D01*
X0318349Y0167965D01*
X0319231Y0167600D01*
X0366714Y0167600D01*
X0370308Y0164006D01*
X0370308Y0120994D01*
X0366714Y0117400D01*
X0333702Y0117400D01*
X0347469Y0118494D02*
X0348428Y0118494D01*
X0348428Y0120093D02*
X0347469Y0120093D01*
X0347469Y0121691D02*
X0348428Y0121691D01*
X0352307Y0121691D02*
X0370308Y0121691D01*
X0370308Y0123290D02*
X0352307Y0123290D01*
X0352307Y0124888D02*
X0360198Y0124888D01*
X0359033Y0126487D02*
X0351989Y0126487D01*
X0351508Y0128085D02*
X0358733Y0128085D01*
X0359103Y0129684D02*
X0351508Y0129684D01*
X0351508Y0131282D02*
X0360308Y0131282D01*
X0362708Y0128000D02*
X0362708Y0134882D01*
X0360936Y0136654D01*
X0363914Y0137676D02*
X0370308Y0137676D01*
X0370308Y0136078D02*
X0364810Y0136078D01*
X0365108Y0134479D02*
X0370308Y0134479D01*
X0370308Y0132881D02*
X0365108Y0132881D01*
X0365108Y0131282D02*
X0370308Y0131282D01*
X0370308Y0129684D02*
X0366313Y0129684D01*
X0366683Y0128085D02*
X0370308Y0128085D01*
X0370308Y0126487D02*
X0366384Y0126487D01*
X0365218Y0124888D02*
X0370308Y0124888D01*
X0375108Y0124888D02*
X0402908Y0124888D01*
X0402908Y0123290D02*
X0375108Y0123290D01*
X0375108Y0121691D02*
X0402908Y0121691D01*
X0402908Y0120093D02*
X0375108Y0120093D01*
X0374596Y0118494D02*
X0402908Y0118494D01*
X0402908Y0116896D02*
X0372998Y0116896D01*
X0371399Y0115297D02*
X0402908Y0115297D01*
X0402908Y0113699D02*
X0369801Y0113699D01*
X0366140Y0112100D02*
X0402908Y0112100D01*
X0402908Y0110502D02*
X0366683Y0110502D01*
X0366556Y0108903D02*
X0402908Y0108903D01*
X0402908Y0107305D02*
X0365634Y0107305D01*
X0370610Y0102509D02*
X0402908Y0102509D01*
X0402908Y0100911D02*
X0372596Y0100911D01*
X0374194Y0099312D02*
X0402908Y0099312D01*
X0402908Y0097714D02*
X0375793Y0097714D01*
X0377391Y0096115D02*
X0402908Y0096115D01*
X0402908Y0094517D02*
X0378990Y0094517D01*
X0380588Y0092918D02*
X0402908Y0092918D01*
X0402908Y0091320D02*
X0382187Y0091320D01*
X0383276Y0089721D02*
X0402908Y0089721D01*
X0402908Y0088123D02*
X0383540Y0088123D01*
X0383540Y0086524D02*
X0402908Y0086524D01*
X0402908Y0084926D02*
X0383540Y0084926D01*
X0383540Y0083327D02*
X0402908Y0083327D01*
X0402908Y0081729D02*
X0383540Y0081729D01*
X0383540Y0080130D02*
X0402908Y0080130D01*
X0402908Y0078532D02*
X0383540Y0078532D01*
X0383540Y0076933D02*
X0402908Y0076933D01*
X0402908Y0075334D02*
X0383540Y0075334D01*
X0383540Y0073736D02*
X0402908Y0073736D01*
X0402908Y0072137D02*
X0383540Y0072137D01*
X0383540Y0070539D02*
X0402908Y0070539D01*
X0402908Y0068940D02*
X0383540Y0068940D01*
X0383540Y0067342D02*
X0402908Y0067342D01*
X0402908Y0065743D02*
X0383540Y0065743D01*
X0383540Y0064145D02*
X0402908Y0064145D01*
X0402908Y0062546D02*
X0383540Y0062546D01*
X0383540Y0060948D02*
X0402908Y0060948D01*
X0402908Y0059349D02*
X0383540Y0059349D01*
X0383540Y0057751D02*
X0402908Y0057751D01*
X0402908Y0056152D02*
X0384945Y0056152D01*
X0385660Y0054554D02*
X0402908Y0054554D01*
X0402908Y0052955D02*
X0386040Y0052955D01*
X0386040Y0051357D02*
X0402908Y0051357D01*
X0402908Y0049758D02*
X0386040Y0049758D01*
X0386040Y0048160D02*
X0402908Y0048160D01*
X0402908Y0046561D02*
X0386040Y0046561D01*
X0386040Y0044963D02*
X0402908Y0044963D01*
X0402908Y0043364D02*
X0386040Y0043364D01*
X0386040Y0041766D02*
X0402908Y0041766D01*
X0402908Y0040167D02*
X0385691Y0040167D01*
X0385020Y0038569D02*
X0402908Y0038569D01*
X0402908Y0036970D02*
X0383422Y0036970D01*
X0388683Y0033773D02*
X0310198Y0033773D01*
X0309977Y0033994D02*
X0295597Y0033994D01*
X0294659Y0033056D01*
X0294659Y0018676D01*
X0295597Y0017739D01*
X0309977Y0017739D01*
X0310914Y0018676D01*
X0310914Y0033056D01*
X0309977Y0033994D01*
X0310914Y0032175D02*
X0387966Y0032175D01*
X0387966Y0030576D02*
X0310914Y0030576D01*
X0310914Y0028978D02*
X0387966Y0028978D01*
X0387966Y0027379D02*
X0310914Y0027379D01*
X0310914Y0025781D02*
X0387966Y0025781D01*
X0387966Y0024182D02*
X0310914Y0024182D01*
X0310914Y0022584D02*
X0387966Y0022584D01*
X0387966Y0020985D02*
X0310914Y0020985D01*
X0310914Y0019387D02*
X0387966Y0019387D01*
X0388854Y0017788D02*
X0310027Y0017788D01*
X0295547Y0017788D02*
X0012508Y0017788D01*
X0012508Y0016190D02*
X0402908Y0016190D01*
X0402908Y0014591D02*
X0012508Y0014591D01*
X0012508Y0012993D02*
X0402908Y0012993D01*
X0402908Y0011394D02*
X0012508Y0011394D01*
X0012508Y0019387D02*
X0294659Y0019387D01*
X0294659Y0020985D02*
X0012508Y0020985D01*
X0012508Y0022584D02*
X0294659Y0022584D01*
X0294659Y0024182D02*
X0012508Y0024182D01*
X0012508Y0025781D02*
X0294659Y0025781D01*
X0294659Y0027379D02*
X0012508Y0027379D01*
X0012508Y0028978D02*
X0294659Y0028978D01*
X0294659Y0030576D02*
X0012508Y0030576D01*
X0012508Y0032175D02*
X0294659Y0032175D01*
X0295376Y0033773D02*
X0012508Y0033773D01*
X0012508Y0035372D02*
X0402908Y0035372D01*
X0375459Y0036970D02*
X0363635Y0036970D01*
X0363934Y0037199D02*
X0364564Y0037830D01*
X0365106Y0038537D01*
X0365552Y0039309D01*
X0365893Y0040132D01*
X0366124Y0040993D01*
X0366240Y0041877D01*
X0366240Y0046646D01*
X0360117Y0046646D01*
X0360117Y0035553D01*
X0360770Y0035639D01*
X0361631Y0035870D01*
X0362454Y0036211D01*
X0363226Y0036657D01*
X0363934Y0037199D01*
X0365125Y0038569D02*
X0373861Y0038569D01*
X0373189Y0040167D02*
X0365903Y0040167D01*
X0366226Y0041766D02*
X0372840Y0041766D01*
X0372840Y0043364D02*
X0366240Y0043364D01*
X0366240Y0044963D02*
X0372840Y0044963D01*
X0372840Y0046561D02*
X0366240Y0046561D01*
X0366240Y0047999D02*
X0366240Y0052769D01*
X0366124Y0053652D01*
X0365893Y0054513D01*
X0365552Y0055337D01*
X0365106Y0056109D01*
X0364564Y0056816D01*
X0363934Y0057446D01*
X0363226Y0057989D01*
X0362454Y0058435D01*
X0361631Y0058776D01*
X0360770Y0059006D01*
X0360117Y0059092D01*
X0360117Y0047999D01*
X0366240Y0047999D01*
X0366240Y0048160D02*
X0372840Y0048160D01*
X0372840Y0049758D02*
X0366240Y0049758D01*
X0366240Y0051357D02*
X0372840Y0051357D01*
X0372840Y0052955D02*
X0366216Y0052955D01*
X0365877Y0054554D02*
X0373221Y0054554D01*
X0373936Y0056152D02*
X0365073Y0056152D01*
X0363537Y0057751D02*
X0375340Y0057751D01*
X0375340Y0059349D02*
X0283094Y0059349D01*
X0283264Y0059180D02*
X0280471Y0061973D01*
X0278680Y0061973D01*
X0278680Y0057389D01*
X0283264Y0057389D01*
X0283264Y0059180D01*
X0283264Y0057751D02*
X0315535Y0057751D01*
X0315702Y0057918D02*
X0313845Y0056061D01*
X0312840Y0053636D01*
X0312840Y0041010D01*
X0313845Y0038584D01*
X0315702Y0036728D01*
X0318128Y0035723D01*
X0320753Y0035723D01*
X0323179Y0036728D01*
X0325036Y0038584D01*
X0326040Y0041010D01*
X0326040Y0053636D01*
X0325036Y0056061D01*
X0323179Y0057918D01*
X0320753Y0058923D01*
X0318128Y0058923D01*
X0315702Y0057918D01*
X0313936Y0056152D02*
X0283264Y0056152D01*
X0283264Y0057020D02*
X0278680Y0057020D01*
X0278680Y0052436D01*
X0280471Y0052436D01*
X0283264Y0055230D01*
X0283264Y0057020D01*
X0282588Y0054554D02*
X0313221Y0054554D01*
X0312840Y0052955D02*
X0280990Y0052955D01*
X0280388Y0051773D02*
X0276603Y0051773D01*
X0273927Y0049097D01*
X0273927Y0045312D01*
X0276603Y0042636D01*
X0280388Y0042636D01*
X0283064Y0045312D01*
X0283064Y0049097D01*
X0280388Y0051773D01*
X0280804Y0051357D02*
X0312840Y0051357D01*
X0312840Y0049758D02*
X0282403Y0049758D01*
X0283064Y0048160D02*
X0312840Y0048160D01*
X0312840Y0046561D02*
X0283064Y0046561D01*
X0282714Y0044963D02*
X0312840Y0044963D01*
X0312840Y0043364D02*
X0281116Y0043364D01*
X0275875Y0043364D02*
X0271116Y0043364D01*
X0270388Y0042636D02*
X0273064Y0045312D01*
X0273064Y0049097D01*
X0270388Y0051773D01*
X0266603Y0051773D01*
X0263927Y0049097D01*
X0263927Y0045312D01*
X0266603Y0042636D01*
X0270388Y0042636D01*
X0272714Y0044963D02*
X0274277Y0044963D01*
X0273927Y0046561D02*
X0273064Y0046561D01*
X0273064Y0048160D02*
X0273927Y0048160D01*
X0274588Y0049758D02*
X0272403Y0049758D01*
X0270804Y0051357D02*
X0276187Y0051357D01*
X0276520Y0052436D02*
X0273727Y0055230D01*
X0273727Y0057020D01*
X0278311Y0057020D01*
X0278680Y0057020D01*
X0278680Y0057389D01*
X0278311Y0057389D01*
X0278311Y0057020D01*
X0278311Y0052436D01*
X0276520Y0052436D01*
X0276001Y0052955D02*
X0270990Y0052955D01*
X0270471Y0052436D02*
X0273264Y0055230D01*
X0273264Y0057020D01*
X0268680Y0057020D01*
X0268680Y0052436D01*
X0270471Y0052436D01*
X0268680Y0052955D02*
X0268311Y0052955D01*
X0268311Y0052436D02*
X0268311Y0057020D01*
X0268680Y0057020D01*
X0268680Y0057389D01*
X0273264Y0057389D01*
X0273264Y0059180D01*
X0270471Y0061973D01*
X0268680Y0061973D01*
X0268680Y0057389D01*
X0268311Y0057389D01*
X0268311Y0057020D01*
X0263727Y0057020D01*
X0263727Y0055230D01*
X0266520Y0052436D01*
X0268311Y0052436D01*
X0268311Y0054554D02*
X0268680Y0054554D01*
X0268680Y0056152D02*
X0268311Y0056152D01*
X0268311Y0057389D02*
X0263727Y0057389D01*
X0263727Y0059180D01*
X0266520Y0061973D01*
X0268311Y0061973D01*
X0268311Y0057389D01*
X0268311Y0057751D02*
X0268680Y0057751D01*
X0268680Y0059349D02*
X0268311Y0059349D01*
X0268311Y0060948D02*
X0268680Y0060948D01*
X0271496Y0060948D02*
X0275495Y0060948D01*
X0276520Y0061973D02*
X0273727Y0059180D01*
X0273727Y0057389D01*
X0278311Y0057389D01*
X0278311Y0061973D01*
X0276520Y0061973D01*
X0278311Y0060948D02*
X0278680Y0060948D01*
X0278680Y0059349D02*
X0278311Y0059349D01*
X0278311Y0057751D02*
X0278680Y0057751D01*
X0278680Y0056152D02*
X0278311Y0056152D01*
X0278311Y0054554D02*
X0278680Y0054554D01*
X0278680Y0052955D02*
X0278311Y0052955D01*
X0274403Y0054554D02*
X0272588Y0054554D01*
X0273264Y0056152D02*
X0273727Y0056152D01*
X0273727Y0057751D02*
X0273264Y0057751D01*
X0273094Y0059349D02*
X0273896Y0059349D01*
X0277463Y0068700D02*
X0279134Y0068700D01*
X0280678Y0069339D01*
X0281859Y0070521D01*
X0282499Y0072065D01*
X0282499Y0078935D01*
X0282363Y0079262D01*
X0282367Y0079293D01*
X0282308Y0079500D01*
X0282308Y0079716D01*
X0282114Y0080184D01*
X0281976Y0080671D01*
X0281843Y0080840D01*
X0281760Y0081039D01*
X0281402Y0081397D01*
X0281088Y0081794D01*
X0280900Y0081899D01*
X0275760Y0087039D01*
X0274747Y0088052D01*
X0273424Y0088600D01*
X0178252Y0088600D01*
X0176929Y0088052D01*
X0173338Y0084461D01*
X0168747Y0089052D01*
X0167424Y0089600D01*
X0132992Y0089600D01*
X0131669Y0089052D01*
X0130656Y0088039D01*
X0125656Y0083039D01*
X0125108Y0081716D01*
X0125108Y0080384D01*
X0124508Y0078935D01*
X0124508Y0072065D01*
X0125147Y0070521D01*
X0126329Y0069339D01*
X0127873Y0068700D01*
X0129544Y0068700D01*
X0131087Y0069339D01*
X0132269Y0070521D01*
X0132908Y0072065D01*
X0132908Y0078935D01*
X0132564Y0079765D01*
X0135199Y0082400D01*
X0138312Y0082400D01*
X0138078Y0081994D01*
X0137955Y0081536D01*
X0137955Y0079220D01*
X0142228Y0079220D01*
X0142228Y0078261D01*
X0137955Y0078261D01*
X0137955Y0075944D01*
X0138078Y0075486D01*
X0138315Y0075076D01*
X0138532Y0074859D01*
X0138155Y0074482D01*
X0138155Y0068038D01*
X0139093Y0067101D01*
X0143450Y0067101D01*
X0143553Y0067058D01*
X0151168Y0067058D01*
X0151168Y0061684D01*
X0151048Y0061396D01*
X0150471Y0061973D01*
X0148680Y0061973D01*
X0148680Y0057389D01*
X0148311Y0057389D01*
X0148311Y0057020D01*
X0148680Y0057020D01*
X0148680Y0052436D01*
X0150471Y0052436D01*
X0151132Y0053098D01*
X0150908Y0052557D01*
X0150908Y0051536D01*
X0150471Y0051973D01*
X0148680Y0051973D01*
X0148680Y0047389D01*
X0153264Y0047389D01*
X0153264Y0048484D01*
X0153927Y0047821D01*
X0153927Y0045312D01*
X0156603Y0042636D01*
X0160388Y0042636D01*
X0163064Y0045312D01*
X0163064Y0049097D01*
X0160388Y0051773D01*
X0157895Y0051773D01*
X0157032Y0052636D01*
X0160388Y0052636D01*
X0163064Y0055312D01*
X0163064Y0059097D01*
X0160388Y0061773D01*
X0156768Y0061773D01*
X0156768Y0063100D01*
X0161185Y0063100D01*
X0162068Y0063465D01*
X0162743Y0064141D01*
X0163483Y0064881D01*
X0163848Y0065763D01*
X0163848Y0066452D01*
X0164229Y0066833D01*
X0164229Y0072883D01*
X0163292Y0073820D01*
X0159718Y0073820D01*
X0159584Y0073898D01*
X0159126Y0074020D01*
X0157708Y0074020D01*
X0156290Y0074020D01*
X0155832Y0073898D01*
X0155698Y0073820D01*
X0152124Y0073820D01*
X0151187Y0072883D01*
X0151187Y0072658D01*
X0147261Y0072658D01*
X0147261Y0074482D01*
X0146884Y0074859D01*
X0147101Y0075076D01*
X0147338Y0075486D01*
X0147461Y0075944D01*
X0147461Y0078261D01*
X0143188Y0078261D01*
X0143188Y0079220D01*
X0147461Y0079220D01*
X0147461Y0081536D01*
X0147338Y0081994D01*
X0147104Y0082400D01*
X0151168Y0082400D01*
X0151168Y0079585D01*
X0151187Y0079539D01*
X0151187Y0077117D01*
X0152124Y0076180D01*
X0155812Y0076180D01*
X0156749Y0077117D01*
X0156749Y0079539D01*
X0156768Y0079585D01*
X0156768Y0082400D01*
X0158667Y0082400D01*
X0158667Y0077117D01*
X0159604Y0076180D01*
X0163292Y0076180D01*
X0164229Y0077117D01*
X0164229Y0082400D01*
X0165217Y0082400D01*
X0168155Y0079462D01*
X0168155Y0075518D01*
X0168532Y0075141D01*
X0168315Y0074924D01*
X0168078Y0074514D01*
X0167955Y0074056D01*
X0167955Y0071739D01*
X0172228Y0071739D01*
X0172228Y0070780D01*
X0167955Y0070780D01*
X0167955Y0068464D01*
X0168078Y0068006D01*
X0168315Y0067596D01*
X0168650Y0067260D01*
X0169061Y0067023D01*
X0169518Y0066901D01*
X0172229Y0066901D01*
X0172229Y0070780D01*
X0173188Y0070780D01*
X0173188Y0071739D01*
X0177461Y0071739D01*
X0177461Y0074056D01*
X0177338Y0074514D01*
X0177101Y0074924D01*
X0176884Y0075141D01*
X0177261Y0075518D01*
X0177261Y0078202D01*
X0180459Y0081400D01*
X0185659Y0081400D01*
X0184738Y0080479D01*
X0184099Y0078935D01*
X0184099Y0072065D01*
X0184738Y0070521D01*
X0185920Y0069339D01*
X0187463Y0068700D01*
X0189134Y0068700D01*
X0190678Y0069339D01*
X0191859Y0070521D01*
X0192499Y0072065D01*
X0192499Y0078935D01*
X0191859Y0080479D01*
X0190938Y0081400D01*
X0195659Y0081400D01*
X0194738Y0080479D01*
X0194099Y0078935D01*
X0194099Y0072065D01*
X0194738Y0070521D01*
X0195920Y0069339D01*
X0197463Y0068700D01*
X0199134Y0068700D01*
X0200678Y0069339D01*
X0201859Y0070521D01*
X0202499Y0072065D01*
X0202499Y0078935D01*
X0201859Y0080479D01*
X0200938Y0081400D01*
X0205659Y0081400D01*
X0204738Y0080479D01*
X0204099Y0078935D01*
X0204099Y0072065D01*
X0204738Y0070521D01*
X0205920Y0069339D01*
X0207463Y0068700D01*
X0209134Y0068700D01*
X0210678Y0069339D01*
X0211859Y0070521D01*
X0212499Y0072065D01*
X0212499Y0078935D01*
X0211859Y0080479D01*
X0210938Y0081400D01*
X0215659Y0081400D01*
X0214738Y0080479D01*
X0214099Y0078935D01*
X0214099Y0072065D01*
X0214738Y0070521D01*
X0215920Y0069339D01*
X0217463Y0068700D01*
X0219134Y0068700D01*
X0220678Y0069339D01*
X0221859Y0070521D01*
X0222499Y0072065D01*
X0222499Y0078935D01*
X0221859Y0080479D01*
X0220938Y0081400D01*
X0225659Y0081400D01*
X0224738Y0080479D01*
X0224099Y0078935D01*
X0224099Y0072065D01*
X0224738Y0070521D01*
X0225920Y0069339D01*
X0227463Y0068700D01*
X0229134Y0068700D01*
X0230678Y0069339D01*
X0231859Y0070521D01*
X0232499Y0072065D01*
X0232499Y0078935D01*
X0231859Y0080479D01*
X0230938Y0081400D01*
X0235659Y0081400D01*
X0234738Y0080479D01*
X0234099Y0078935D01*
X0234099Y0072065D01*
X0234738Y0070521D01*
X0235920Y0069339D01*
X0237463Y0068700D01*
X0239134Y0068700D01*
X0240678Y0069339D01*
X0241859Y0070521D01*
X0242499Y0072065D01*
X0242499Y0078935D01*
X0241859Y0080479D01*
X0240938Y0081400D01*
X0245659Y0081400D01*
X0244738Y0080479D01*
X0244099Y0078935D01*
X0244099Y0072065D01*
X0244738Y0070521D01*
X0245920Y0069339D01*
X0247463Y0068700D01*
X0249134Y0068700D01*
X0250678Y0069339D01*
X0251859Y0070521D01*
X0252499Y0072065D01*
X0252499Y0078935D01*
X0251859Y0080479D01*
X0250938Y0081400D01*
X0255659Y0081400D01*
X0254738Y0080479D01*
X0254099Y0078935D01*
X0254099Y0072065D01*
X0254738Y0070521D01*
X0255920Y0069339D01*
X0257463Y0068700D01*
X0259134Y0068700D01*
X0260678Y0069339D01*
X0261859Y0070521D01*
X0262499Y0072065D01*
X0262499Y0078935D01*
X0261859Y0080479D01*
X0260938Y0081400D01*
X0265659Y0081400D01*
X0264738Y0080479D01*
X0264099Y0078935D01*
X0264099Y0072065D01*
X0264738Y0070521D01*
X0265920Y0069339D01*
X0267463Y0068700D01*
X0269134Y0068700D01*
X0270678Y0069339D01*
X0271859Y0070521D01*
X0272499Y0072065D01*
X0272499Y0078935D01*
X0271859Y0080479D01*
X0270938Y0081400D01*
X0271217Y0081400D01*
X0274099Y0078518D01*
X0274099Y0072065D01*
X0274738Y0070521D01*
X0275920Y0069339D01*
X0277463Y0068700D01*
X0276883Y0068940D02*
X0269715Y0068940D01*
X0271867Y0070539D02*
X0274731Y0070539D01*
X0274099Y0072137D02*
X0272499Y0072137D01*
X0272499Y0073736D02*
X0274099Y0073736D01*
X0274099Y0075334D02*
X0272499Y0075334D01*
X0272499Y0076933D02*
X0274099Y0076933D01*
X0274085Y0078532D02*
X0272499Y0078532D01*
X0272487Y0080130D02*
X0272004Y0080130D01*
X0277874Y0084926D02*
X0375340Y0084926D01*
X0375340Y0086524D02*
X0276275Y0086524D01*
X0274577Y0088123D02*
X0373787Y0088123D01*
X0372189Y0089721D02*
X0012508Y0089721D01*
X0012508Y0088123D02*
X0130739Y0088123D01*
X0129141Y0086524D02*
X0012508Y0086524D01*
X0012508Y0084926D02*
X0127542Y0084926D01*
X0125944Y0083327D02*
X0012508Y0083327D01*
X0012508Y0081729D02*
X0036493Y0081729D01*
X0036329Y0081661D02*
X0035147Y0080479D01*
X0034508Y0078935D01*
X0034508Y0072065D01*
X0035147Y0070521D01*
X0036329Y0069339D01*
X0037873Y0068700D01*
X0039544Y0068700D01*
X0041087Y0069339D01*
X0042269Y0070521D01*
X0042908Y0072065D01*
X0042908Y0078935D01*
X0042269Y0080479D01*
X0041087Y0081661D01*
X0039544Y0082300D01*
X0037873Y0082300D01*
X0036329Y0081661D01*
X0035003Y0080130D02*
X0012508Y0080130D01*
X0012508Y0078532D02*
X0034508Y0078532D01*
X0034508Y0076933D02*
X0012508Y0076933D01*
X0012508Y0075334D02*
X0034508Y0075334D01*
X0034508Y0073736D02*
X0012508Y0073736D01*
X0012508Y0072137D02*
X0034508Y0072137D01*
X0035140Y0070539D02*
X0012508Y0070539D01*
X0012508Y0068940D02*
X0037292Y0068940D01*
X0040124Y0068940D02*
X0047292Y0068940D01*
X0047873Y0068700D02*
X0049544Y0068700D01*
X0051087Y0069339D01*
X0052269Y0070521D01*
X0052908Y0072065D01*
X0052908Y0078935D01*
X0052269Y0080479D01*
X0051087Y0081661D01*
X0049544Y0082300D01*
X0047873Y0082300D01*
X0046329Y0081661D01*
X0045147Y0080479D01*
X0044508Y0078935D01*
X0044508Y0072065D01*
X0045147Y0070521D01*
X0046329Y0069339D01*
X0047873Y0068700D01*
X0050124Y0068940D02*
X0057292Y0068940D01*
X0057873Y0068700D02*
X0059544Y0068700D01*
X0061087Y0069339D01*
X0062269Y0070521D01*
X0062908Y0072065D01*
X0062908Y0078935D01*
X0062269Y0080479D01*
X0061087Y0081661D01*
X0059544Y0082300D01*
X0057873Y0082300D01*
X0056329Y0081661D01*
X0055147Y0080479D01*
X0054508Y0078935D01*
X0054508Y0072065D01*
X0055147Y0070521D01*
X0056329Y0069339D01*
X0057873Y0068700D01*
X0060124Y0068940D02*
X0067292Y0068940D01*
X0067873Y0068700D02*
X0069544Y0068700D01*
X0071087Y0069339D01*
X0072269Y0070521D01*
X0072908Y0072065D01*
X0072908Y0078935D01*
X0072269Y0080479D01*
X0071087Y0081661D01*
X0069544Y0082300D01*
X0067873Y0082300D01*
X0066329Y0081661D01*
X0065147Y0080479D01*
X0064508Y0078935D01*
X0064508Y0072065D01*
X0065147Y0070521D01*
X0066329Y0069339D01*
X0067873Y0068700D01*
X0070124Y0068940D02*
X0077292Y0068940D01*
X0077873Y0068700D02*
X0079544Y0068700D01*
X0081087Y0069339D01*
X0082269Y0070521D01*
X0082908Y0072065D01*
X0082908Y0078935D01*
X0082269Y0080479D01*
X0081087Y0081661D01*
X0079544Y0082300D01*
X0077873Y0082300D01*
X0076329Y0081661D01*
X0075147Y0080479D01*
X0074508Y0078935D01*
X0074508Y0072065D01*
X0075147Y0070521D01*
X0076329Y0069339D01*
X0077873Y0068700D01*
X0080124Y0068940D02*
X0087292Y0068940D01*
X0087873Y0068700D02*
X0089544Y0068700D01*
X0091087Y0069339D01*
X0092269Y0070521D01*
X0092908Y0072065D01*
X0092908Y0078935D01*
X0092269Y0080479D01*
X0091087Y0081661D01*
X0089544Y0082300D01*
X0087873Y0082300D01*
X0086329Y0081661D01*
X0085147Y0080479D01*
X0084508Y0078935D01*
X0084508Y0072065D01*
X0085147Y0070521D01*
X0086329Y0069339D01*
X0087873Y0068700D01*
X0090124Y0068940D02*
X0097292Y0068940D01*
X0097873Y0068700D02*
X0099544Y0068700D01*
X0101087Y0069339D01*
X0102269Y0070521D01*
X0102908Y0072065D01*
X0102908Y0078935D01*
X0102269Y0080479D01*
X0101087Y0081661D01*
X0099544Y0082300D01*
X0097873Y0082300D01*
X0096329Y0081661D01*
X0095147Y0080479D01*
X0094508Y0078935D01*
X0094508Y0072065D01*
X0095147Y0070521D01*
X0096329Y0069339D01*
X0097873Y0068700D01*
X0100124Y0068940D02*
X0107292Y0068940D01*
X0107873Y0068700D02*
X0109544Y0068700D01*
X0111087Y0069339D01*
X0112269Y0070521D01*
X0112908Y0072065D01*
X0112908Y0078935D01*
X0112269Y0080479D01*
X0111087Y0081661D01*
X0109544Y0082300D01*
X0107873Y0082300D01*
X0106329Y0081661D01*
X0105147Y0080479D01*
X0104508Y0078935D01*
X0104508Y0072065D01*
X0105147Y0070521D01*
X0106329Y0069339D01*
X0107873Y0068700D01*
X0110124Y0068940D02*
X0117292Y0068940D01*
X0117873Y0068700D02*
X0119544Y0068700D01*
X0121087Y0069339D01*
X0122269Y0070521D01*
X0122908Y0072065D01*
X0122908Y0078935D01*
X0122269Y0080479D01*
X0121087Y0081661D01*
X0119544Y0082300D01*
X0117873Y0082300D01*
X0116329Y0081661D01*
X0115147Y0080479D01*
X0114508Y0078935D01*
X0114508Y0072065D01*
X0115147Y0070521D01*
X0116329Y0069339D01*
X0117873Y0068700D01*
X0120124Y0068940D02*
X0127292Y0068940D01*
X0125140Y0070539D02*
X0122276Y0070539D01*
X0122908Y0072137D02*
X0124508Y0072137D01*
X0124508Y0073736D02*
X0122908Y0073736D01*
X0122908Y0075334D02*
X0124508Y0075334D01*
X0124508Y0076933D02*
X0122908Y0076933D01*
X0122908Y0078532D02*
X0124508Y0078532D01*
X0125003Y0080130D02*
X0122413Y0080130D01*
X0120923Y0081729D02*
X0125113Y0081729D01*
X0132929Y0080130D02*
X0137955Y0080130D01*
X0138007Y0081729D02*
X0134528Y0081729D01*
X0132908Y0078532D02*
X0142228Y0078532D01*
X0143188Y0078532D02*
X0151187Y0078532D01*
X0151168Y0080130D02*
X0147461Y0080130D01*
X0147409Y0081729D02*
X0151168Y0081729D01*
X0151371Y0076933D02*
X0147461Y0076933D01*
X0147250Y0075334D02*
X0168339Y0075334D01*
X0168155Y0076933D02*
X0164046Y0076933D01*
X0164229Y0078532D02*
X0168155Y0078532D01*
X0167487Y0080130D02*
X0164229Y0080130D01*
X0164229Y0081729D02*
X0165888Y0081729D01*
X0158667Y0081729D02*
X0156768Y0081729D01*
X0156768Y0080130D02*
X0158667Y0080130D01*
X0158667Y0078532D02*
X0156749Y0078532D01*
X0156565Y0076933D02*
X0158851Y0076933D01*
X0157708Y0074020D02*
X0157708Y0069858D01*
X0157708Y0074020D01*
X0157708Y0073736D02*
X0157708Y0073736D01*
X0157708Y0072137D02*
X0157708Y0072137D01*
X0157708Y0070539D02*
X0157708Y0070539D01*
X0157708Y0069858D02*
X0157708Y0069858D01*
X0161448Y0069858D02*
X0161448Y0066240D01*
X0160708Y0065500D01*
X0154468Y0065500D01*
X0153968Y0065000D01*
X0151168Y0065743D02*
X0012508Y0065743D01*
X0012508Y0064145D02*
X0151168Y0064145D01*
X0151168Y0062546D02*
X0012508Y0062546D01*
X0012508Y0060948D02*
X0035495Y0060948D01*
X0036520Y0061973D02*
X0033727Y0059180D01*
X0033727Y0057389D01*
X0038311Y0057389D01*
X0038311Y0057020D01*
X0038680Y0057020D01*
X0038680Y0052436D01*
X0040471Y0052436D01*
X0043264Y0055230D01*
X0043264Y0057020D01*
X0038680Y0057020D01*
X0038680Y0057389D01*
X0043264Y0057389D01*
X0043264Y0059180D01*
X0040471Y0061973D01*
X0038680Y0061973D01*
X0038680Y0057389D01*
X0038311Y0057389D01*
X0038311Y0061973D01*
X0036520Y0061973D01*
X0038311Y0060948D02*
X0038680Y0060948D01*
X0038680Y0059349D02*
X0038311Y0059349D01*
X0038311Y0057751D02*
X0038680Y0057751D01*
X0038311Y0057020D02*
X0033727Y0057020D01*
X0033727Y0055230D01*
X0036520Y0052436D01*
X0038311Y0052436D01*
X0038311Y0057020D01*
X0038311Y0056152D02*
X0038680Y0056152D01*
X0038680Y0054554D02*
X0038311Y0054554D01*
X0038311Y0052955D02*
X0038680Y0052955D01*
X0040388Y0051773D02*
X0036603Y0051773D01*
X0033927Y0049097D01*
X0033927Y0045312D01*
X0036603Y0042636D01*
X0040388Y0042636D01*
X0043064Y0045312D01*
X0043064Y0049097D01*
X0040388Y0051773D01*
X0040804Y0051357D02*
X0046187Y0051357D01*
X0046603Y0051773D02*
X0043927Y0049097D01*
X0043927Y0045312D01*
X0046603Y0042636D01*
X0050388Y0042636D01*
X0053064Y0045312D01*
X0053064Y0049097D01*
X0050388Y0051773D01*
X0046603Y0051773D01*
X0046520Y0052436D02*
X0043727Y0055230D01*
X0043727Y0057020D01*
X0048311Y0057020D01*
X0048680Y0057020D01*
X0048680Y0052436D01*
X0050471Y0052436D01*
X0053264Y0055230D01*
X0053264Y0057020D01*
X0048680Y0057020D01*
X0048680Y0057389D01*
X0053264Y0057389D01*
X0053264Y0059180D01*
X0050471Y0061973D01*
X0048680Y0061973D01*
X0048680Y0057389D01*
X0048311Y0057389D01*
X0048311Y0057020D01*
X0048311Y0052436D01*
X0046520Y0052436D01*
X0046001Y0052955D02*
X0040990Y0052955D01*
X0042588Y0054554D02*
X0044403Y0054554D01*
X0043727Y0056152D02*
X0043264Y0056152D01*
X0043727Y0057389D02*
X0048311Y0057389D01*
X0048311Y0061973D01*
X0046520Y0061973D01*
X0043727Y0059180D01*
X0043727Y0057389D01*
X0043727Y0057751D02*
X0043264Y0057751D01*
X0043094Y0059349D02*
X0043896Y0059349D01*
X0045495Y0060948D02*
X0041496Y0060948D01*
X0033896Y0059349D02*
X0012508Y0059349D01*
X0012508Y0057751D02*
X0033727Y0057751D01*
X0033727Y0056152D02*
X0012508Y0056152D01*
X0012508Y0054554D02*
X0034403Y0054554D01*
X0036001Y0052955D02*
X0012508Y0052955D01*
X0012508Y0051357D02*
X0036187Y0051357D01*
X0034588Y0049758D02*
X0012508Y0049758D01*
X0012508Y0048160D02*
X0033927Y0048160D01*
X0033927Y0046561D02*
X0012508Y0046561D01*
X0012508Y0044963D02*
X0034277Y0044963D01*
X0035875Y0043364D02*
X0012508Y0043364D01*
X0012508Y0041766D02*
X0312840Y0041766D01*
X0313189Y0040167D02*
X0012508Y0040167D01*
X0012508Y0038569D02*
X0313861Y0038569D01*
X0315459Y0036970D02*
X0012508Y0036970D01*
X0012508Y0067342D02*
X0138851Y0067342D01*
X0138155Y0068940D02*
X0130124Y0068940D01*
X0132276Y0070539D02*
X0138155Y0070539D01*
X0138155Y0072137D02*
X0132908Y0072137D01*
X0132908Y0073736D02*
X0138155Y0073736D01*
X0138166Y0075334D02*
X0132908Y0075334D01*
X0132908Y0076933D02*
X0137955Y0076933D01*
X0142708Y0071260D02*
X0144110Y0069858D01*
X0147261Y0073736D02*
X0152040Y0073736D01*
X0156768Y0062546D02*
X0375340Y0062546D01*
X0375340Y0060948D02*
X0281496Y0060948D01*
X0279715Y0068940D02*
X0375340Y0068940D01*
X0375340Y0067342D02*
X0176848Y0067342D01*
X0176766Y0067260D02*
X0177101Y0067596D01*
X0177338Y0068006D01*
X0177461Y0068464D01*
X0177461Y0070780D01*
X0173188Y0070780D01*
X0173188Y0066901D01*
X0175898Y0066901D01*
X0176356Y0067023D01*
X0176766Y0067260D01*
X0177461Y0068940D02*
X0186883Y0068940D01*
X0184731Y0070539D02*
X0177461Y0070539D01*
X0177461Y0072137D02*
X0184099Y0072137D01*
X0184099Y0073736D02*
X0177461Y0073736D01*
X0177077Y0075334D02*
X0184099Y0075334D01*
X0184099Y0076933D02*
X0177261Y0076933D01*
X0177591Y0078532D02*
X0184099Y0078532D01*
X0184593Y0080130D02*
X0179189Y0080130D01*
X0175401Y0086524D02*
X0171275Y0086524D01*
X0169677Y0088123D02*
X0177099Y0088123D01*
X0173802Y0084926D02*
X0172874Y0084926D01*
X0167955Y0073736D02*
X0163377Y0073736D01*
X0164229Y0072137D02*
X0167955Y0072137D01*
X0167955Y0070539D02*
X0164229Y0070539D01*
X0164229Y0068940D02*
X0167955Y0068940D01*
X0168569Y0067342D02*
X0164229Y0067342D01*
X0163840Y0065743D02*
X0375340Y0065743D01*
X0375340Y0064145D02*
X0162747Y0064145D01*
X0161213Y0060948D02*
X0165495Y0060948D01*
X0166520Y0061973D02*
X0163727Y0059180D01*
X0163727Y0057389D01*
X0168311Y0057389D01*
X0168311Y0057020D01*
X0168680Y0057020D01*
X0168680Y0052436D01*
X0170471Y0052436D01*
X0173264Y0055230D01*
X0173264Y0057020D01*
X0168680Y0057020D01*
X0168680Y0057389D01*
X0173264Y0057389D01*
X0173264Y0059180D01*
X0170471Y0061973D01*
X0168680Y0061973D01*
X0168680Y0057389D01*
X0168311Y0057389D01*
X0168311Y0061973D01*
X0166520Y0061973D01*
X0168311Y0060948D02*
X0168680Y0060948D01*
X0168680Y0059349D02*
X0168311Y0059349D01*
X0168311Y0057751D02*
X0168680Y0057751D01*
X0168311Y0057020D02*
X0163727Y0057020D01*
X0163727Y0055230D01*
X0166520Y0052436D01*
X0168311Y0052436D01*
X0168311Y0057020D01*
X0168311Y0056152D02*
X0168680Y0056152D01*
X0168680Y0054554D02*
X0168311Y0054554D01*
X0168311Y0052955D02*
X0168680Y0052955D01*
X0168680Y0051973D02*
X0170471Y0051973D01*
X0173264Y0049180D01*
X0173264Y0047389D01*
X0168680Y0047389D01*
X0168680Y0047020D01*
X0168680Y0042436D01*
X0170471Y0042436D01*
X0173264Y0045230D01*
X0173264Y0047020D01*
X0168680Y0047020D01*
X0168311Y0047020D01*
X0168311Y0042436D01*
X0166520Y0042436D01*
X0163727Y0045230D01*
X0163727Y0047020D01*
X0168311Y0047020D01*
X0168311Y0047389D01*
X0163727Y0047389D01*
X0163727Y0049180D01*
X0166520Y0051973D01*
X0168311Y0051973D01*
X0168311Y0047389D01*
X0168680Y0047389D01*
X0168680Y0051973D01*
X0168680Y0051357D02*
X0168311Y0051357D01*
X0168311Y0049758D02*
X0168680Y0049758D01*
X0168680Y0048160D02*
X0168311Y0048160D01*
X0168311Y0046561D02*
X0168680Y0046561D01*
X0168680Y0044963D02*
X0168311Y0044963D01*
X0168311Y0043364D02*
X0168680Y0043364D01*
X0171399Y0043364D02*
X0175592Y0043364D01*
X0176520Y0042436D02*
X0178311Y0042436D01*
X0178311Y0047020D01*
X0178680Y0047020D01*
X0178680Y0042436D01*
X0180471Y0042436D01*
X0183264Y0045230D01*
X0183264Y0047020D01*
X0178680Y0047020D01*
X0178680Y0047389D01*
X0183264Y0047389D01*
X0183264Y0049180D01*
X0180471Y0051973D01*
X0178680Y0051973D01*
X0178680Y0047389D01*
X0178311Y0047389D01*
X0178311Y0047020D01*
X0173727Y0047020D01*
X0173727Y0045230D01*
X0176520Y0042436D01*
X0178311Y0043364D02*
X0178680Y0043364D01*
X0178680Y0044963D02*
X0178311Y0044963D01*
X0178311Y0046561D02*
X0178680Y0046561D01*
X0178311Y0047389D02*
X0173727Y0047389D01*
X0173727Y0049180D01*
X0176520Y0051973D01*
X0178311Y0051973D01*
X0178311Y0047389D01*
X0178311Y0048160D02*
X0178680Y0048160D01*
X0178680Y0049758D02*
X0178311Y0049758D01*
X0178311Y0051357D02*
X0178680Y0051357D01*
X0178680Y0052436D02*
X0180471Y0052436D01*
X0183264Y0055230D01*
X0183264Y0057020D01*
X0178680Y0057020D01*
X0178680Y0052436D01*
X0178311Y0052436D02*
X0178311Y0057020D01*
X0178680Y0057020D01*
X0178680Y0057389D01*
X0183264Y0057389D01*
X0183264Y0059180D01*
X0180471Y0061973D01*
X0178680Y0061973D01*
X0178680Y0057389D01*
X0178311Y0057389D01*
X0178311Y0057020D01*
X0173727Y0057020D01*
X0173727Y0055230D01*
X0176520Y0052436D01*
X0178311Y0052436D01*
X0178311Y0052955D02*
X0178680Y0052955D01*
X0178680Y0054554D02*
X0178311Y0054554D01*
X0178311Y0056152D02*
X0178680Y0056152D01*
X0178311Y0057389D02*
X0173727Y0057389D01*
X0173727Y0059180D01*
X0176520Y0061973D01*
X0178311Y0061973D01*
X0178311Y0057389D01*
X0178311Y0057751D02*
X0178680Y0057751D01*
X0178680Y0059349D02*
X0178311Y0059349D01*
X0178311Y0060948D02*
X0178680Y0060948D01*
X0181496Y0060948D02*
X0185495Y0060948D01*
X0186520Y0061973D02*
X0183727Y0059180D01*
X0183727Y0057389D01*
X0188311Y0057389D01*
X0188311Y0057020D01*
X0188680Y0057020D01*
X0188680Y0052436D01*
X0190471Y0052436D01*
X0193264Y0055230D01*
X0193264Y0057020D01*
X0188680Y0057020D01*
X0188680Y0057389D01*
X0193264Y0057389D01*
X0193264Y0059180D01*
X0190471Y0061973D01*
X0188680Y0061973D01*
X0188680Y0057389D01*
X0188311Y0057389D01*
X0188311Y0061973D01*
X0186520Y0061973D01*
X0188311Y0060948D02*
X0188680Y0060948D01*
X0188680Y0059349D02*
X0188311Y0059349D01*
X0188311Y0057751D02*
X0188680Y0057751D01*
X0188311Y0057020D02*
X0183727Y0057020D01*
X0183727Y0055230D01*
X0186520Y0052436D01*
X0188311Y0052436D01*
X0188311Y0057020D01*
X0188311Y0056152D02*
X0188680Y0056152D01*
X0188680Y0054554D02*
X0188311Y0054554D01*
X0188311Y0052955D02*
X0188680Y0052955D01*
X0188680Y0051973D02*
X0190471Y0051973D01*
X0193264Y0049180D01*
X0193264Y0047389D01*
X0188680Y0047389D01*
X0188680Y0047020D01*
X0188680Y0042436D01*
X0190471Y0042436D01*
X0193264Y0045230D01*
X0193264Y0047020D01*
X0188680Y0047020D01*
X0188311Y0047020D01*
X0188311Y0042436D01*
X0186520Y0042436D01*
X0183727Y0045230D01*
X0183727Y0047020D01*
X0188311Y0047020D01*
X0188311Y0047389D01*
X0183727Y0047389D01*
X0183727Y0049180D01*
X0186520Y0051973D01*
X0188311Y0051973D01*
X0188311Y0047389D01*
X0188680Y0047389D01*
X0188680Y0051973D01*
X0188680Y0051357D02*
X0188311Y0051357D01*
X0188311Y0049758D02*
X0188680Y0049758D01*
X0188680Y0048160D02*
X0188311Y0048160D01*
X0188311Y0046561D02*
X0188680Y0046561D01*
X0188680Y0044963D02*
X0188311Y0044963D01*
X0188311Y0043364D02*
X0188680Y0043364D01*
X0191399Y0043364D02*
X0195875Y0043364D01*
X0196603Y0042636D02*
X0200388Y0042636D01*
X0203064Y0045312D01*
X0203064Y0049097D01*
X0200388Y0051773D01*
X0196603Y0051773D01*
X0193927Y0049097D01*
X0193927Y0045312D01*
X0196603Y0042636D01*
X0194277Y0044963D02*
X0192997Y0044963D01*
X0193264Y0046561D02*
X0193927Y0046561D01*
X0193927Y0048160D02*
X0193264Y0048160D01*
X0192686Y0049758D02*
X0194588Y0049758D01*
X0196187Y0051357D02*
X0191087Y0051357D01*
X0190990Y0052955D02*
X0196001Y0052955D01*
X0196520Y0052436D02*
X0198311Y0052436D01*
X0198311Y0057020D01*
X0198680Y0057020D01*
X0198680Y0052436D01*
X0200471Y0052436D01*
X0203264Y0055230D01*
X0203264Y0057020D01*
X0198680Y0057020D01*
X0198680Y0057389D01*
X0203264Y0057389D01*
X0203264Y0059180D01*
X0200471Y0061973D01*
X0198680Y0061973D01*
X0198680Y0057389D01*
X0198311Y0057389D01*
X0198311Y0057020D01*
X0193727Y0057020D01*
X0193727Y0055230D01*
X0196520Y0052436D01*
X0198311Y0052955D02*
X0198680Y0052955D01*
X0198680Y0054554D02*
X0198311Y0054554D01*
X0198311Y0056152D02*
X0198680Y0056152D01*
X0198311Y0057389D02*
X0193727Y0057389D01*
X0193727Y0059180D01*
X0196520Y0061973D01*
X0198311Y0061973D01*
X0198311Y0057389D01*
X0198311Y0057751D02*
X0198680Y0057751D01*
X0198680Y0059349D02*
X0198311Y0059349D01*
X0198311Y0060948D02*
X0198680Y0060948D01*
X0201496Y0060948D02*
X0205495Y0060948D01*
X0206520Y0061973D02*
X0203727Y0059180D01*
X0203727Y0057389D01*
X0208311Y0057389D01*
X0208311Y0057020D01*
X0208680Y0057020D01*
X0208680Y0052436D01*
X0210471Y0052436D01*
X0213264Y0055230D01*
X0213264Y0057020D01*
X0208680Y0057020D01*
X0208680Y0057389D01*
X0213264Y0057389D01*
X0213264Y0059180D01*
X0210471Y0061973D01*
X0208680Y0061973D01*
X0208680Y0057389D01*
X0208311Y0057389D01*
X0208311Y0061973D01*
X0206520Y0061973D01*
X0208311Y0060948D02*
X0208680Y0060948D01*
X0208680Y0059349D02*
X0208311Y0059349D01*
X0208311Y0057751D02*
X0208680Y0057751D01*
X0208311Y0057020D02*
X0203727Y0057020D01*
X0203727Y0055230D01*
X0206520Y0052436D01*
X0208311Y0052436D01*
X0208311Y0057020D01*
X0208311Y0056152D02*
X0208680Y0056152D01*
X0208680Y0054554D02*
X0208311Y0054554D01*
X0208311Y0052955D02*
X0208680Y0052955D01*
X0210388Y0051773D02*
X0206603Y0051773D01*
X0203927Y0049097D01*
X0203927Y0045312D01*
X0206603Y0042636D01*
X0210388Y0042636D01*
X0213064Y0045312D01*
X0213064Y0049097D01*
X0210388Y0051773D01*
X0210804Y0051357D02*
X0216187Y0051357D01*
X0216603Y0051773D02*
X0213927Y0049097D01*
X0213927Y0045312D01*
X0216603Y0042636D01*
X0220388Y0042636D01*
X0223064Y0045312D01*
X0223064Y0049097D01*
X0220388Y0051773D01*
X0216603Y0051773D01*
X0216520Y0052436D02*
X0213727Y0055230D01*
X0213727Y0057020D01*
X0218311Y0057020D01*
X0218680Y0057020D01*
X0218680Y0052436D01*
X0220471Y0052436D01*
X0223264Y0055230D01*
X0223264Y0057020D01*
X0218680Y0057020D01*
X0218680Y0057389D01*
X0223264Y0057389D01*
X0223264Y0059180D01*
X0220471Y0061973D01*
X0218680Y0061973D01*
X0218680Y0057389D01*
X0218311Y0057389D01*
X0218311Y0057020D01*
X0218311Y0052436D01*
X0216520Y0052436D01*
X0216001Y0052955D02*
X0210990Y0052955D01*
X0212588Y0054554D02*
X0214403Y0054554D01*
X0213727Y0056152D02*
X0213264Y0056152D01*
X0213727Y0057389D02*
X0218311Y0057389D01*
X0218311Y0061973D01*
X0216520Y0061973D01*
X0213727Y0059180D01*
X0213727Y0057389D01*
X0213727Y0057751D02*
X0213264Y0057751D01*
X0213094Y0059349D02*
X0213896Y0059349D01*
X0215495Y0060948D02*
X0211496Y0060948D01*
X0203896Y0059349D02*
X0203094Y0059349D01*
X0203264Y0057751D02*
X0203727Y0057751D01*
X0203727Y0056152D02*
X0203264Y0056152D01*
X0202588Y0054554D02*
X0204403Y0054554D01*
X0206001Y0052955D02*
X0200990Y0052955D01*
X0200804Y0051357D02*
X0206187Y0051357D01*
X0204588Y0049758D02*
X0202403Y0049758D01*
X0203064Y0048160D02*
X0203927Y0048160D01*
X0203927Y0046561D02*
X0203064Y0046561D01*
X0202714Y0044963D02*
X0204277Y0044963D01*
X0205875Y0043364D02*
X0201116Y0043364D01*
X0211116Y0043364D02*
X0215875Y0043364D01*
X0214277Y0044963D02*
X0212714Y0044963D01*
X0213064Y0046561D02*
X0213927Y0046561D01*
X0213927Y0048160D02*
X0213064Y0048160D01*
X0212403Y0049758D02*
X0214588Y0049758D01*
X0218311Y0052955D02*
X0218680Y0052955D01*
X0218680Y0054554D02*
X0218311Y0054554D01*
X0218311Y0056152D02*
X0218680Y0056152D01*
X0218680Y0057751D02*
X0218311Y0057751D01*
X0218311Y0059349D02*
X0218680Y0059349D01*
X0218680Y0060948D02*
X0218311Y0060948D01*
X0221496Y0060948D02*
X0225495Y0060948D01*
X0226520Y0061973D02*
X0223727Y0059180D01*
X0223727Y0057389D01*
X0228311Y0057389D01*
X0228311Y0057020D01*
X0228680Y0057020D01*
X0228680Y0052436D01*
X0230471Y0052436D01*
X0233264Y0055230D01*
X0233264Y0057020D01*
X0228680Y0057020D01*
X0228680Y0057389D01*
X0233264Y0057389D01*
X0233264Y0059180D01*
X0230471Y0061973D01*
X0228680Y0061973D01*
X0228680Y0057389D01*
X0228311Y0057389D01*
X0228311Y0061973D01*
X0226520Y0061973D01*
X0228311Y0060948D02*
X0228680Y0060948D01*
X0228680Y0059349D02*
X0228311Y0059349D01*
X0228311Y0057751D02*
X0228680Y0057751D01*
X0228311Y0057020D02*
X0223727Y0057020D01*
X0223727Y0055230D01*
X0226520Y0052436D01*
X0228311Y0052436D01*
X0228311Y0057020D01*
X0228311Y0056152D02*
X0228680Y0056152D01*
X0228680Y0054554D02*
X0228311Y0054554D01*
X0228311Y0052955D02*
X0228680Y0052955D01*
X0230388Y0051773D02*
X0226603Y0051773D01*
X0223927Y0049097D01*
X0223927Y0045312D01*
X0226603Y0042636D01*
X0230388Y0042636D01*
X0233064Y0045312D01*
X0233064Y0049097D01*
X0230388Y0051773D01*
X0230804Y0051357D02*
X0236187Y0051357D01*
X0236603Y0051773D02*
X0233927Y0049097D01*
X0233927Y0045312D01*
X0236603Y0042636D01*
X0240388Y0042636D01*
X0243064Y0045312D01*
X0243064Y0049097D01*
X0240388Y0051773D01*
X0236603Y0051773D01*
X0236520Y0052436D02*
X0238311Y0052436D01*
X0238311Y0057020D01*
X0238680Y0057020D01*
X0238680Y0052436D01*
X0240471Y0052436D01*
X0243264Y0055230D01*
X0243264Y0057020D01*
X0238680Y0057020D01*
X0238680Y0057389D01*
X0243264Y0057389D01*
X0243264Y0059180D01*
X0240471Y0061973D01*
X0238680Y0061973D01*
X0238680Y0057389D01*
X0238311Y0057389D01*
X0238311Y0057020D01*
X0233727Y0057020D01*
X0233727Y0055230D01*
X0236520Y0052436D01*
X0236001Y0052955D02*
X0230990Y0052955D01*
X0232588Y0054554D02*
X0234403Y0054554D01*
X0233727Y0056152D02*
X0233264Y0056152D01*
X0233727Y0057389D02*
X0238311Y0057389D01*
X0238311Y0061973D01*
X0236520Y0061973D01*
X0233727Y0059180D01*
X0233727Y0057389D01*
X0233727Y0057751D02*
X0233264Y0057751D01*
X0233094Y0059349D02*
X0233896Y0059349D01*
X0235495Y0060948D02*
X0231496Y0060948D01*
X0229715Y0068940D02*
X0236883Y0068940D01*
X0234731Y0070539D02*
X0231867Y0070539D01*
X0232499Y0072137D02*
X0234099Y0072137D01*
X0234099Y0073736D02*
X0232499Y0073736D01*
X0232499Y0075334D02*
X0234099Y0075334D01*
X0234099Y0076933D02*
X0232499Y0076933D01*
X0232499Y0078532D02*
X0234099Y0078532D01*
X0234593Y0080130D02*
X0232004Y0080130D01*
X0224593Y0080130D02*
X0222004Y0080130D01*
X0222499Y0078532D02*
X0224099Y0078532D01*
X0224099Y0076933D02*
X0222499Y0076933D01*
X0222499Y0075334D02*
X0224099Y0075334D01*
X0224099Y0073736D02*
X0222499Y0073736D01*
X0222499Y0072137D02*
X0224099Y0072137D01*
X0224731Y0070539D02*
X0221867Y0070539D01*
X0219715Y0068940D02*
X0226883Y0068940D01*
X0223896Y0059349D02*
X0223094Y0059349D01*
X0223264Y0057751D02*
X0223727Y0057751D01*
X0223727Y0056152D02*
X0223264Y0056152D01*
X0222588Y0054554D02*
X0224403Y0054554D01*
X0226001Y0052955D02*
X0220990Y0052955D01*
X0220804Y0051357D02*
X0226187Y0051357D01*
X0224588Y0049758D02*
X0222403Y0049758D01*
X0223064Y0048160D02*
X0223927Y0048160D01*
X0223927Y0046561D02*
X0223064Y0046561D01*
X0222714Y0044963D02*
X0224277Y0044963D01*
X0225875Y0043364D02*
X0221116Y0043364D01*
X0231116Y0043364D02*
X0235875Y0043364D01*
X0234277Y0044963D02*
X0232714Y0044963D01*
X0233064Y0046561D02*
X0233927Y0046561D01*
X0233927Y0048160D02*
X0233064Y0048160D01*
X0232403Y0049758D02*
X0234588Y0049758D01*
X0238311Y0052955D02*
X0238680Y0052955D01*
X0238680Y0054554D02*
X0238311Y0054554D01*
X0238311Y0056152D02*
X0238680Y0056152D01*
X0238680Y0057751D02*
X0238311Y0057751D01*
X0238311Y0059349D02*
X0238680Y0059349D01*
X0238680Y0060948D02*
X0238311Y0060948D01*
X0241496Y0060948D02*
X0245495Y0060948D01*
X0246520Y0061973D02*
X0243727Y0059180D01*
X0243727Y0057389D01*
X0248311Y0057389D01*
X0248311Y0057020D01*
X0248680Y0057020D01*
X0248680Y0052436D01*
X0250471Y0052436D01*
X0253264Y0055230D01*
X0253264Y0057020D01*
X0248680Y0057020D01*
X0248680Y0057389D01*
X0253264Y0057389D01*
X0253264Y0059180D01*
X0250471Y0061973D01*
X0248680Y0061973D01*
X0248680Y0057389D01*
X0248311Y0057389D01*
X0248311Y0061973D01*
X0246520Y0061973D01*
X0248311Y0060948D02*
X0248680Y0060948D01*
X0248680Y0059349D02*
X0248311Y0059349D01*
X0248311Y0057751D02*
X0248680Y0057751D01*
X0248311Y0057020D02*
X0243727Y0057020D01*
X0243727Y0055230D01*
X0246520Y0052436D01*
X0248311Y0052436D01*
X0248311Y0057020D01*
X0248311Y0056152D02*
X0248680Y0056152D01*
X0248680Y0054554D02*
X0248311Y0054554D01*
X0248311Y0052955D02*
X0248680Y0052955D01*
X0250388Y0051773D02*
X0246603Y0051773D01*
X0243927Y0049097D01*
X0243927Y0045312D01*
X0246603Y0042636D01*
X0250388Y0042636D01*
X0253064Y0045312D01*
X0253064Y0049097D01*
X0250388Y0051773D01*
X0250804Y0051357D02*
X0256187Y0051357D01*
X0256603Y0051773D02*
X0253927Y0049097D01*
X0253927Y0045312D01*
X0256603Y0042636D01*
X0260388Y0042636D01*
X0263064Y0045312D01*
X0263064Y0049097D01*
X0260388Y0051773D01*
X0256603Y0051773D01*
X0256520Y0052436D02*
X0258311Y0052436D01*
X0258311Y0057020D01*
X0258680Y0057020D01*
X0258680Y0052436D01*
X0260471Y0052436D01*
X0263264Y0055230D01*
X0263264Y0057020D01*
X0258680Y0057020D01*
X0258680Y0057389D01*
X0263264Y0057389D01*
X0263264Y0059180D01*
X0260471Y0061973D01*
X0258680Y0061973D01*
X0258680Y0057389D01*
X0258311Y0057389D01*
X0258311Y0057020D01*
X0253727Y0057020D01*
X0253727Y0055230D01*
X0256520Y0052436D01*
X0256001Y0052955D02*
X0250990Y0052955D01*
X0252588Y0054554D02*
X0254403Y0054554D01*
X0253727Y0056152D02*
X0253264Y0056152D01*
X0253727Y0057389D02*
X0253727Y0059180D01*
X0256520Y0061973D01*
X0258311Y0061973D01*
X0258311Y0057389D01*
X0253727Y0057389D01*
X0253727Y0057751D02*
X0253264Y0057751D01*
X0253094Y0059349D02*
X0253896Y0059349D01*
X0255495Y0060948D02*
X0251496Y0060948D01*
X0249715Y0068940D02*
X0256883Y0068940D01*
X0254731Y0070539D02*
X0251867Y0070539D01*
X0252499Y0072137D02*
X0254099Y0072137D01*
X0254099Y0073736D02*
X0252499Y0073736D01*
X0252499Y0075334D02*
X0254099Y0075334D01*
X0254099Y0076933D02*
X0252499Y0076933D01*
X0252499Y0078532D02*
X0254099Y0078532D01*
X0254593Y0080130D02*
X0252004Y0080130D01*
X0244593Y0080130D02*
X0242004Y0080130D01*
X0242499Y0078532D02*
X0244099Y0078532D01*
X0244099Y0076933D02*
X0242499Y0076933D01*
X0242499Y0075334D02*
X0244099Y0075334D01*
X0244099Y0073736D02*
X0242499Y0073736D01*
X0242499Y0072137D02*
X0244099Y0072137D01*
X0244731Y0070539D02*
X0241867Y0070539D01*
X0239715Y0068940D02*
X0246883Y0068940D01*
X0243896Y0059349D02*
X0243094Y0059349D01*
X0243264Y0057751D02*
X0243727Y0057751D01*
X0243727Y0056152D02*
X0243264Y0056152D01*
X0242588Y0054554D02*
X0244403Y0054554D01*
X0246001Y0052955D02*
X0240990Y0052955D01*
X0240804Y0051357D02*
X0246187Y0051357D01*
X0244588Y0049758D02*
X0242403Y0049758D01*
X0243064Y0048160D02*
X0243927Y0048160D01*
X0243927Y0046561D02*
X0243064Y0046561D01*
X0242714Y0044963D02*
X0244277Y0044963D01*
X0245875Y0043364D02*
X0241116Y0043364D01*
X0251116Y0043364D02*
X0255875Y0043364D01*
X0254277Y0044963D02*
X0252714Y0044963D01*
X0253064Y0046561D02*
X0253927Y0046561D01*
X0253927Y0048160D02*
X0253064Y0048160D01*
X0252403Y0049758D02*
X0254588Y0049758D01*
X0258311Y0052955D02*
X0258680Y0052955D01*
X0258680Y0054554D02*
X0258311Y0054554D01*
X0258311Y0056152D02*
X0258680Y0056152D01*
X0258680Y0057751D02*
X0258311Y0057751D01*
X0258311Y0059349D02*
X0258680Y0059349D01*
X0258680Y0060948D02*
X0258311Y0060948D01*
X0261496Y0060948D02*
X0265495Y0060948D01*
X0263896Y0059349D02*
X0263094Y0059349D01*
X0263264Y0057751D02*
X0263727Y0057751D01*
X0263727Y0056152D02*
X0263264Y0056152D01*
X0262588Y0054554D02*
X0264403Y0054554D01*
X0266001Y0052955D02*
X0260990Y0052955D01*
X0260804Y0051357D02*
X0266187Y0051357D01*
X0264588Y0049758D02*
X0262403Y0049758D01*
X0263064Y0048160D02*
X0263927Y0048160D01*
X0263927Y0046561D02*
X0263064Y0046561D01*
X0262714Y0044963D02*
X0264277Y0044963D01*
X0265875Y0043364D02*
X0261116Y0043364D01*
X0259715Y0068940D02*
X0266883Y0068940D01*
X0264731Y0070539D02*
X0261867Y0070539D01*
X0262499Y0072137D02*
X0264099Y0072137D01*
X0264099Y0073736D02*
X0262499Y0073736D01*
X0262499Y0075334D02*
X0264099Y0075334D01*
X0264099Y0076933D02*
X0262499Y0076933D01*
X0262499Y0078532D02*
X0264099Y0078532D01*
X0264593Y0080130D02*
X0262004Y0080130D01*
X0256107Y0094517D02*
X0367393Y0094517D01*
X0368992Y0092918D02*
X0012508Y0092918D01*
X0012508Y0091320D02*
X0370590Y0091320D01*
X0375340Y0083327D02*
X0279472Y0083327D01*
X0281140Y0081729D02*
X0375340Y0081729D01*
X0375340Y0080130D02*
X0282137Y0080130D01*
X0282499Y0078532D02*
X0375340Y0078532D01*
X0375340Y0076933D02*
X0282499Y0076933D01*
X0282499Y0075334D02*
X0375340Y0075334D01*
X0375340Y0073736D02*
X0282499Y0073736D01*
X0282499Y0072137D02*
X0375340Y0072137D01*
X0375340Y0070539D02*
X0281867Y0070539D01*
X0256808Y0104108D02*
X0402908Y0104108D01*
X0402908Y0105706D02*
X0256808Y0105706D01*
X0248608Y0105706D02*
X0247008Y0105706D01*
X0247008Y0104108D02*
X0248608Y0104108D01*
X0248608Y0102509D02*
X0247931Y0102509D01*
X0248608Y0107305D02*
X0247008Y0107305D01*
X0247008Y0108903D02*
X0248608Y0108903D01*
X0248608Y0110502D02*
X0247008Y0110502D01*
X0247008Y0112100D02*
X0248608Y0112100D01*
X0248140Y0113699D02*
X0247477Y0113699D01*
X0247477Y0115297D02*
X0248140Y0115297D01*
X0248143Y0116896D02*
X0247477Y0116896D01*
X0247008Y0118494D02*
X0249742Y0118494D01*
X0238408Y0107305D02*
X0237525Y0107305D01*
X0238183Y0105706D02*
X0238408Y0105706D01*
X0238408Y0104108D02*
X0238141Y0104108D01*
X0238408Y0102509D02*
X0237338Y0102509D01*
X0238408Y0100911D02*
X0235153Y0100911D01*
X0234999Y0100975D02*
X0233417Y0100975D01*
X0231957Y0100370D01*
X0230987Y0099400D01*
X0215929Y0099400D01*
X0214960Y0100370D01*
X0213499Y0100975D01*
X0211917Y0100975D01*
X0210457Y0100370D01*
X0209338Y0099252D01*
X0208733Y0097791D01*
X0208733Y0096209D01*
X0209338Y0094748D01*
X0210457Y0093630D01*
X0211917Y0093025D01*
X0213499Y0093025D01*
X0214960Y0093630D01*
X0215929Y0094600D01*
X0230987Y0094600D01*
X0231957Y0093630D01*
X0233417Y0093025D01*
X0234999Y0093025D01*
X0236460Y0093630D01*
X0237578Y0094748D01*
X0238183Y0096209D01*
X0238183Y0097791D01*
X0237578Y0099252D01*
X0236460Y0100370D01*
X0234999Y0100975D01*
X0233263Y0100911D02*
X0213653Y0100911D01*
X0211763Y0100911D02*
X0012508Y0100911D01*
X0012508Y0102509D02*
X0199578Y0102509D01*
X0198775Y0104108D02*
X0174786Y0104108D01*
X0176384Y0105706D02*
X0198733Y0105706D01*
X0199392Y0107305D02*
X0177983Y0107305D01*
X0192708Y0115000D02*
X0212708Y0135000D01*
X0212385Y0131282D02*
X0303032Y0131282D01*
X0304630Y0129684D02*
X0210786Y0129684D01*
X0209188Y0128085D02*
X0234995Y0128085D01*
X0233397Y0126487D02*
X0207589Y0126487D01*
X0205991Y0124888D02*
X0231798Y0124888D01*
X0230200Y0123290D02*
X0204392Y0123290D01*
X0215675Y0118494D02*
X0219742Y0118494D01*
X0220816Y0119568D02*
X0218140Y0116892D01*
X0218140Y0113108D01*
X0220816Y0110431D01*
X0224600Y0110431D01*
X0227277Y0113108D01*
X0227277Y0116892D01*
X0224600Y0119568D01*
X0220816Y0119568D01*
X0218143Y0116896D02*
X0217273Y0116896D01*
X0217277Y0115297D02*
X0218140Y0115297D01*
X0218140Y0113699D02*
X0217277Y0113699D01*
X0216269Y0112100D02*
X0219147Y0112100D01*
X0220745Y0110502D02*
X0214671Y0110502D01*
X0209399Y0099312D02*
X0012508Y0099312D01*
X0012508Y0097714D02*
X0208733Y0097714D01*
X0208772Y0096115D02*
X0012508Y0096115D01*
X0012508Y0094517D02*
X0209570Y0094517D01*
X0212708Y0097000D02*
X0234208Y0097000D01*
X0231070Y0094517D02*
X0215846Y0094517D01*
X0205838Y0102509D02*
X0231078Y0102509D01*
X0234208Y0105000D02*
X0202708Y0105000D01*
X0202004Y0080130D02*
X0204593Y0080130D01*
X0204099Y0078532D02*
X0202499Y0078532D01*
X0202499Y0076933D02*
X0204099Y0076933D01*
X0204099Y0075334D02*
X0202499Y0075334D01*
X0202499Y0073736D02*
X0204099Y0073736D01*
X0204099Y0072137D02*
X0202499Y0072137D01*
X0201867Y0070539D02*
X0204731Y0070539D01*
X0206883Y0068940D02*
X0199715Y0068940D01*
X0196883Y0068940D02*
X0189715Y0068940D01*
X0191867Y0070539D02*
X0194731Y0070539D01*
X0194099Y0072137D02*
X0192499Y0072137D01*
X0192499Y0073736D02*
X0194099Y0073736D01*
X0194099Y0075334D02*
X0192499Y0075334D01*
X0192499Y0076933D02*
X0194099Y0076933D01*
X0194099Y0078532D02*
X0192499Y0078532D01*
X0192004Y0080130D02*
X0194593Y0080130D01*
X0195495Y0060948D02*
X0191496Y0060948D01*
X0193094Y0059349D02*
X0193896Y0059349D01*
X0193727Y0057751D02*
X0193264Y0057751D01*
X0193264Y0056152D02*
X0193727Y0056152D01*
X0194403Y0054554D02*
X0192588Y0054554D01*
X0186001Y0052955D02*
X0180990Y0052955D01*
X0181087Y0051357D02*
X0185904Y0051357D01*
X0184305Y0049758D02*
X0182686Y0049758D01*
X0183264Y0048160D02*
X0183727Y0048160D01*
X0183727Y0046561D02*
X0183264Y0046561D01*
X0182997Y0044963D02*
X0183994Y0044963D01*
X0185592Y0043364D02*
X0181399Y0043364D01*
X0175904Y0051357D02*
X0171087Y0051357D01*
X0170990Y0052955D02*
X0176001Y0052955D01*
X0174403Y0054554D02*
X0172588Y0054554D01*
X0173264Y0056152D02*
X0173727Y0056152D01*
X0173727Y0057751D02*
X0173264Y0057751D01*
X0173094Y0059349D02*
X0173896Y0059349D01*
X0175495Y0060948D02*
X0171496Y0060948D01*
X0172229Y0067342D02*
X0173188Y0067342D01*
X0173188Y0068940D02*
X0172229Y0068940D01*
X0172229Y0070539D02*
X0173188Y0070539D01*
X0163896Y0059349D02*
X0162812Y0059349D01*
X0163064Y0057751D02*
X0163727Y0057751D01*
X0163727Y0056152D02*
X0163064Y0056152D01*
X0162305Y0054554D02*
X0164403Y0054554D01*
X0166001Y0052955D02*
X0160707Y0052955D01*
X0160804Y0051357D02*
X0165904Y0051357D01*
X0164305Y0049758D02*
X0162403Y0049758D01*
X0163064Y0048160D02*
X0163727Y0048160D01*
X0163727Y0046561D02*
X0163064Y0046561D01*
X0162714Y0044963D02*
X0163994Y0044963D01*
X0165592Y0043364D02*
X0161116Y0043364D01*
X0155875Y0043364D02*
X0151399Y0043364D01*
X0150471Y0042436D02*
X0153264Y0045230D01*
X0153264Y0047020D01*
X0148680Y0047020D01*
X0148680Y0042436D01*
X0150471Y0042436D01*
X0148680Y0043364D02*
X0148311Y0043364D01*
X0148311Y0042436D02*
X0148311Y0047020D01*
X0148680Y0047020D01*
X0148680Y0047389D01*
X0148311Y0047389D01*
X0148311Y0047020D01*
X0143727Y0047020D01*
X0143727Y0045230D01*
X0146520Y0042436D01*
X0148311Y0042436D01*
X0148311Y0044963D02*
X0148680Y0044963D01*
X0148680Y0046561D02*
X0148311Y0046561D01*
X0148311Y0047389D02*
X0143727Y0047389D01*
X0143727Y0049180D01*
X0146520Y0051973D01*
X0148311Y0051973D01*
X0148311Y0047389D01*
X0148311Y0048160D02*
X0148680Y0048160D01*
X0148680Y0049758D02*
X0148311Y0049758D01*
X0148311Y0051357D02*
X0148680Y0051357D01*
X0148311Y0052436D02*
X0148311Y0057020D01*
X0143727Y0057020D01*
X0143727Y0055230D01*
X0146520Y0052436D01*
X0148311Y0052436D01*
X0148311Y0052955D02*
X0148680Y0052955D01*
X0148680Y0054554D02*
X0148311Y0054554D01*
X0148311Y0056152D02*
X0148680Y0056152D01*
X0148311Y0057389D02*
X0143727Y0057389D01*
X0143727Y0059180D01*
X0146520Y0061973D01*
X0148311Y0061973D01*
X0148311Y0057389D01*
X0148311Y0057751D02*
X0148680Y0057751D01*
X0148680Y0059349D02*
X0148311Y0059349D01*
X0148311Y0060948D02*
X0148680Y0060948D01*
X0145495Y0060948D02*
X0141496Y0060948D01*
X0140471Y0061973D02*
X0143264Y0059180D01*
X0143264Y0057389D01*
X0138680Y0057389D01*
X0138680Y0057020D01*
X0138680Y0052436D01*
X0140471Y0052436D01*
X0143264Y0055230D01*
X0143264Y0057020D01*
X0138680Y0057020D01*
X0138311Y0057020D01*
X0138311Y0052436D01*
X0136520Y0052436D01*
X0133727Y0055230D01*
X0133727Y0057020D01*
X0138311Y0057020D01*
X0138311Y0057389D01*
X0133727Y0057389D01*
X0133727Y0059180D01*
X0136520Y0061973D01*
X0138311Y0061973D01*
X0138311Y0057389D01*
X0138680Y0057389D01*
X0138680Y0061973D01*
X0140471Y0061973D01*
X0138680Y0060948D02*
X0138311Y0060948D01*
X0138311Y0059349D02*
X0138680Y0059349D01*
X0138680Y0057751D02*
X0138311Y0057751D01*
X0138311Y0056152D02*
X0138680Y0056152D01*
X0138680Y0054554D02*
X0138311Y0054554D01*
X0138311Y0052955D02*
X0138680Y0052955D01*
X0138680Y0051973D02*
X0140471Y0051973D01*
X0143264Y0049180D01*
X0143264Y0047389D01*
X0138680Y0047389D01*
X0138680Y0047020D01*
X0138680Y0042436D01*
X0140471Y0042436D01*
X0143264Y0045230D01*
X0143264Y0047020D01*
X0138680Y0047020D01*
X0138311Y0047020D01*
X0138311Y0042436D01*
X0136520Y0042436D01*
X0133727Y0045230D01*
X0133727Y0047020D01*
X0138311Y0047020D01*
X0138311Y0047389D01*
X0133727Y0047389D01*
X0133727Y0049180D01*
X0136520Y0051973D01*
X0138311Y0051973D01*
X0138311Y0047389D01*
X0138680Y0047389D01*
X0138680Y0051973D01*
X0138680Y0051357D02*
X0138311Y0051357D01*
X0138311Y0049758D02*
X0138680Y0049758D01*
X0138680Y0048160D02*
X0138311Y0048160D01*
X0138311Y0046561D02*
X0138680Y0046561D01*
X0138680Y0044963D02*
X0138311Y0044963D01*
X0138311Y0043364D02*
X0138680Y0043364D01*
X0141399Y0043364D02*
X0145592Y0043364D01*
X0143994Y0044963D02*
X0142997Y0044963D01*
X0143264Y0046561D02*
X0143727Y0046561D01*
X0143727Y0048160D02*
X0143264Y0048160D01*
X0142686Y0049758D02*
X0144305Y0049758D01*
X0145904Y0051357D02*
X0141087Y0051357D01*
X0140990Y0052955D02*
X0146001Y0052955D01*
X0144403Y0054554D02*
X0142588Y0054554D01*
X0143264Y0056152D02*
X0143727Y0056152D01*
X0143727Y0057751D02*
X0143264Y0057751D01*
X0143094Y0059349D02*
X0143896Y0059349D01*
X0135495Y0060948D02*
X0131496Y0060948D01*
X0130471Y0061973D02*
X0128680Y0061973D01*
X0128680Y0057389D01*
X0133264Y0057389D01*
X0133264Y0059180D01*
X0130471Y0061973D01*
X0128680Y0060948D02*
X0128311Y0060948D01*
X0128311Y0061973D02*
X0126520Y0061973D01*
X0123727Y0059180D01*
X0123727Y0057389D01*
X0128311Y0057389D01*
X0128311Y0057020D01*
X0128680Y0057020D01*
X0128680Y0052436D01*
X0130471Y0052436D01*
X0133264Y0055230D01*
X0133264Y0057020D01*
X0128680Y0057020D01*
X0128680Y0057389D01*
X0128311Y0057389D01*
X0128311Y0061973D01*
X0128311Y0059349D02*
X0128680Y0059349D01*
X0128680Y0057751D02*
X0128311Y0057751D01*
X0128311Y0057020D02*
X0123727Y0057020D01*
X0123727Y0055230D01*
X0126520Y0052436D01*
X0128311Y0052436D01*
X0128311Y0057020D01*
X0128311Y0056152D02*
X0128680Y0056152D01*
X0128680Y0054554D02*
X0128311Y0054554D01*
X0128311Y0052955D02*
X0128680Y0052955D01*
X0130388Y0051773D02*
X0126603Y0051773D01*
X0123927Y0049097D01*
X0123927Y0045312D01*
X0126603Y0042636D01*
X0130388Y0042636D01*
X0133064Y0045312D01*
X0133064Y0049097D01*
X0130388Y0051773D01*
X0130804Y0051357D02*
X0135904Y0051357D01*
X0136001Y0052955D02*
X0130990Y0052955D01*
X0132588Y0054554D02*
X0134403Y0054554D01*
X0133727Y0056152D02*
X0133264Y0056152D01*
X0133264Y0057751D02*
X0133727Y0057751D01*
X0133896Y0059349D02*
X0133094Y0059349D01*
X0125495Y0060948D02*
X0121496Y0060948D01*
X0120471Y0061973D02*
X0123264Y0059180D01*
X0123264Y0057389D01*
X0118680Y0057389D01*
X0118680Y0057020D01*
X0118680Y0052436D01*
X0120471Y0052436D01*
X0123264Y0055230D01*
X0123264Y0057020D01*
X0118680Y0057020D01*
X0118311Y0057020D01*
X0118311Y0052436D01*
X0116520Y0052436D01*
X0113727Y0055230D01*
X0113727Y0057020D01*
X0118311Y0057020D01*
X0118311Y0057389D01*
X0113727Y0057389D01*
X0113727Y0059180D01*
X0116520Y0061973D01*
X0118311Y0061973D01*
X0118311Y0057389D01*
X0118680Y0057389D01*
X0118680Y0061973D01*
X0120471Y0061973D01*
X0118680Y0060948D02*
X0118311Y0060948D01*
X0118311Y0059349D02*
X0118680Y0059349D01*
X0118680Y0057751D02*
X0118311Y0057751D01*
X0118311Y0056152D02*
X0118680Y0056152D01*
X0118680Y0054554D02*
X0118311Y0054554D01*
X0118311Y0052955D02*
X0118680Y0052955D01*
X0118680Y0051973D02*
X0120471Y0051973D01*
X0123264Y0049180D01*
X0123264Y0047389D01*
X0118680Y0047389D01*
X0118680Y0047020D01*
X0118680Y0042436D01*
X0120471Y0042436D01*
X0123264Y0045230D01*
X0123264Y0047020D01*
X0118680Y0047020D01*
X0118311Y0047020D01*
X0118311Y0042436D01*
X0116520Y0042436D01*
X0113727Y0045230D01*
X0113727Y0047020D01*
X0118311Y0047020D01*
X0118311Y0047389D01*
X0113727Y0047389D01*
X0113727Y0049180D01*
X0116520Y0051973D01*
X0118311Y0051973D01*
X0118311Y0047389D01*
X0118680Y0047389D01*
X0118680Y0051973D01*
X0118680Y0051357D02*
X0118311Y0051357D01*
X0118311Y0049758D02*
X0118680Y0049758D01*
X0118680Y0048160D02*
X0118311Y0048160D01*
X0118311Y0046561D02*
X0118680Y0046561D01*
X0118680Y0044963D02*
X0118311Y0044963D01*
X0118311Y0043364D02*
X0118680Y0043364D01*
X0121399Y0043364D02*
X0125875Y0043364D01*
X0124277Y0044963D02*
X0122997Y0044963D01*
X0123264Y0046561D02*
X0123927Y0046561D01*
X0123927Y0048160D02*
X0123264Y0048160D01*
X0122686Y0049758D02*
X0124588Y0049758D01*
X0126187Y0051357D02*
X0121087Y0051357D01*
X0120990Y0052955D02*
X0126001Y0052955D01*
X0124403Y0054554D02*
X0122588Y0054554D01*
X0123264Y0056152D02*
X0123727Y0056152D01*
X0123727Y0057751D02*
X0123264Y0057751D01*
X0123094Y0059349D02*
X0123896Y0059349D01*
X0115495Y0060948D02*
X0111496Y0060948D01*
X0110471Y0061973D02*
X0108680Y0061973D01*
X0108680Y0057389D01*
X0113264Y0057389D01*
X0113264Y0059180D01*
X0110471Y0061973D01*
X0108680Y0060948D02*
X0108311Y0060948D01*
X0108311Y0061973D02*
X0106520Y0061973D01*
X0103727Y0059180D01*
X0103727Y0057389D01*
X0108311Y0057389D01*
X0108311Y0057020D01*
X0108680Y0057020D01*
X0108680Y0052436D01*
X0110471Y0052436D01*
X0113264Y0055230D01*
X0113264Y0057020D01*
X0108680Y0057020D01*
X0108680Y0057389D01*
X0108311Y0057389D01*
X0108311Y0061973D01*
X0108311Y0059349D02*
X0108680Y0059349D01*
X0108680Y0057751D02*
X0108311Y0057751D01*
X0108311Y0057020D02*
X0103727Y0057020D01*
X0103727Y0055230D01*
X0106520Y0052436D01*
X0108311Y0052436D01*
X0108311Y0057020D01*
X0108311Y0056152D02*
X0108680Y0056152D01*
X0108680Y0054554D02*
X0108311Y0054554D01*
X0108311Y0052955D02*
X0108680Y0052955D01*
X0110388Y0051773D02*
X0106603Y0051773D01*
X0103927Y0049097D01*
X0103927Y0045312D01*
X0106603Y0042636D01*
X0110388Y0042636D01*
X0113064Y0045312D01*
X0113064Y0049097D01*
X0110388Y0051773D01*
X0110804Y0051357D02*
X0115904Y0051357D01*
X0116001Y0052955D02*
X0110990Y0052955D01*
X0112588Y0054554D02*
X0114403Y0054554D01*
X0113727Y0056152D02*
X0113264Y0056152D01*
X0113264Y0057751D02*
X0113727Y0057751D01*
X0113896Y0059349D02*
X0113094Y0059349D01*
X0112276Y0070539D02*
X0115140Y0070539D01*
X0114508Y0072137D02*
X0112908Y0072137D01*
X0112908Y0073736D02*
X0114508Y0073736D01*
X0114508Y0075334D02*
X0112908Y0075334D01*
X0112908Y0076933D02*
X0114508Y0076933D01*
X0114508Y0078532D02*
X0112908Y0078532D01*
X0112413Y0080130D02*
X0115003Y0080130D01*
X0116493Y0081729D02*
X0110923Y0081729D01*
X0106493Y0081729D02*
X0100923Y0081729D01*
X0102413Y0080130D02*
X0105003Y0080130D01*
X0104508Y0078532D02*
X0102908Y0078532D01*
X0102908Y0076933D02*
X0104508Y0076933D01*
X0104508Y0075334D02*
X0102908Y0075334D01*
X0102908Y0073736D02*
X0104508Y0073736D01*
X0104508Y0072137D02*
X0102908Y0072137D01*
X0102276Y0070539D02*
X0105140Y0070539D01*
X0105495Y0060948D02*
X0101496Y0060948D01*
X0100471Y0061973D02*
X0098680Y0061973D01*
X0098680Y0057389D01*
X0103264Y0057389D01*
X0103264Y0059180D01*
X0100471Y0061973D01*
X0098680Y0060948D02*
X0098311Y0060948D01*
X0098311Y0061973D02*
X0096520Y0061973D01*
X0093727Y0059180D01*
X0093727Y0057389D01*
X0098311Y0057389D01*
X0098311Y0057020D01*
X0098680Y0057020D01*
X0098680Y0052436D01*
X0100471Y0052436D01*
X0103264Y0055230D01*
X0103264Y0057020D01*
X0098680Y0057020D01*
X0098680Y0057389D01*
X0098311Y0057389D01*
X0098311Y0061973D01*
X0098311Y0059349D02*
X0098680Y0059349D01*
X0098680Y0057751D02*
X0098311Y0057751D01*
X0098311Y0057020D02*
X0093727Y0057020D01*
X0093727Y0055230D01*
X0096520Y0052436D01*
X0098311Y0052436D01*
X0098311Y0057020D01*
X0098311Y0056152D02*
X0098680Y0056152D01*
X0098680Y0054554D02*
X0098311Y0054554D01*
X0098311Y0052955D02*
X0098680Y0052955D01*
X0100388Y0051773D02*
X0096603Y0051773D01*
X0093927Y0049097D01*
X0093927Y0045312D01*
X0096603Y0042636D01*
X0100388Y0042636D01*
X0103064Y0045312D01*
X0103064Y0049097D01*
X0100388Y0051773D01*
X0100804Y0051357D02*
X0106187Y0051357D01*
X0106001Y0052955D02*
X0100990Y0052955D01*
X0102588Y0054554D02*
X0104403Y0054554D01*
X0103727Y0056152D02*
X0103264Y0056152D01*
X0103264Y0057751D02*
X0103727Y0057751D01*
X0103896Y0059349D02*
X0103094Y0059349D01*
X0096001Y0052955D02*
X0090990Y0052955D01*
X0090471Y0052436D02*
X0093264Y0055230D01*
X0093264Y0057020D01*
X0088680Y0057020D01*
X0088680Y0052436D01*
X0090471Y0052436D01*
X0090388Y0051773D02*
X0086603Y0051773D01*
X0083927Y0049097D01*
X0083927Y0045312D01*
X0086603Y0042636D01*
X0090388Y0042636D01*
X0093064Y0045312D01*
X0093064Y0049097D01*
X0090388Y0051773D01*
X0090804Y0051357D02*
X0096187Y0051357D01*
X0094588Y0049758D02*
X0092403Y0049758D01*
X0093064Y0048160D02*
X0093927Y0048160D01*
X0093927Y0046561D02*
X0093064Y0046561D01*
X0092714Y0044963D02*
X0094277Y0044963D01*
X0095875Y0043364D02*
X0091116Y0043364D01*
X0085875Y0043364D02*
X0081116Y0043364D01*
X0080388Y0042636D02*
X0083064Y0045312D01*
X0083064Y0049097D01*
X0080388Y0051773D01*
X0076603Y0051773D01*
X0073927Y0049097D01*
X0073927Y0045312D01*
X0076603Y0042636D01*
X0080388Y0042636D01*
X0082714Y0044963D02*
X0084277Y0044963D01*
X0083927Y0046561D02*
X0083064Y0046561D01*
X0083064Y0048160D02*
X0083927Y0048160D01*
X0084588Y0049758D02*
X0082403Y0049758D01*
X0080804Y0051357D02*
X0086187Y0051357D01*
X0086520Y0052436D02*
X0088311Y0052436D01*
X0088311Y0057020D01*
X0088680Y0057020D01*
X0088680Y0057389D01*
X0093264Y0057389D01*
X0093264Y0059180D01*
X0090471Y0061973D01*
X0088680Y0061973D01*
X0088680Y0057389D01*
X0088311Y0057389D01*
X0088311Y0057020D01*
X0083727Y0057020D01*
X0083727Y0055230D01*
X0086520Y0052436D01*
X0086001Y0052955D02*
X0080990Y0052955D01*
X0080471Y0052436D02*
X0083264Y0055230D01*
X0083264Y0057020D01*
X0078680Y0057020D01*
X0078680Y0052436D01*
X0080471Y0052436D01*
X0078680Y0052955D02*
X0078311Y0052955D01*
X0078311Y0052436D02*
X0078311Y0057020D01*
X0078680Y0057020D01*
X0078680Y0057389D01*
X0083264Y0057389D01*
X0083264Y0059180D01*
X0080471Y0061973D01*
X0078680Y0061973D01*
X0078680Y0057389D01*
X0078311Y0057389D01*
X0078311Y0057020D01*
X0073727Y0057020D01*
X0073727Y0055230D01*
X0076520Y0052436D01*
X0078311Y0052436D01*
X0078311Y0054554D02*
X0078680Y0054554D01*
X0078680Y0056152D02*
X0078311Y0056152D01*
X0078311Y0057389D02*
X0073727Y0057389D01*
X0073727Y0059180D01*
X0076520Y0061973D01*
X0078311Y0061973D01*
X0078311Y0057389D01*
X0078311Y0057751D02*
X0078680Y0057751D01*
X0078680Y0059349D02*
X0078311Y0059349D01*
X0078311Y0060948D02*
X0078680Y0060948D01*
X0081496Y0060948D02*
X0085495Y0060948D01*
X0086520Y0061973D02*
X0083727Y0059180D01*
X0083727Y0057389D01*
X0088311Y0057389D01*
X0088311Y0061973D01*
X0086520Y0061973D01*
X0088311Y0060948D02*
X0088680Y0060948D01*
X0088680Y0059349D02*
X0088311Y0059349D01*
X0088311Y0057751D02*
X0088680Y0057751D01*
X0088680Y0056152D02*
X0088311Y0056152D01*
X0088311Y0054554D02*
X0088680Y0054554D01*
X0088680Y0052955D02*
X0088311Y0052955D01*
X0084403Y0054554D02*
X0082588Y0054554D01*
X0083264Y0056152D02*
X0083727Y0056152D01*
X0083727Y0057751D02*
X0083264Y0057751D01*
X0083094Y0059349D02*
X0083896Y0059349D01*
X0085140Y0070539D02*
X0082276Y0070539D01*
X0082908Y0072137D02*
X0084508Y0072137D01*
X0084508Y0073736D02*
X0082908Y0073736D01*
X0082908Y0075334D02*
X0084508Y0075334D01*
X0084508Y0076933D02*
X0082908Y0076933D01*
X0082908Y0078532D02*
X0084508Y0078532D01*
X0085003Y0080130D02*
X0082413Y0080130D01*
X0080923Y0081729D02*
X0086493Y0081729D01*
X0090923Y0081729D02*
X0096493Y0081729D01*
X0095003Y0080130D02*
X0092413Y0080130D01*
X0092908Y0078532D02*
X0094508Y0078532D01*
X0094508Y0076933D02*
X0092908Y0076933D01*
X0092908Y0075334D02*
X0094508Y0075334D01*
X0094508Y0073736D02*
X0092908Y0073736D01*
X0092908Y0072137D02*
X0094508Y0072137D01*
X0095140Y0070539D02*
X0092276Y0070539D01*
X0091496Y0060948D02*
X0095495Y0060948D01*
X0093896Y0059349D02*
X0093094Y0059349D01*
X0093264Y0057751D02*
X0093727Y0057751D01*
X0093727Y0056152D02*
X0093264Y0056152D01*
X0092588Y0054554D02*
X0094403Y0054554D01*
X0102403Y0049758D02*
X0104588Y0049758D01*
X0103927Y0048160D02*
X0103064Y0048160D01*
X0103064Y0046561D02*
X0103927Y0046561D01*
X0104277Y0044963D02*
X0102714Y0044963D01*
X0101116Y0043364D02*
X0105875Y0043364D01*
X0111116Y0043364D02*
X0115592Y0043364D01*
X0113994Y0044963D02*
X0112714Y0044963D01*
X0113064Y0046561D02*
X0113727Y0046561D01*
X0113727Y0048160D02*
X0113064Y0048160D01*
X0112403Y0049758D02*
X0114305Y0049758D01*
X0131116Y0043364D02*
X0135592Y0043364D01*
X0133994Y0044963D02*
X0132714Y0044963D01*
X0133064Y0046561D02*
X0133727Y0046561D01*
X0133727Y0048160D02*
X0133064Y0048160D01*
X0132403Y0049758D02*
X0134305Y0049758D01*
X0150990Y0052955D02*
X0151073Y0052955D01*
X0153708Y0052000D02*
X0153708Y0060500D01*
X0153588Y0048160D02*
X0153264Y0048160D01*
X0153264Y0046561D02*
X0153927Y0046561D01*
X0154277Y0044963D02*
X0152997Y0044963D01*
X0172997Y0044963D02*
X0173994Y0044963D01*
X0173727Y0046561D02*
X0173264Y0046561D01*
X0173264Y0048160D02*
X0173727Y0048160D01*
X0174305Y0049758D02*
X0172686Y0049758D01*
X0182588Y0054554D02*
X0184403Y0054554D01*
X0183727Y0056152D02*
X0183264Y0056152D01*
X0183264Y0057751D02*
X0183727Y0057751D01*
X0183896Y0059349D02*
X0183094Y0059349D01*
X0209715Y0068940D02*
X0216883Y0068940D01*
X0214731Y0070539D02*
X0211867Y0070539D01*
X0212499Y0072137D02*
X0214099Y0072137D01*
X0214099Y0073736D02*
X0212499Y0073736D01*
X0212499Y0075334D02*
X0214099Y0075334D01*
X0214099Y0076933D02*
X0212499Y0076933D01*
X0212499Y0078532D02*
X0214099Y0078532D01*
X0214593Y0080130D02*
X0212004Y0080130D01*
X0224671Y0110502D02*
X0230745Y0110502D01*
X0229147Y0112100D02*
X0226269Y0112100D01*
X0227277Y0113699D02*
X0228140Y0113699D01*
X0228140Y0115297D02*
X0227277Y0115297D01*
X0227273Y0116896D02*
X0228143Y0116896D01*
X0228608Y0118494D02*
X0225675Y0118494D01*
X0237517Y0099312D02*
X0238765Y0099312D01*
X0238183Y0097714D02*
X0243988Y0097714D01*
X0243988Y0097520D02*
X0240109Y0097520D01*
X0240109Y0094810D01*
X0240232Y0094352D01*
X0240468Y0093942D01*
X0240804Y0093607D01*
X0241214Y0093370D01*
X0241672Y0093247D01*
X0243988Y0093247D01*
X0243988Y0097520D01*
X0243988Y0096115D02*
X0244947Y0096115D01*
X0244947Y0094517D02*
X0243988Y0094517D01*
X0240188Y0094517D02*
X0237346Y0094517D01*
X0238144Y0096115D02*
X0240109Y0096115D01*
X0189748Y0144070D02*
X0328812Y0144070D01*
X0328812Y0142472D02*
X0188150Y0142472D01*
X0186551Y0140873D02*
X0318087Y0140873D01*
X0317010Y0139275D02*
X0184953Y0139275D01*
X0183354Y0137676D02*
X0317010Y0137676D01*
X0317010Y0136078D02*
X0305024Y0136078D01*
X0306623Y0134479D02*
X0317010Y0134479D01*
X0317478Y0132881D02*
X0308221Y0132881D01*
X0306229Y0128085D02*
X0305421Y0128085D01*
X0306530Y0126487D02*
X0307827Y0126487D01*
X0306808Y0124888D02*
X0309426Y0124888D01*
X0311024Y0123290D02*
X0306437Y0123290D01*
X0305198Y0121691D02*
X0312623Y0121691D01*
X0293708Y0160000D02*
X0337708Y0160000D01*
X0352866Y0144843D01*
X0352866Y0136654D01*
X0357196Y0136654D02*
X0357196Y0150512D01*
X0342708Y0165000D01*
X0293708Y0165000D01*
X0293708Y0170000D02*
X0302708Y0170000D01*
X0306495Y0171245D02*
X0315069Y0171245D01*
X0316667Y0169647D02*
X0306683Y0169647D01*
X0306202Y0168048D02*
X0318266Y0168048D01*
X0320258Y0172844D02*
X0376114Y0172844D01*
X0376562Y0174442D02*
X0318660Y0174442D01*
X0315859Y0192026D02*
X0360908Y0192026D01*
X0360908Y0193624D02*
X0315886Y0193624D01*
X0315886Y0195223D02*
X0360908Y0195223D01*
X0360908Y0196821D02*
X0315886Y0196821D01*
X0312006Y0195223D02*
X0311047Y0195223D01*
X0311047Y0193624D02*
X0312006Y0193624D01*
X0312006Y0192026D02*
X0311047Y0192026D01*
X0307195Y0192026D02*
X0271480Y0192026D01*
X0269882Y0193624D02*
X0307168Y0193624D01*
X0307168Y0195223D02*
X0268283Y0195223D01*
X0273079Y0190427D02*
X0360908Y0190427D01*
X0360908Y0188829D02*
X0274678Y0188829D01*
X0276222Y0187230D02*
X0361860Y0187230D01*
X0364492Y0187230D02*
X0364861Y0187230D01*
X0364861Y0188829D02*
X0364492Y0188829D01*
X0364492Y0190427D02*
X0364861Y0190427D01*
X0364861Y0192026D02*
X0364492Y0192026D01*
X0364492Y0193624D02*
X0364861Y0193624D01*
X0368445Y0193624D02*
X0402908Y0193624D01*
X0402908Y0192026D02*
X0368445Y0192026D01*
X0368445Y0190427D02*
X0402908Y0190427D01*
X0402908Y0188829D02*
X0368445Y0188829D01*
X0367494Y0187230D02*
X0392560Y0187230D01*
X0397815Y0187230D02*
X0402908Y0187230D01*
X0402908Y0195223D02*
X0368445Y0195223D01*
X0368445Y0196821D02*
X0402908Y0196821D01*
X0387056Y0185632D02*
X0276808Y0185632D01*
X0276745Y0184033D02*
X0383971Y0184033D01*
X0382129Y0182435D02*
X0275941Y0182435D01*
X0269475Y0182435D02*
X0086808Y0182435D01*
X0086808Y0184033D02*
X0267877Y0184033D01*
X0266278Y0185632D02*
X0086808Y0185632D01*
X0086808Y0187230D02*
X0264680Y0187230D01*
X0256530Y0177639D02*
X0286953Y0177639D01*
X0285355Y0176041D02*
X0257277Y0176041D01*
X0257277Y0174442D02*
X0283756Y0174442D01*
X0282708Y0170000D02*
X0281708Y0170000D01*
X0282708Y0170000D02*
X0290700Y0177992D01*
X0364677Y0177992D01*
X0368245Y0177639D02*
X0378160Y0177639D01*
X0377188Y0176041D02*
X0368245Y0176041D01*
X0368245Y0179238D02*
X0379132Y0179238D01*
X0380417Y0180836D02*
X0367638Y0180836D01*
X0361715Y0180836D02*
X0086808Y0180836D01*
X0086808Y0179238D02*
X0090485Y0179238D01*
X0090816Y0179568D02*
X0088140Y0176892D01*
X0088140Y0173108D01*
X0090816Y0170431D01*
X0094600Y0170431D01*
X0097277Y0173108D01*
X0097277Y0176892D01*
X0094600Y0179568D01*
X0090816Y0179568D01*
X0088886Y0177639D02*
X0086808Y0177639D01*
X0087277Y0176041D02*
X0088140Y0176041D01*
X0088140Y0174442D02*
X0087277Y0174442D01*
X0087013Y0172844D02*
X0088404Y0172844D01*
X0090002Y0171245D02*
X0085414Y0171245D01*
X0080002Y0171245D02*
X0077008Y0171245D01*
X0077295Y0172844D02*
X0078404Y0172844D01*
X0078140Y0174442D02*
X0077477Y0174442D01*
X0077477Y0176041D02*
X0078140Y0176041D01*
X0078608Y0177639D02*
X0077008Y0177639D01*
X0077008Y0179238D02*
X0078608Y0179238D01*
X0078608Y0180836D02*
X0077008Y0180836D01*
X0077008Y0182435D02*
X0078608Y0182435D01*
X0078608Y0184033D02*
X0077008Y0184033D01*
X0077008Y0185632D02*
X0078608Y0185632D01*
X0078608Y0187230D02*
X0077008Y0187230D01*
X0072988Y0192026D02*
X0012508Y0192026D01*
X0012508Y0193624D02*
X0069109Y0193624D01*
X0069118Y0195223D02*
X0012508Y0195223D01*
X0012508Y0196821D02*
X0307168Y0196821D01*
X0288552Y0179238D02*
X0254931Y0179238D01*
X0257013Y0172844D02*
X0278539Y0172844D01*
X0344653Y0166450D02*
X0367864Y0166450D01*
X0369463Y0164851D02*
X0346251Y0164851D01*
X0347850Y0163253D02*
X0370308Y0163253D01*
X0370308Y0161654D02*
X0349448Y0161654D01*
X0351047Y0160056D02*
X0370308Y0160056D01*
X0370308Y0158457D02*
X0352645Y0158457D01*
X0354244Y0156859D02*
X0361043Y0156859D01*
X0361031Y0156837D02*
X0360908Y0156379D01*
X0360908Y0153767D01*
X0364492Y0153767D01*
X0364492Y0153398D01*
X0364861Y0153398D01*
X0364861Y0149224D01*
X0366882Y0149224D01*
X0367340Y0149346D01*
X0367750Y0149583D01*
X0368085Y0149918D01*
X0368322Y0150329D01*
X0368445Y0150787D01*
X0368445Y0153398D01*
X0364861Y0153398D01*
X0364861Y0153767D01*
X0368445Y0153767D01*
X0368445Y0156379D01*
X0368322Y0156837D01*
X0368085Y0157247D01*
X0367750Y0157582D01*
X0367340Y0157819D01*
X0366882Y0157942D01*
X0364861Y0157942D01*
X0364861Y0153767D01*
X0364492Y0153767D01*
X0364492Y0157942D01*
X0362471Y0157942D01*
X0362013Y0157819D01*
X0361603Y0157582D01*
X0361268Y0157247D01*
X0361031Y0156837D01*
X0360908Y0155260D02*
X0355842Y0155260D01*
X0357441Y0153662D02*
X0364492Y0153662D01*
X0364492Y0153398D02*
X0360908Y0153398D01*
X0360908Y0150787D01*
X0361031Y0150329D01*
X0361268Y0149918D01*
X0361603Y0149583D01*
X0362013Y0149346D01*
X0362471Y0149224D01*
X0364492Y0149224D01*
X0364492Y0153398D01*
X0364861Y0153662D02*
X0370308Y0153662D01*
X0370308Y0155260D02*
X0368445Y0155260D01*
X0368310Y0156859D02*
X0370308Y0156859D01*
X0370308Y0152063D02*
X0368445Y0152063D01*
X0368359Y0150465D02*
X0370308Y0150465D01*
X0370308Y0148866D02*
X0359596Y0148866D01*
X0359596Y0147268D02*
X0370308Y0147268D01*
X0370308Y0145669D02*
X0359596Y0145669D01*
X0359596Y0144070D02*
X0370308Y0144070D01*
X0370308Y0142472D02*
X0359596Y0142472D01*
X0359596Y0140873D02*
X0370308Y0140873D01*
X0370308Y0139275D02*
X0363914Y0139275D01*
X0364492Y0150465D02*
X0364861Y0150465D01*
X0364861Y0152063D02*
X0364492Y0152063D01*
X0364492Y0155260D02*
X0364861Y0155260D01*
X0364861Y0156859D02*
X0364492Y0156859D01*
X0360908Y0152063D02*
X0359039Y0152063D01*
X0359596Y0150465D02*
X0360994Y0150465D01*
X0373054Y0168048D02*
X0375387Y0168048D01*
X0375387Y0166450D02*
X0374653Y0166450D01*
X0375108Y0164851D02*
X0375387Y0164851D01*
X0375108Y0163253D02*
X0375818Y0163253D01*
X0376266Y0161654D02*
X0375108Y0161654D01*
X0375108Y0160056D02*
X0376714Y0160056D01*
X0377517Y0158457D02*
X0375108Y0158457D01*
X0375108Y0156859D02*
X0378489Y0156859D01*
X0379461Y0155260D02*
X0375108Y0155260D01*
X0375108Y0153662D02*
X0380997Y0153662D01*
X0382709Y0152063D02*
X0375108Y0152063D01*
X0375108Y0150465D02*
X0385016Y0150465D01*
X0388101Y0148866D02*
X0375108Y0148866D01*
X0375108Y0147268D02*
X0402908Y0147268D01*
X0402908Y0148866D02*
X0401990Y0148866D01*
X0402908Y0145669D02*
X0375108Y0145669D01*
X0375108Y0144070D02*
X0402908Y0144070D01*
X0402908Y0142472D02*
X0375108Y0142472D01*
X0375108Y0140873D02*
X0402908Y0140873D01*
X0402908Y0139275D02*
X0375108Y0139275D01*
X0375108Y0137676D02*
X0402908Y0137676D01*
X0402908Y0136078D02*
X0375108Y0136078D01*
X0375108Y0134479D02*
X0402908Y0134479D01*
X0402908Y0132881D02*
X0375108Y0132881D01*
X0375108Y0131282D02*
X0402908Y0131282D01*
X0402908Y0129684D02*
X0375108Y0129684D01*
X0375108Y0128085D02*
X0402908Y0128085D01*
X0402908Y0126487D02*
X0375108Y0126487D01*
X0369407Y0120093D02*
X0352307Y0120093D01*
X0351978Y0118494D02*
X0367808Y0118494D01*
X0371455Y0169647D02*
X0375387Y0169647D01*
X0375666Y0171245D02*
X0369857Y0171245D01*
X0358764Y0059092D02*
X0358111Y0059006D01*
X0357250Y0058776D01*
X0356426Y0058435D01*
X0355654Y0057989D01*
X0354947Y0057446D01*
X0354317Y0056816D01*
X0353774Y0056109D01*
X0353329Y0055337D01*
X0352987Y0054513D01*
X0352757Y0053652D01*
X0352640Y0052769D01*
X0352640Y0047999D01*
X0358764Y0047999D01*
X0358764Y0046646D01*
X0360117Y0046646D01*
X0360117Y0047999D01*
X0358764Y0047999D01*
X0358764Y0059092D01*
X0358764Y0057751D02*
X0360117Y0057751D01*
X0360117Y0056152D02*
X0358764Y0056152D01*
X0358764Y0054554D02*
X0360117Y0054554D01*
X0360117Y0052955D02*
X0358764Y0052955D01*
X0358764Y0051357D02*
X0360117Y0051357D01*
X0360117Y0049758D02*
X0358764Y0049758D01*
X0358764Y0048160D02*
X0360117Y0048160D01*
X0360117Y0046561D02*
X0358764Y0046561D01*
X0358764Y0046646D02*
X0358764Y0035553D01*
X0358111Y0035639D01*
X0357250Y0035870D01*
X0356426Y0036211D01*
X0355654Y0036657D01*
X0354947Y0037199D01*
X0354317Y0037830D01*
X0353774Y0038537D01*
X0353329Y0039309D01*
X0352987Y0040132D01*
X0352757Y0040993D01*
X0352640Y0041877D01*
X0352640Y0046646D01*
X0358764Y0046646D01*
X0358764Y0044963D02*
X0360117Y0044963D01*
X0360117Y0043364D02*
X0358764Y0043364D01*
X0358764Y0041766D02*
X0360117Y0041766D01*
X0360117Y0040167D02*
X0358764Y0040167D01*
X0358764Y0038569D02*
X0360117Y0038569D01*
X0360117Y0036970D02*
X0358764Y0036970D01*
X0355246Y0036970D02*
X0343635Y0036970D01*
X0343934Y0037199D02*
X0344564Y0037830D01*
X0345106Y0038537D01*
X0345552Y0039309D01*
X0345893Y0040132D01*
X0346124Y0040993D01*
X0346240Y0041877D01*
X0346240Y0046646D01*
X0340117Y0046646D01*
X0340117Y0035553D01*
X0340770Y0035639D01*
X0341631Y0035870D01*
X0342454Y0036211D01*
X0343226Y0036657D01*
X0343934Y0037199D01*
X0345125Y0038569D02*
X0353756Y0038569D01*
X0352978Y0040167D02*
X0345903Y0040167D01*
X0346226Y0041766D02*
X0352655Y0041766D01*
X0352640Y0043364D02*
X0346240Y0043364D01*
X0346240Y0044963D02*
X0352640Y0044963D01*
X0352640Y0046561D02*
X0346240Y0046561D01*
X0346240Y0047999D02*
X0346240Y0052769D01*
X0346124Y0053652D01*
X0345893Y0054513D01*
X0345552Y0055337D01*
X0345106Y0056109D01*
X0344564Y0056816D01*
X0343934Y0057446D01*
X0343226Y0057989D01*
X0342454Y0058435D01*
X0341631Y0058776D01*
X0340770Y0059006D01*
X0340117Y0059092D01*
X0340117Y0047999D01*
X0346240Y0047999D01*
X0346240Y0048160D02*
X0352640Y0048160D01*
X0352640Y0049758D02*
X0346240Y0049758D01*
X0346240Y0051357D02*
X0352640Y0051357D01*
X0352665Y0052955D02*
X0346216Y0052955D01*
X0345877Y0054554D02*
X0353004Y0054554D01*
X0353808Y0056152D02*
X0345073Y0056152D01*
X0343537Y0057751D02*
X0355344Y0057751D01*
X0340117Y0057751D02*
X0338764Y0057751D01*
X0338764Y0059092D02*
X0338764Y0047999D01*
X0338764Y0046646D01*
X0340117Y0046646D01*
X0340117Y0047999D01*
X0338764Y0047999D01*
X0332640Y0047999D01*
X0332640Y0052769D01*
X0332757Y0053652D01*
X0332987Y0054513D01*
X0333329Y0055337D01*
X0333774Y0056109D01*
X0334317Y0056816D01*
X0334947Y0057446D01*
X0335654Y0057989D01*
X0336426Y0058435D01*
X0337250Y0058776D01*
X0338111Y0059006D01*
X0338764Y0059092D01*
X0338764Y0056152D02*
X0340117Y0056152D01*
X0340117Y0054554D02*
X0338764Y0054554D01*
X0338764Y0052955D02*
X0340117Y0052955D01*
X0340117Y0051357D02*
X0338764Y0051357D01*
X0338764Y0049758D02*
X0340117Y0049758D01*
X0340117Y0048160D02*
X0338764Y0048160D01*
X0338764Y0046646D02*
X0332640Y0046646D01*
X0332640Y0041877D01*
X0332757Y0040993D01*
X0332987Y0040132D01*
X0333329Y0039309D01*
X0333774Y0038537D01*
X0334317Y0037830D01*
X0334947Y0037199D01*
X0335654Y0036657D01*
X0336426Y0036211D01*
X0337250Y0035870D01*
X0338111Y0035639D01*
X0338764Y0035553D01*
X0338764Y0046646D01*
X0338764Y0046561D02*
X0340117Y0046561D01*
X0340117Y0044963D02*
X0338764Y0044963D01*
X0338764Y0043364D02*
X0340117Y0043364D01*
X0340117Y0041766D02*
X0338764Y0041766D01*
X0338764Y0040167D02*
X0340117Y0040167D01*
X0340117Y0038569D02*
X0338764Y0038569D01*
X0338764Y0036970D02*
X0340117Y0036970D01*
X0335246Y0036970D02*
X0323422Y0036970D01*
X0325020Y0038569D02*
X0333756Y0038569D01*
X0332978Y0040167D02*
X0325691Y0040167D01*
X0326040Y0041766D02*
X0332655Y0041766D01*
X0332640Y0043364D02*
X0326040Y0043364D01*
X0326040Y0044963D02*
X0332640Y0044963D01*
X0332640Y0046561D02*
X0326040Y0046561D01*
X0326040Y0048160D02*
X0332640Y0048160D01*
X0332640Y0049758D02*
X0326040Y0049758D01*
X0326040Y0051357D02*
X0332640Y0051357D01*
X0332665Y0052955D02*
X0326040Y0052955D01*
X0325660Y0054554D02*
X0333004Y0054554D01*
X0333808Y0056152D02*
X0324945Y0056152D01*
X0323346Y0057751D02*
X0335344Y0057751D01*
X0180002Y0171245D02*
X0175414Y0171245D01*
X0174600Y0170431D02*
X0177277Y0173108D01*
X0177277Y0176892D01*
X0174600Y0179568D01*
X0170816Y0179568D01*
X0168140Y0176892D01*
X0168140Y0173108D01*
X0170816Y0170431D01*
X0174600Y0170431D01*
X0177013Y0172844D02*
X0178404Y0172844D01*
X0178140Y0174442D02*
X0177277Y0174442D01*
X0177277Y0176041D02*
X0178140Y0176041D01*
X0178886Y0177639D02*
X0176530Y0177639D01*
X0174931Y0179238D02*
X0180485Y0179238D01*
X0170485Y0179238D02*
X0164931Y0179238D01*
X0164600Y0179568D02*
X0160816Y0179568D01*
X0158140Y0176892D01*
X0158140Y0173108D01*
X0160816Y0170431D01*
X0164600Y0170431D01*
X0167277Y0173108D01*
X0167277Y0176892D01*
X0164600Y0179568D01*
X0166530Y0177639D02*
X0168886Y0177639D01*
X0168140Y0176041D02*
X0167277Y0176041D01*
X0167277Y0174442D02*
X0168140Y0174442D01*
X0168404Y0172844D02*
X0167013Y0172844D01*
X0165414Y0171245D02*
X0170002Y0171245D01*
X0160002Y0171245D02*
X0155414Y0171245D01*
X0154600Y0170431D02*
X0157277Y0173108D01*
X0157277Y0176892D01*
X0154600Y0179568D01*
X0150816Y0179568D01*
X0148140Y0176892D01*
X0148140Y0173108D01*
X0150816Y0170431D01*
X0154600Y0170431D01*
X0157013Y0172844D02*
X0158404Y0172844D01*
X0158140Y0174442D02*
X0157277Y0174442D01*
X0157277Y0176041D02*
X0158140Y0176041D01*
X0158886Y0177639D02*
X0156530Y0177639D01*
X0154931Y0179238D02*
X0160485Y0179238D01*
X0150485Y0179238D02*
X0144931Y0179238D01*
X0144600Y0179568D02*
X0140816Y0179568D01*
X0138140Y0176892D01*
X0138140Y0173108D01*
X0140816Y0170431D01*
X0144600Y0170431D01*
X0147277Y0173108D01*
X0147277Y0176892D01*
X0144600Y0179568D01*
X0146530Y0177639D02*
X0148886Y0177639D01*
X0148140Y0176041D02*
X0147277Y0176041D01*
X0147277Y0174442D02*
X0148140Y0174442D01*
X0148404Y0172844D02*
X0147013Y0172844D01*
X0145414Y0171245D02*
X0150002Y0171245D01*
X0140002Y0171245D02*
X0135414Y0171245D01*
X0134600Y0170431D02*
X0137277Y0173108D01*
X0137277Y0176892D01*
X0134600Y0179568D01*
X0130816Y0179568D01*
X0128140Y0176892D01*
X0128140Y0173108D01*
X0130816Y0170431D01*
X0134600Y0170431D01*
X0137013Y0172844D02*
X0138404Y0172844D01*
X0138140Y0174442D02*
X0137277Y0174442D01*
X0137277Y0176041D02*
X0138140Y0176041D01*
X0138886Y0177639D02*
X0136530Y0177639D01*
X0134931Y0179238D02*
X0140485Y0179238D01*
X0130485Y0179238D02*
X0124931Y0179238D01*
X0124600Y0179568D02*
X0127277Y0176892D01*
X0127277Y0173108D01*
X0124600Y0170431D01*
X0120816Y0170431D01*
X0118140Y0173108D01*
X0118140Y0176892D01*
X0120816Y0179568D01*
X0124600Y0179568D01*
X0126530Y0177639D02*
X0128886Y0177639D01*
X0128140Y0176041D02*
X0127277Y0176041D01*
X0127277Y0174442D02*
X0128140Y0174442D01*
X0128404Y0172844D02*
X0127013Y0172844D01*
X0125414Y0171245D02*
X0130002Y0171245D01*
X0120485Y0179238D02*
X0114931Y0179238D01*
X0114600Y0179568D02*
X0110816Y0179568D01*
X0108140Y0176892D01*
X0108140Y0173108D01*
X0110816Y0170431D01*
X0114600Y0170431D01*
X0117277Y0173108D01*
X0117277Y0176892D01*
X0114600Y0179568D01*
X0116530Y0177639D02*
X0118886Y0177639D01*
X0118140Y0176041D02*
X0117277Y0176041D01*
X0117277Y0174442D02*
X0118140Y0174442D01*
X0118404Y0172844D02*
X0117013Y0172844D01*
X0115414Y0171245D02*
X0120002Y0171245D01*
X0110002Y0171245D02*
X0105414Y0171245D01*
X0104600Y0170431D02*
X0107277Y0173108D01*
X0107277Y0176892D01*
X0104600Y0179568D01*
X0100816Y0179568D01*
X0098140Y0176892D01*
X0098140Y0173108D01*
X0100816Y0170431D01*
X0104600Y0170431D01*
X0107013Y0172844D02*
X0108404Y0172844D01*
X0108140Y0174442D02*
X0107277Y0174442D01*
X0107277Y0176041D02*
X0108140Y0176041D01*
X0108886Y0177639D02*
X0106530Y0177639D01*
X0104931Y0179238D02*
X0110485Y0179238D01*
X0100485Y0179238D02*
X0094931Y0179238D01*
X0096530Y0177639D02*
X0098886Y0177639D01*
X0098140Y0176041D02*
X0097277Y0176041D01*
X0097277Y0174442D02*
X0098140Y0174442D01*
X0098404Y0172844D02*
X0097013Y0172844D01*
X0095414Y0171245D02*
X0100002Y0171245D01*
X0113835Y0147268D02*
X0172006Y0147268D01*
X0173604Y0148866D02*
X0054585Y0148866D01*
X0051055Y0146000D02*
X0111708Y0146000D01*
X0132708Y0125000D01*
X0132708Y0115000D01*
X0128140Y0115297D02*
X0127277Y0115297D01*
X0127277Y0113699D02*
X0128140Y0113699D01*
X0129147Y0112100D02*
X0126269Y0112100D01*
X0124671Y0110502D02*
X0130745Y0110502D01*
X0134671Y0110502D02*
X0140745Y0110502D01*
X0139147Y0112100D02*
X0136269Y0112100D01*
X0137277Y0113699D02*
X0138140Y0113699D01*
X0138140Y0115297D02*
X0137277Y0115297D01*
X0137273Y0116896D02*
X0138143Y0116896D01*
X0139742Y0118494D02*
X0135675Y0118494D01*
X0135108Y0120093D02*
X0145608Y0120093D01*
X0146430Y0121691D02*
X0135108Y0121691D01*
X0135108Y0123290D02*
X0148028Y0123290D01*
X0149627Y0124888D02*
X0135108Y0124888D01*
X0134615Y0126487D02*
X0151225Y0126487D01*
X0152824Y0128085D02*
X0133017Y0128085D01*
X0131418Y0129684D02*
X0154422Y0129684D01*
X0156021Y0131282D02*
X0129820Y0131282D01*
X0128221Y0132881D02*
X0157619Y0132881D01*
X0159218Y0134479D02*
X0126623Y0134479D01*
X0125024Y0136078D02*
X0160816Y0136078D01*
X0162415Y0137676D02*
X0123426Y0137676D01*
X0121827Y0139275D02*
X0164013Y0139275D01*
X0165612Y0140873D02*
X0120229Y0140873D01*
X0118630Y0142472D02*
X0167210Y0142472D01*
X0168809Y0144070D02*
X0117032Y0144070D01*
X0115433Y0145669D02*
X0170407Y0145669D01*
X0145933Y0107305D02*
X0012508Y0107305D01*
X0012508Y0108903D02*
X0144335Y0108903D01*
X0147532Y0105706D02*
X0012508Y0105706D01*
X0012508Y0104108D02*
X0149131Y0104108D01*
X0129742Y0118494D02*
X0125675Y0118494D01*
X0125108Y0120093D02*
X0130308Y0120093D01*
X0130308Y0121691D02*
X0125108Y0121691D01*
X0125108Y0123290D02*
X0130308Y0123290D01*
X0129426Y0124888D02*
X0125108Y0124888D01*
X0124615Y0126487D02*
X0127827Y0126487D01*
X0126229Y0128085D02*
X0123017Y0128085D01*
X0121418Y0129684D02*
X0124630Y0129684D01*
X0123032Y0131282D02*
X0119820Y0131282D01*
X0118221Y0132881D02*
X0121433Y0132881D01*
X0119835Y0134479D02*
X0116623Y0134479D01*
X0115024Y0136078D02*
X0118236Y0136078D01*
X0116638Y0137676D02*
X0113426Y0137676D01*
X0111827Y0139275D02*
X0115039Y0139275D01*
X0113440Y0140873D02*
X0110229Y0140873D01*
X0111842Y0142472D02*
X0054820Y0142472D01*
X0051055Y0140000D02*
X0107708Y0140000D01*
X0122708Y0125000D01*
X0122708Y0115000D01*
X0118140Y0115297D02*
X0117277Y0115297D01*
X0117277Y0113699D02*
X0118140Y0113699D01*
X0119147Y0112100D02*
X0116269Y0112100D01*
X0114671Y0110502D02*
X0120745Y0110502D01*
X0118143Y0116896D02*
X0117273Y0116896D01*
X0115675Y0118494D02*
X0119742Y0118494D01*
X0120308Y0120093D02*
X0115108Y0120093D01*
X0115108Y0121691D02*
X0120308Y0121691D01*
X0120308Y0123290D02*
X0115108Y0123290D01*
X0115108Y0124888D02*
X0119426Y0124888D01*
X0117827Y0126487D02*
X0114615Y0126487D01*
X0113017Y0128085D02*
X0116229Y0128085D01*
X0114630Y0129684D02*
X0111418Y0129684D01*
X0109820Y0131282D02*
X0113032Y0131282D01*
X0111433Y0132881D02*
X0108221Y0132881D01*
X0106623Y0134479D02*
X0109835Y0134479D01*
X0108236Y0136078D02*
X0104963Y0136078D01*
X0103708Y0134000D02*
X0112708Y0125000D01*
X0112708Y0115000D01*
X0108140Y0115297D02*
X0107277Y0115297D01*
X0107277Y0116892D02*
X0104600Y0119568D01*
X0100816Y0119568D01*
X0098140Y0116892D01*
X0098140Y0113108D01*
X0100816Y0110431D01*
X0104600Y0110431D01*
X0107277Y0113108D01*
X0107277Y0116892D01*
X0107273Y0116896D02*
X0108143Y0116896D01*
X0109742Y0118494D02*
X0105675Y0118494D01*
X0110308Y0120093D02*
X0012508Y0120093D01*
X0012508Y0121691D02*
X0110308Y0121691D01*
X0110308Y0123290D02*
X0012508Y0123290D01*
X0012508Y0124888D02*
X0109426Y0124888D01*
X0107827Y0126487D02*
X0012508Y0126487D01*
X0012508Y0128085D02*
X0106229Y0128085D01*
X0104630Y0129684D02*
X0012508Y0129684D01*
X0012508Y0118494D02*
X0059742Y0118494D01*
X0060816Y0119568D02*
X0058140Y0116892D01*
X0058140Y0113108D01*
X0060816Y0110431D01*
X0064600Y0110431D01*
X0067277Y0113108D01*
X0067277Y0116892D01*
X0064600Y0119568D01*
X0060816Y0119568D01*
X0058143Y0116896D02*
X0012508Y0116896D01*
X0012508Y0115297D02*
X0058140Y0115297D01*
X0058140Y0113699D02*
X0012508Y0113699D01*
X0012508Y0112100D02*
X0059147Y0112100D01*
X0060745Y0110502D02*
X0012508Y0110502D01*
X0024507Y0138047D02*
X0029555Y0138000D01*
X0036708Y0138000D01*
X0038708Y0140000D01*
X0044362Y0140000D01*
X0051055Y0134000D02*
X0103708Y0134000D01*
X0103032Y0131282D02*
X0054734Y0131282D01*
X0065675Y0118494D02*
X0069742Y0118494D01*
X0070816Y0119568D02*
X0068140Y0116892D01*
X0068140Y0113108D01*
X0070816Y0110431D01*
X0074600Y0110431D01*
X0077277Y0113108D01*
X0077277Y0116892D01*
X0074600Y0119568D01*
X0070816Y0119568D01*
X0068143Y0116896D02*
X0067273Y0116896D01*
X0067277Y0115297D02*
X0068140Y0115297D01*
X0068140Y0113699D02*
X0067277Y0113699D01*
X0066269Y0112100D02*
X0069147Y0112100D01*
X0070745Y0110502D02*
X0064671Y0110502D01*
X0074671Y0110502D02*
X0080745Y0110502D01*
X0080816Y0110431D02*
X0084600Y0110431D01*
X0087277Y0113108D01*
X0087277Y0116892D01*
X0084600Y0119568D01*
X0080816Y0119568D01*
X0078140Y0116892D01*
X0078140Y0113108D01*
X0080816Y0110431D01*
X0079147Y0112100D02*
X0076269Y0112100D01*
X0077277Y0113699D02*
X0078140Y0113699D01*
X0078140Y0115297D02*
X0077277Y0115297D01*
X0077273Y0116896D02*
X0078143Y0116896D01*
X0079742Y0118494D02*
X0075675Y0118494D01*
X0085675Y0118494D02*
X0089742Y0118494D01*
X0090816Y0119568D02*
X0088140Y0116892D01*
X0088140Y0113108D01*
X0090816Y0110431D01*
X0094600Y0110431D01*
X0097277Y0113108D01*
X0097277Y0116892D01*
X0094600Y0119568D01*
X0090816Y0119568D01*
X0088143Y0116896D02*
X0087273Y0116896D01*
X0087277Y0115297D02*
X0088140Y0115297D01*
X0088140Y0113699D02*
X0087277Y0113699D01*
X0086269Y0112100D02*
X0089147Y0112100D01*
X0090745Y0110502D02*
X0084671Y0110502D01*
X0094671Y0110502D02*
X0100745Y0110502D01*
X0099147Y0112100D02*
X0096269Y0112100D01*
X0097277Y0113699D02*
X0098140Y0113699D01*
X0098140Y0115297D02*
X0097277Y0115297D01*
X0097273Y0116896D02*
X0098143Y0116896D01*
X0099742Y0118494D02*
X0095675Y0118494D01*
X0104671Y0110502D02*
X0110745Y0110502D01*
X0109147Y0112100D02*
X0106269Y0112100D01*
X0107277Y0113699D02*
X0108140Y0113699D01*
X0127273Y0116896D02*
X0128143Y0116896D01*
X0076493Y0081729D02*
X0070923Y0081729D01*
X0072413Y0080130D02*
X0075003Y0080130D01*
X0074508Y0078532D02*
X0072908Y0078532D01*
X0072908Y0076933D02*
X0074508Y0076933D01*
X0074508Y0075334D02*
X0072908Y0075334D01*
X0072908Y0073736D02*
X0074508Y0073736D01*
X0074508Y0072137D02*
X0072908Y0072137D01*
X0072276Y0070539D02*
X0075140Y0070539D01*
X0075495Y0060948D02*
X0071496Y0060948D01*
X0070471Y0061973D02*
X0073264Y0059180D01*
X0073264Y0057389D01*
X0068680Y0057389D01*
X0068680Y0057020D01*
X0068680Y0052436D01*
X0070471Y0052436D01*
X0073264Y0055230D01*
X0073264Y0057020D01*
X0068680Y0057020D01*
X0068311Y0057020D01*
X0068311Y0052436D01*
X0066520Y0052436D01*
X0063727Y0055230D01*
X0063727Y0057020D01*
X0068311Y0057020D01*
X0068311Y0057389D01*
X0063727Y0057389D01*
X0063727Y0059180D01*
X0066520Y0061973D01*
X0068311Y0061973D01*
X0068311Y0057389D01*
X0068680Y0057389D01*
X0068680Y0061973D01*
X0070471Y0061973D01*
X0068680Y0060948D02*
X0068311Y0060948D01*
X0068311Y0059349D02*
X0068680Y0059349D01*
X0068680Y0057751D02*
X0068311Y0057751D01*
X0068311Y0056152D02*
X0068680Y0056152D01*
X0068680Y0054554D02*
X0068311Y0054554D01*
X0068311Y0052955D02*
X0068680Y0052955D01*
X0070388Y0051773D02*
X0066603Y0051773D01*
X0063927Y0049097D01*
X0063927Y0045312D01*
X0066603Y0042636D01*
X0070388Y0042636D01*
X0073064Y0045312D01*
X0073064Y0049097D01*
X0070388Y0051773D01*
X0070804Y0051357D02*
X0076187Y0051357D01*
X0076001Y0052955D02*
X0070990Y0052955D01*
X0072588Y0054554D02*
X0074403Y0054554D01*
X0073727Y0056152D02*
X0073264Y0056152D01*
X0073264Y0057751D02*
X0073727Y0057751D01*
X0073896Y0059349D02*
X0073094Y0059349D01*
X0065495Y0060948D02*
X0061496Y0060948D01*
X0060471Y0061973D02*
X0058680Y0061973D01*
X0058680Y0057389D01*
X0063264Y0057389D01*
X0063264Y0059180D01*
X0060471Y0061973D01*
X0058680Y0060948D02*
X0058311Y0060948D01*
X0058311Y0061973D02*
X0056520Y0061973D01*
X0053727Y0059180D01*
X0053727Y0057389D01*
X0058311Y0057389D01*
X0058311Y0057020D01*
X0058680Y0057020D01*
X0058680Y0052436D01*
X0060471Y0052436D01*
X0063264Y0055230D01*
X0063264Y0057020D01*
X0058680Y0057020D01*
X0058680Y0057389D01*
X0058311Y0057389D01*
X0058311Y0061973D01*
X0058311Y0059349D02*
X0058680Y0059349D01*
X0058680Y0057751D02*
X0058311Y0057751D01*
X0058311Y0057020D02*
X0053727Y0057020D01*
X0053727Y0055230D01*
X0056520Y0052436D01*
X0058311Y0052436D01*
X0058311Y0057020D01*
X0058311Y0056152D02*
X0058680Y0056152D01*
X0058680Y0054554D02*
X0058311Y0054554D01*
X0058311Y0052955D02*
X0058680Y0052955D01*
X0060388Y0051773D02*
X0056603Y0051773D01*
X0053927Y0049097D01*
X0053927Y0045312D01*
X0056603Y0042636D01*
X0060388Y0042636D01*
X0063064Y0045312D01*
X0063064Y0049097D01*
X0060388Y0051773D01*
X0060804Y0051357D02*
X0066187Y0051357D01*
X0066001Y0052955D02*
X0060990Y0052955D01*
X0062588Y0054554D02*
X0064403Y0054554D01*
X0063727Y0056152D02*
X0063264Y0056152D01*
X0063264Y0057751D02*
X0063727Y0057751D01*
X0063896Y0059349D02*
X0063094Y0059349D01*
X0062276Y0070539D02*
X0065140Y0070539D01*
X0064508Y0072137D02*
X0062908Y0072137D01*
X0062908Y0073736D02*
X0064508Y0073736D01*
X0064508Y0075334D02*
X0062908Y0075334D01*
X0062908Y0076933D02*
X0064508Y0076933D01*
X0064508Y0078532D02*
X0062908Y0078532D01*
X0062413Y0080130D02*
X0065003Y0080130D01*
X0066493Y0081729D02*
X0060923Y0081729D01*
X0056493Y0081729D02*
X0050923Y0081729D01*
X0052413Y0080130D02*
X0055003Y0080130D01*
X0054508Y0078532D02*
X0052908Y0078532D01*
X0052908Y0076933D02*
X0054508Y0076933D01*
X0054508Y0075334D02*
X0052908Y0075334D01*
X0052908Y0073736D02*
X0054508Y0073736D01*
X0054508Y0072137D02*
X0052908Y0072137D01*
X0052276Y0070539D02*
X0055140Y0070539D01*
X0055495Y0060948D02*
X0051496Y0060948D01*
X0053094Y0059349D02*
X0053896Y0059349D01*
X0053727Y0057751D02*
X0053264Y0057751D01*
X0053264Y0056152D02*
X0053727Y0056152D01*
X0054403Y0054554D02*
X0052588Y0054554D01*
X0050990Y0052955D02*
X0056001Y0052955D01*
X0056187Y0051357D02*
X0050804Y0051357D01*
X0052403Y0049758D02*
X0054588Y0049758D01*
X0053927Y0048160D02*
X0053064Y0048160D01*
X0053064Y0046561D02*
X0053927Y0046561D01*
X0054277Y0044963D02*
X0052714Y0044963D01*
X0051116Y0043364D02*
X0055875Y0043364D01*
X0061116Y0043364D02*
X0065875Y0043364D01*
X0064277Y0044963D02*
X0062714Y0044963D01*
X0063064Y0046561D02*
X0063927Y0046561D01*
X0063927Y0048160D02*
X0063064Y0048160D01*
X0062403Y0049758D02*
X0064588Y0049758D01*
X0072403Y0049758D02*
X0074588Y0049758D01*
X0073927Y0048160D02*
X0073064Y0048160D01*
X0073064Y0046561D02*
X0073927Y0046561D01*
X0074277Y0044963D02*
X0072714Y0044963D01*
X0071116Y0043364D02*
X0075875Y0043364D01*
X0048680Y0052955D02*
X0048311Y0052955D01*
X0048311Y0054554D02*
X0048680Y0054554D01*
X0048680Y0056152D02*
X0048311Y0056152D01*
X0048311Y0057751D02*
X0048680Y0057751D01*
X0048680Y0059349D02*
X0048311Y0059349D01*
X0048311Y0060948D02*
X0048680Y0060948D01*
X0045140Y0070539D02*
X0042276Y0070539D01*
X0042908Y0072137D02*
X0044508Y0072137D01*
X0044508Y0073736D02*
X0042908Y0073736D01*
X0042908Y0075334D02*
X0044508Y0075334D01*
X0044508Y0076933D02*
X0042908Y0076933D01*
X0042908Y0078532D02*
X0044508Y0078532D01*
X0045003Y0080130D02*
X0042413Y0080130D01*
X0040923Y0081729D02*
X0046493Y0081729D01*
X0044588Y0049758D02*
X0042403Y0049758D01*
X0043064Y0048160D02*
X0043927Y0048160D01*
X0043927Y0046561D02*
X0043064Y0046561D01*
X0042714Y0044963D02*
X0044277Y0044963D01*
X0045875Y0043364D02*
X0041116Y0043364D01*
X0012614Y0144070D02*
X0012508Y0144070D01*
X0012508Y0145669D02*
X0016983Y0145669D01*
X0018911Y0147268D02*
X0012508Y0147268D01*
X0012508Y0148866D02*
X0013101Y0148866D01*
X0012508Y0187230D02*
X0017560Y0187230D01*
X0022815Y0187230D02*
X0068408Y0187230D01*
X0068408Y0185632D02*
X0028514Y0185632D01*
X0031239Y0184033D02*
X0068408Y0184033D01*
X0068408Y0182435D02*
X0033504Y0182435D01*
X0012508Y0188829D02*
X0068408Y0188829D01*
X0068408Y0190427D02*
X0012508Y0190427D01*
X0065414Y0171245D02*
X0068408Y0171245D01*
X0068121Y0172844D02*
X0067013Y0172844D01*
X0072988Y0193624D02*
X0073947Y0193624D01*
X0073947Y0195223D02*
X0072988Y0195223D01*
D32*
X0133708Y0086000D02*
X0152708Y0086000D01*
X0166708Y0086000D01*
X0172708Y0080000D01*
X0172708Y0078740D01*
X0178968Y0085000D01*
X0272708Y0085000D01*
X0278708Y0079000D01*
X0278299Y0075500D01*
X0133708Y0086000D02*
X0128708Y0081000D01*
X0128708Y0075500D01*
D33*
X0150208Y0106000D02*
X0142708Y0113500D01*
X0142708Y0115000D01*
X0147708Y0112000D02*
X0147708Y0120000D01*
X0190208Y0162500D01*
X0289708Y0162500D01*
X0292208Y0160000D01*
X0293708Y0160000D01*
X0293708Y0155000D02*
X0292208Y0155000D01*
X0289708Y0152500D01*
X0190208Y0152500D01*
X0172708Y0135000D01*
X0172708Y0115000D01*
X0177708Y0110000D02*
X0173708Y0106000D01*
X0150208Y0106000D01*
X0151208Y0108500D02*
X0156208Y0108500D01*
X0162708Y0115000D01*
X0152708Y0115000D02*
X0152708Y0120000D01*
X0190208Y0157500D01*
X0334708Y0157500D01*
X0344204Y0148004D01*
X0344204Y0136654D01*
X0293708Y0150000D02*
X0292708Y0150000D01*
X0290208Y0147500D01*
X0190208Y0147500D01*
X0177708Y0135000D01*
X0177708Y0110000D01*
X0151208Y0108500D02*
X0147708Y0112000D01*
M02*
