G75*
%MOIN*%
%OFA0B0*%
%FSLAX25Y25*%
%IPPOS*%
%LPD*%
%AMOC8*
5,1,8,0,0,1.08239X$1,22.5*
%
%ADD10C,0.00000*%
%ADD11C,0.00900*%
%ADD12C,0.00500*%
%ADD13C,0.00700*%
%ADD14C,0.01600*%
%ADD15C,0.00787*%
%ADD16C,0.00630*%
%ADD17C,0.00600*%
%ADD18C,0.01000*%
%ADD19C,0.00200*%
%ADD20C,0.00400*%
D10*
X0007708Y0005000D02*
X0007708Y0201850D01*
X0407708Y0201850D01*
X0407708Y0005000D01*
X0007708Y0005000D01*
D11*
X0016626Y0043655D02*
X0015609Y0044672D01*
X0015609Y0048742D01*
X0016626Y0049760D01*
X0018662Y0049760D01*
X0019679Y0048742D01*
X0022054Y0049760D02*
X0022054Y0043655D01*
X0019679Y0044672D02*
X0018662Y0043655D01*
X0016626Y0043655D01*
X0022054Y0049760D02*
X0026125Y0043655D01*
X0026125Y0049760D01*
X0028500Y0048742D02*
X0029517Y0049760D01*
X0031553Y0049760D01*
X0032570Y0048742D01*
X0032570Y0047725D01*
X0028500Y0043655D01*
X0032570Y0043655D01*
X0368635Y0070413D02*
X0369653Y0070413D01*
X0371688Y0070413D02*
X0375758Y0070413D01*
X0375758Y0069395D02*
X0375758Y0071431D01*
X0374741Y0074710D02*
X0370670Y0074710D01*
X0371688Y0073692D02*
X0371688Y0075728D01*
X0372705Y0077989D02*
X0371688Y0079007D01*
X0371688Y0081042D01*
X0372705Y0082060D01*
X0375758Y0082060D01*
X0374741Y0084435D02*
X0375758Y0085453D01*
X0375758Y0088505D01*
X0371688Y0088505D01*
X0371688Y0090880D02*
X0371688Y0093933D01*
X0372705Y0094951D01*
X0374741Y0094951D01*
X0375758Y0093933D01*
X0375758Y0090880D01*
X0369653Y0090880D01*
X0371688Y0084435D02*
X0374741Y0084435D01*
X0375758Y0077989D02*
X0369653Y0077989D01*
X0371688Y0070413D02*
X0371688Y0069395D01*
X0372705Y0067020D02*
X0372705Y0064985D01*
X0372705Y0067020D02*
X0374741Y0067020D01*
X0375758Y0066003D01*
X0375758Y0063968D01*
X0374741Y0062950D01*
X0370670Y0062950D01*
X0369653Y0063968D01*
X0369653Y0066003D01*
X0370670Y0067020D01*
X0374741Y0074710D02*
X0375758Y0075728D01*
X0375758Y0097326D02*
X0374741Y0097326D01*
X0374741Y0098344D01*
X0375758Y0098344D01*
X0375758Y0097326D01*
X0372705Y0097326D02*
X0372705Y0098344D01*
X0371688Y0098344D01*
X0371688Y0097326D01*
X0372705Y0097326D01*
X0371688Y0106994D02*
X0371688Y0111064D01*
X0375758Y0106994D01*
X0375758Y0111064D01*
X0374741Y0114457D02*
X0375758Y0115475D01*
X0374741Y0114457D02*
X0370670Y0114457D01*
X0371688Y0113440D02*
X0371688Y0115475D01*
X0371688Y0117737D02*
X0371688Y0119772D01*
X0370670Y0118754D02*
X0374741Y0118754D01*
X0375758Y0119772D01*
X0374741Y0122034D02*
X0375758Y0123051D01*
X0375758Y0125086D01*
X0374741Y0126104D01*
X0372705Y0126104D01*
X0371688Y0125086D01*
X0371688Y0123051D01*
X0372705Y0122034D01*
X0374741Y0122034D01*
X0375758Y0128479D02*
X0369653Y0132549D01*
X0371688Y0134925D02*
X0369653Y0136960D01*
X0371688Y0138995D01*
X0375758Y0138995D01*
X0375758Y0141370D02*
X0371688Y0141370D01*
X0373723Y0141370D02*
X0371688Y0143405D01*
X0371688Y0144423D01*
X0372705Y0146741D02*
X0371688Y0147759D01*
X0371688Y0150812D01*
X0369653Y0150812D02*
X0375758Y0150812D01*
X0375758Y0147759D01*
X0374741Y0146741D01*
X0372705Y0146741D01*
X0371688Y0153187D02*
X0372705Y0154204D01*
X0372705Y0156240D01*
X0373723Y0157257D01*
X0374741Y0157257D01*
X0375758Y0156240D01*
X0375758Y0154204D01*
X0374741Y0153187D01*
X0371688Y0153187D02*
X0370670Y0153187D01*
X0369653Y0154204D01*
X0369653Y0156240D01*
X0370670Y0157257D01*
X0370670Y0159632D02*
X0374741Y0159632D01*
X0375758Y0160650D01*
X0375758Y0162685D01*
X0374741Y0163703D01*
X0374741Y0166078D02*
X0375758Y0167095D01*
X0375758Y0169131D01*
X0374741Y0170148D01*
X0373723Y0170148D01*
X0372705Y0169131D01*
X0372705Y0167095D01*
X0371688Y0166078D01*
X0370670Y0166078D01*
X0369653Y0167095D01*
X0369653Y0169131D01*
X0370670Y0170148D01*
X0371688Y0172523D02*
X0371688Y0173541D01*
X0375758Y0173541D01*
X0375758Y0172523D02*
X0375758Y0174559D01*
X0375758Y0176820D02*
X0371688Y0176820D01*
X0371688Y0179873D01*
X0372705Y0180891D01*
X0375758Y0180891D01*
X0374741Y0183266D02*
X0372705Y0183266D01*
X0371688Y0184283D01*
X0371688Y0186319D01*
X0372705Y0187336D01*
X0374741Y0187336D01*
X0375758Y0186319D01*
X0375758Y0184283D01*
X0374741Y0183266D01*
X0372705Y0189711D02*
X0372705Y0193782D01*
X0372705Y0196157D02*
X0371688Y0197174D01*
X0371688Y0200227D01*
X0373723Y0199210D02*
X0373723Y0197174D01*
X0372705Y0196157D01*
X0375758Y0196157D02*
X0375758Y0199210D01*
X0374741Y0200227D01*
X0373723Y0199210D01*
X0371688Y0202602D02*
X0371688Y0204637D01*
X0370670Y0203620D02*
X0374741Y0203620D01*
X0375758Y0204637D01*
X0375758Y0206899D02*
X0371688Y0206899D01*
X0371688Y0207917D01*
X0372705Y0208934D01*
X0371688Y0209952D01*
X0372705Y0210970D01*
X0375758Y0210970D01*
X0375758Y0208934D02*
X0372705Y0208934D01*
X0370670Y0213345D02*
X0369653Y0214362D01*
X0369653Y0216398D01*
X0370670Y0217415D01*
X0371688Y0217415D01*
X0372705Y0216398D01*
X0373723Y0217415D01*
X0374741Y0217415D01*
X0375758Y0216398D01*
X0375758Y0214362D01*
X0374741Y0213345D01*
X0372705Y0215380D02*
X0372705Y0216398D01*
X0370670Y0219790D02*
X0369653Y0220808D01*
X0369653Y0222843D01*
X0370670Y0223861D01*
X0371688Y0223861D01*
X0375758Y0219790D01*
X0375758Y0223861D01*
X0369653Y0173541D02*
X0368635Y0173541D01*
X0370670Y0163703D02*
X0369653Y0162685D01*
X0369653Y0160650D01*
X0370670Y0159632D01*
X0372705Y0138995D02*
X0372705Y0134925D01*
X0371688Y0134925D02*
X0375758Y0134925D01*
D12*
X0347377Y0116117D02*
X0347377Y0115543D01*
X0346803Y0114970D01*
X0347377Y0114397D01*
X0347377Y0113823D01*
X0346803Y0113250D01*
X0345657Y0113250D01*
X0345083Y0113823D01*
X0343751Y0113823D02*
X0343178Y0113250D01*
X0342031Y0113250D01*
X0341458Y0113823D01*
X0341458Y0116117D01*
X0342031Y0116690D01*
X0343178Y0116690D01*
X0343751Y0116117D01*
X0345083Y0116117D02*
X0345657Y0116690D01*
X0346803Y0116690D01*
X0347377Y0116117D01*
X0346803Y0114970D02*
X0346230Y0114970D01*
X0344440Y0047500D02*
X0354440Y0047500D01*
X0364440Y0047500D02*
X0374440Y0047500D01*
X0384440Y0047500D02*
X0396940Y0047500D01*
X0399440Y0039500D01*
X0399440Y0033500D01*
X0399440Y0018500D02*
X0399440Y0013000D01*
X0396940Y0005000D01*
X0301940Y0005000D01*
X0299440Y0013000D01*
X0299440Y0018500D01*
X0299440Y0033500D02*
X0299440Y0039500D01*
X0301940Y0047500D01*
X0314440Y0047500D01*
X0324440Y0047500D02*
X0334440Y0047500D01*
X0293708Y0147000D02*
X0281708Y0147000D01*
X0281708Y0148000D01*
X0293708Y0148000D02*
X0293708Y0147000D01*
X0293708Y0172000D02*
X0293708Y0173000D01*
X0281708Y0173000D01*
X0281708Y0172000D01*
X0261708Y0186000D02*
X0261708Y0104000D01*
X0053708Y0104000D01*
X0053708Y0186000D01*
X0261708Y0186000D01*
X0250803Y0092190D02*
X0249083Y0090470D01*
X0251377Y0090470D01*
X0250803Y0088750D02*
X0250803Y0092190D01*
X0247751Y0091617D02*
X0247178Y0092190D01*
X0246031Y0092190D01*
X0245458Y0091617D01*
X0245458Y0089323D01*
X0246031Y0088750D01*
X0247178Y0088750D01*
X0247751Y0089323D01*
X0175877Y0087617D02*
X0175303Y0088190D01*
X0174157Y0088190D01*
X0173583Y0087617D01*
X0172251Y0087617D02*
X0171678Y0088190D01*
X0170531Y0088190D01*
X0169958Y0087617D01*
X0169958Y0085323D01*
X0170531Y0084750D01*
X0171678Y0084750D01*
X0172251Y0085323D01*
X0173583Y0084750D02*
X0175877Y0087043D01*
X0175877Y0087617D01*
X0175877Y0084750D02*
X0173583Y0084750D01*
X0145877Y0085250D02*
X0143583Y0085250D01*
X0144730Y0085250D02*
X0144730Y0088690D01*
X0143583Y0087543D01*
X0142251Y0088117D02*
X0141678Y0088690D01*
X0140531Y0088690D01*
X0139958Y0088117D01*
X0139958Y0085823D01*
X0140531Y0085250D01*
X0141678Y0085250D01*
X0142251Y0085823D01*
X0066803Y0190250D02*
X0065657Y0190250D01*
X0065083Y0190823D01*
X0065083Y0191970D02*
X0066230Y0192543D01*
X0066803Y0192543D01*
X0067377Y0191970D01*
X0067377Y0190823D01*
X0066803Y0190250D01*
X0065083Y0191970D02*
X0065083Y0193690D01*
X0067377Y0193690D01*
X0063751Y0193117D02*
X0063178Y0193690D01*
X0062031Y0193690D01*
X0061458Y0193117D01*
X0061458Y0190823D01*
X0062031Y0190250D01*
X0063178Y0190250D01*
X0063751Y0190823D01*
X0024342Y0144134D02*
X0016074Y0144134D01*
X0016208Y0144500D02*
X0017708Y0144500D01*
X0017708Y0146000D01*
X0016208Y0144500D01*
X0016291Y0144583D02*
X0017708Y0144583D01*
X0017708Y0145082D02*
X0016790Y0145082D01*
X0017288Y0145580D02*
X0017708Y0145580D01*
X0016074Y0135866D02*
X0024342Y0135866D01*
D13*
X0023615Y0132654D02*
X0020746Y0132654D01*
X0020746Y0128350D01*
X0023615Y0128350D01*
X0025350Y0128350D02*
X0025350Y0132654D01*
X0027502Y0132654D01*
X0028219Y0131936D01*
X0028219Y0129067D01*
X0027502Y0128350D01*
X0025350Y0128350D01*
X0022181Y0130502D02*
X0020746Y0130502D01*
X0019011Y0128350D02*
X0016142Y0128350D01*
X0016142Y0132654D01*
X0029954Y0131219D02*
X0031389Y0132654D01*
X0031389Y0128350D01*
X0032823Y0128350D02*
X0029954Y0128350D01*
X0041058Y0129154D02*
X0043210Y0129154D01*
X0043927Y0128436D01*
X0043927Y0127002D01*
X0043210Y0126285D01*
X0041058Y0126285D01*
X0042493Y0126285D02*
X0043927Y0124850D01*
X0045662Y0124850D02*
X0048531Y0124850D01*
X0047097Y0124850D02*
X0047097Y0129154D01*
X0045662Y0127719D01*
X0041058Y0129154D02*
X0041058Y0124850D01*
X0056058Y0137850D02*
X0056058Y0142154D01*
X0058210Y0142154D01*
X0058927Y0141436D01*
X0058927Y0140002D01*
X0058210Y0139285D01*
X0056058Y0139285D01*
X0057493Y0139285D02*
X0058927Y0137850D01*
X0060662Y0137850D02*
X0063531Y0140719D01*
X0063531Y0141436D01*
X0062814Y0142154D01*
X0061379Y0142154D01*
X0060662Y0141436D01*
X0060662Y0137850D02*
X0063531Y0137850D01*
X0048531Y0151567D02*
X0047814Y0150850D01*
X0046379Y0150850D01*
X0045662Y0151567D01*
X0043927Y0150850D02*
X0042493Y0152285D01*
X0043210Y0152285D02*
X0041058Y0152285D01*
X0041058Y0150850D02*
X0041058Y0155154D01*
X0043210Y0155154D01*
X0043927Y0154436D01*
X0043927Y0153002D01*
X0043210Y0152285D01*
X0045662Y0154436D02*
X0046379Y0155154D01*
X0047814Y0155154D01*
X0048531Y0154436D01*
X0048531Y0153719D01*
X0047814Y0153002D01*
X0048531Y0152285D01*
X0048531Y0151567D01*
X0047814Y0153002D02*
X0047097Y0153002D01*
X0054869Y0101654D02*
X0057321Y0101654D01*
X0058139Y0100837D01*
X0058139Y0100019D01*
X0057321Y0099202D01*
X0054869Y0099202D01*
X0054869Y0096750D02*
X0054869Y0101654D01*
X0057321Y0099202D02*
X0058139Y0098385D01*
X0058139Y0097567D01*
X0057321Y0096750D01*
X0054869Y0096750D01*
X0060026Y0096750D02*
X0060026Y0101654D01*
X0060026Y0096750D02*
X0063295Y0096750D01*
X0065182Y0097567D02*
X0065999Y0096750D01*
X0067634Y0096750D01*
X0068451Y0097567D01*
X0068451Y0101654D01*
X0070338Y0101654D02*
X0070338Y0096750D01*
X0073608Y0096750D01*
X0075495Y0095933D02*
X0078764Y0095933D01*
X0080651Y0096750D02*
X0080651Y0101654D01*
X0083103Y0101654D01*
X0083921Y0100837D01*
X0083921Y0099202D01*
X0083103Y0098385D01*
X0080651Y0098385D01*
X0085808Y0096750D02*
X0087442Y0096750D01*
X0086625Y0096750D02*
X0086625Y0101654D01*
X0085808Y0101654D02*
X0087442Y0101654D01*
X0089245Y0101654D02*
X0089245Y0096750D01*
X0092515Y0096750D01*
X0094402Y0096750D02*
X0097671Y0096750D01*
X0094402Y0096750D02*
X0094402Y0101654D01*
X0073608Y0101654D02*
X0070338Y0101654D01*
X0070338Y0099202D02*
X0071973Y0099202D01*
X0065182Y0097567D02*
X0065182Y0101654D01*
X0029823Y0076436D02*
X0029106Y0077154D01*
X0027671Y0077154D01*
X0026954Y0076436D01*
X0025219Y0077154D02*
X0025219Y0072850D01*
X0022350Y0077154D01*
X0022350Y0072850D01*
X0020615Y0072850D02*
X0019181Y0074285D01*
X0019898Y0074285D02*
X0017746Y0074285D01*
X0017746Y0072850D02*
X0017746Y0077154D01*
X0019898Y0077154D01*
X0020615Y0076436D01*
X0020615Y0075002D01*
X0019898Y0074285D01*
X0026954Y0072850D02*
X0029823Y0075719D01*
X0029823Y0076436D01*
X0029823Y0072850D02*
X0026954Y0072850D01*
X0152558Y0084350D02*
X0153993Y0084350D01*
X0153275Y0084350D02*
X0153275Y0088654D01*
X0152558Y0088654D02*
X0153993Y0088654D01*
X0155627Y0087936D02*
X0155627Y0085067D01*
X0156345Y0084350D01*
X0157779Y0084350D01*
X0158496Y0085067D01*
X0160231Y0084350D02*
X0163100Y0087219D01*
X0163100Y0087936D01*
X0162383Y0088654D01*
X0160949Y0088654D01*
X0160231Y0087936D01*
X0158496Y0087936D02*
X0157779Y0088654D01*
X0156345Y0088654D01*
X0155627Y0087936D01*
X0160231Y0084350D02*
X0163100Y0084350D01*
X0282246Y0139850D02*
X0282246Y0144154D01*
X0284398Y0144154D01*
X0285115Y0143436D01*
X0285115Y0142002D01*
X0284398Y0141285D01*
X0282246Y0141285D01*
X0283681Y0141285D02*
X0285115Y0139850D01*
X0286850Y0139850D02*
X0286850Y0144154D01*
X0289719Y0139850D01*
X0289719Y0144154D01*
X0291454Y0142719D02*
X0292889Y0144154D01*
X0292889Y0139850D01*
X0294323Y0139850D02*
X0291454Y0139850D01*
X0310231Y0131456D02*
X0310231Y0128587D01*
X0310948Y0127870D01*
X0312382Y0127870D01*
X0313100Y0128587D01*
X0314834Y0127870D02*
X0314834Y0132173D01*
X0317704Y0127870D01*
X0317704Y0132173D01*
X0319438Y0131456D02*
X0320156Y0132173D01*
X0321590Y0132173D01*
X0322307Y0131456D01*
X0322307Y0130739D01*
X0321590Y0130022D01*
X0322307Y0129304D01*
X0322307Y0128587D01*
X0321590Y0127870D01*
X0320156Y0127870D01*
X0319438Y0128587D01*
X0320873Y0130022D02*
X0321590Y0130022D01*
X0313100Y0131456D02*
X0312382Y0132173D01*
X0310948Y0132173D01*
X0310231Y0131456D01*
X0298697Y0077154D02*
X0299414Y0076436D01*
X0299414Y0075719D01*
X0298697Y0075002D01*
X0299414Y0074285D01*
X0299414Y0073567D01*
X0298697Y0072850D01*
X0297262Y0072850D01*
X0296545Y0073567D01*
X0294810Y0072850D02*
X0294810Y0077154D01*
X0296545Y0076436D02*
X0297262Y0077154D01*
X0298697Y0077154D01*
X0298697Y0075002D02*
X0297979Y0075002D01*
X0294810Y0072850D02*
X0291941Y0077154D01*
X0291941Y0072850D01*
X0290206Y0072850D02*
X0288771Y0074285D01*
X0289489Y0074285D02*
X0287337Y0074285D01*
X0287337Y0072850D02*
X0287337Y0077154D01*
X0289489Y0077154D01*
X0290206Y0076436D01*
X0290206Y0075002D01*
X0289489Y0074285D01*
X0387979Y0053936D02*
X0387979Y0051067D01*
X0388696Y0050350D01*
X0390130Y0050350D01*
X0390848Y0051067D01*
X0392582Y0050350D02*
X0392582Y0054654D01*
X0395452Y0050350D01*
X0395452Y0054654D01*
X0397186Y0053219D02*
X0398621Y0054654D01*
X0398621Y0050350D01*
X0397186Y0050350D02*
X0400056Y0050350D01*
X0390848Y0053936D02*
X0390130Y0054654D01*
X0388696Y0054654D01*
X0387979Y0053936D01*
D14*
X0283330Y0006654D02*
X0273818Y0006654D01*
X0278574Y0017409D01*
X0283330Y0006654D01*
D15*
X0298495Y0005000D02*
X0298495Y0041614D01*
X0018495Y0041614D01*
X0018495Y0005000D01*
X0150228Y0005000D01*
X0150228Y0030000D01*
X0157495Y0030000D01*
X0157495Y0010000D01*
X0157995Y0009500D01*
X0158995Y0009500D01*
X0159495Y0010000D01*
X0159495Y0030000D01*
X0166763Y0030000D01*
X0166763Y0005000D01*
X0150228Y0005000D01*
X0150495Y0007000D02*
X0166495Y0007000D01*
X0166763Y0005000D02*
X0298495Y0005000D01*
X0159495Y0030000D02*
X0157495Y0030000D01*
X0054208Y0131000D02*
X0054208Y0137000D01*
X0054208Y0143000D01*
X0054208Y0149000D01*
X0051208Y0149000D01*
X0051208Y0143000D02*
X0054208Y0143000D01*
X0051208Y0143000D01*
X0051208Y0137000D02*
X0054208Y0137000D01*
X0051208Y0137000D01*
X0051208Y0131000D02*
X0054208Y0131000D01*
X0044208Y0131000D02*
X0041208Y0131000D01*
X0041208Y0137000D01*
X0041208Y0143000D01*
X0041208Y0149000D01*
X0044208Y0149000D01*
X0044208Y0143000D02*
X0041208Y0143000D01*
X0044208Y0143000D01*
X0044208Y0137000D02*
X0041208Y0137000D01*
X0044208Y0137000D01*
D16*
X0310346Y0135472D02*
X0310346Y0191378D01*
X0315070Y0198465D02*
X0361921Y0198465D01*
X0365070Y0187835D02*
X0365070Y0180354D01*
X0365070Y0175630D02*
X0365070Y0157126D01*
X0365070Y0150039D02*
X0365070Y0135472D01*
X0363102Y0135472D01*
X0317826Y0135472D02*
X0310543Y0135472D01*
D17*
X0283299Y0080500D02*
X0273299Y0080500D01*
X0183299Y0080500D01*
X0183299Y0070500D01*
X0273299Y0070500D01*
X0283299Y0070500D01*
X0280799Y0073000D01*
X0283299Y0070500D02*
X0283299Y0080500D01*
X0280799Y0078000D01*
X0275799Y0078000D02*
X0273299Y0080500D01*
X0273299Y0070500D01*
X0275799Y0073000D01*
X0258174Y0136831D02*
X0254004Y0136831D01*
X0254004Y0140167D02*
X0258174Y0140167D01*
X0259008Y0139333D01*
X0259008Y0137665D01*
X0258174Y0136831D01*
X0258174Y0141987D02*
X0259008Y0142821D01*
X0259008Y0144489D01*
X0258174Y0145323D01*
X0257340Y0145323D01*
X0256506Y0144489D01*
X0256506Y0142821D01*
X0255672Y0141987D01*
X0254838Y0141987D01*
X0254004Y0142821D01*
X0254004Y0144489D01*
X0254838Y0145323D01*
X0254004Y0147144D02*
X0254004Y0149646D01*
X0254838Y0150480D01*
X0255672Y0150480D01*
X0256506Y0149646D01*
X0256506Y0147144D01*
X0256506Y0149646D02*
X0257340Y0150480D01*
X0258174Y0150480D01*
X0259008Y0149646D01*
X0259008Y0147144D01*
X0254004Y0147144D01*
X0163708Y0078000D02*
X0163208Y0078000D01*
X0163787Y0077807D02*
X0163787Y0072197D01*
X0163708Y0072000D02*
X0163208Y0072000D01*
X0159708Y0078000D02*
X0155708Y0078000D01*
X0152208Y0078000D02*
X0151708Y0078000D01*
X0151629Y0077807D02*
X0151629Y0072197D01*
X0151708Y0072000D02*
X0152208Y0072000D01*
X0133708Y0070500D02*
X0123708Y0070500D01*
X0123708Y0080500D01*
X0033708Y0080500D01*
X0033708Y0070500D01*
X0123708Y0070500D01*
X0126208Y0073000D01*
X0126208Y0078000D02*
X0123708Y0080500D01*
X0133708Y0080500D01*
X0131208Y0078000D01*
X0133708Y0080500D02*
X0133708Y0070500D01*
X0131208Y0073000D01*
D18*
X0138771Y0071063D02*
X0138771Y0067717D01*
X0146645Y0067717D01*
X0146645Y0071063D01*
X0146645Y0078937D02*
X0146645Y0082283D01*
X0138771Y0082283D01*
X0138771Y0078937D01*
X0168771Y0078937D02*
X0168771Y0082283D01*
X0176645Y0082283D01*
X0176645Y0078937D01*
X0176645Y0071063D02*
X0176645Y0067717D01*
X0168771Y0067717D01*
X0168771Y0071063D01*
X0240925Y0094063D02*
X0244271Y0094063D01*
X0240925Y0094063D02*
X0240925Y0101937D01*
X0244271Y0101937D01*
X0252145Y0101937D02*
X0255492Y0101937D01*
X0255492Y0094063D01*
X0252145Y0094063D01*
X0336925Y0118563D02*
X0340271Y0118563D01*
X0336925Y0118563D02*
X0336925Y0126437D01*
X0340271Y0126437D01*
X0348145Y0126437D02*
X0351492Y0126437D01*
X0351492Y0118563D01*
X0348145Y0118563D01*
X0084492Y0188063D02*
X0081145Y0188063D01*
X0084492Y0188063D02*
X0084492Y0195937D01*
X0081145Y0195937D01*
X0073271Y0195937D02*
X0069925Y0195937D01*
X0069925Y0188063D01*
X0073271Y0188063D01*
D19*
X0332708Y0092000D02*
X0332608Y0090800D01*
X0332608Y0088200D01*
X0336808Y0087500D01*
X0337008Y0086500D01*
X0337408Y0085500D01*
X0337808Y0084600D01*
X0338208Y0083800D01*
X0335808Y0080600D01*
X0336408Y0079900D01*
X0337108Y0079200D01*
X0337808Y0078500D01*
X0338408Y0078000D01*
X0341808Y0080300D01*
X0342508Y0079900D01*
X0343208Y0079600D01*
X0343808Y0079300D01*
X0346208Y0086100D01*
X0345505Y0086436D01*
X0344876Y0086897D01*
X0344343Y0087467D01*
X0343926Y0088126D01*
X0343639Y0088851D01*
X0343491Y0089616D01*
X0343488Y0090396D01*
X0343630Y0091163D01*
X0343912Y0091890D01*
X0344324Y0092552D01*
X0344852Y0093126D01*
X0345478Y0093591D01*
X0346179Y0093933D01*
X0346931Y0094138D01*
X0347708Y0094200D01*
X0348499Y0094175D01*
X0349270Y0094002D01*
X0349996Y0093687D01*
X0350650Y0093242D01*
X0351209Y0092682D01*
X0351652Y0092028D01*
X0351966Y0091301D01*
X0352137Y0090529D01*
X0352161Y0089739D01*
X0352036Y0088958D01*
X0351767Y0088214D01*
X0351363Y0087534D01*
X0350839Y0086941D01*
X0350214Y0086458D01*
X0349508Y0086100D01*
X0352108Y0079400D01*
X0352808Y0079800D01*
X0353508Y0080200D01*
X0354208Y0080600D01*
X0357508Y0078200D01*
X0358208Y0078900D01*
X0358808Y0079500D01*
X0359408Y0080200D01*
X0360008Y0080900D01*
X0357608Y0084500D01*
X0358108Y0085300D01*
X0358408Y0086200D01*
X0358708Y0087100D01*
X0358908Y0087800D01*
X0362908Y0088500D01*
X0363008Y0089600D01*
X0363008Y0090500D01*
X0362908Y0091300D01*
X0362808Y0092300D01*
X0358708Y0093000D01*
X0358308Y0094100D01*
X0358108Y0094700D01*
X0357708Y0095400D01*
X0357208Y0096200D01*
X0359708Y0099400D01*
X0359108Y0100100D01*
X0358408Y0100800D01*
X0357608Y0101500D01*
X0356808Y0102200D01*
X0353408Y0099800D01*
X0352508Y0100200D01*
X0351708Y0100600D01*
X0351008Y0100800D01*
X0350308Y0101000D01*
X0349708Y0105100D01*
X0345908Y0105100D01*
X0345108Y0101000D01*
X0344008Y0100700D01*
X0343208Y0100300D01*
X0342008Y0099700D01*
X0338608Y0102100D01*
X0337908Y0101500D01*
X0337208Y0100800D01*
X0336508Y0100100D01*
X0335908Y0099400D01*
X0338208Y0096000D01*
X0337708Y0095100D01*
X0337308Y0094200D01*
X0337008Y0093400D01*
X0336708Y0092600D01*
X0332708Y0092000D01*
X0332704Y0091948D02*
X0343948Y0091948D01*
X0343858Y0091749D02*
X0332687Y0091749D01*
X0332671Y0091551D02*
X0343781Y0091551D01*
X0343704Y0091352D02*
X0332654Y0091352D01*
X0332638Y0091154D02*
X0343628Y0091154D01*
X0343592Y0090955D02*
X0332621Y0090955D01*
X0332608Y0090757D02*
X0343555Y0090757D01*
X0343518Y0090558D02*
X0332608Y0090558D01*
X0332608Y0090360D02*
X0343488Y0090360D01*
X0343489Y0090161D02*
X0332608Y0090161D01*
X0332608Y0089963D02*
X0343490Y0089963D01*
X0343491Y0089764D02*
X0332608Y0089764D01*
X0332608Y0089566D02*
X0343501Y0089566D01*
X0343539Y0089367D02*
X0332608Y0089367D01*
X0332608Y0089169D02*
X0343577Y0089169D01*
X0343616Y0088970D02*
X0332608Y0088970D01*
X0332608Y0088772D02*
X0343670Y0088772D01*
X0343749Y0088573D02*
X0332608Y0088573D01*
X0332608Y0088375D02*
X0343828Y0088375D01*
X0343906Y0088176D02*
X0332751Y0088176D01*
X0333942Y0087978D02*
X0344020Y0087978D01*
X0344146Y0087779D02*
X0335133Y0087779D01*
X0336324Y0087581D02*
X0344271Y0087581D01*
X0344423Y0087382D02*
X0336832Y0087382D01*
X0336871Y0087184D02*
X0344608Y0087184D01*
X0344793Y0086985D02*
X0336911Y0086985D01*
X0336951Y0086787D02*
X0345026Y0086787D01*
X0345297Y0086588D02*
X0336990Y0086588D01*
X0337052Y0086390D02*
X0345602Y0086390D01*
X0346017Y0086191D02*
X0337132Y0086191D01*
X0337211Y0085993D02*
X0346170Y0085993D01*
X0346100Y0085794D02*
X0337290Y0085794D01*
X0337370Y0085596D02*
X0346030Y0085596D01*
X0345960Y0085397D02*
X0337454Y0085397D01*
X0337542Y0085199D02*
X0345890Y0085199D01*
X0345820Y0085000D02*
X0337630Y0085000D01*
X0337718Y0084802D02*
X0345750Y0084802D01*
X0345680Y0084603D02*
X0337807Y0084603D01*
X0337906Y0084405D02*
X0345610Y0084405D01*
X0345540Y0084206D02*
X0338005Y0084206D01*
X0338104Y0084008D02*
X0345470Y0084008D01*
X0345399Y0083809D02*
X0338204Y0083809D01*
X0338066Y0083610D02*
X0345329Y0083610D01*
X0345259Y0083412D02*
X0337917Y0083412D01*
X0337768Y0083213D02*
X0345189Y0083213D01*
X0345119Y0083015D02*
X0337619Y0083015D01*
X0337470Y0082816D02*
X0345049Y0082816D01*
X0344979Y0082618D02*
X0337322Y0082618D01*
X0337173Y0082419D02*
X0344909Y0082419D01*
X0344839Y0082221D02*
X0337024Y0082221D01*
X0336875Y0082022D02*
X0344769Y0082022D01*
X0344699Y0081824D02*
X0336726Y0081824D01*
X0336577Y0081625D02*
X0344629Y0081625D01*
X0344559Y0081427D02*
X0336428Y0081427D01*
X0336279Y0081228D02*
X0344489Y0081228D01*
X0344419Y0081030D02*
X0336130Y0081030D01*
X0335982Y0080831D02*
X0344349Y0080831D01*
X0344278Y0080633D02*
X0335833Y0080633D01*
X0335950Y0080434D02*
X0344208Y0080434D01*
X0344138Y0080236D02*
X0341920Y0080236D01*
X0341713Y0080236D02*
X0336120Y0080236D01*
X0336290Y0080037D02*
X0341420Y0080037D01*
X0341126Y0079839D02*
X0336469Y0079839D01*
X0336668Y0079640D02*
X0340833Y0079640D01*
X0340539Y0079442D02*
X0336866Y0079442D01*
X0337065Y0079243D02*
X0340246Y0079243D01*
X0339952Y0079045D02*
X0337263Y0079045D01*
X0337462Y0078846D02*
X0339659Y0078846D01*
X0339366Y0078648D02*
X0337660Y0078648D01*
X0337869Y0078449D02*
X0339072Y0078449D01*
X0338779Y0078251D02*
X0338107Y0078251D01*
X0338345Y0078052D02*
X0338485Y0078052D01*
X0342268Y0080037D02*
X0344068Y0080037D01*
X0343998Y0079839D02*
X0342651Y0079839D01*
X0343114Y0079640D02*
X0343928Y0079640D01*
X0343858Y0079442D02*
X0343525Y0079442D01*
X0350936Y0082419D02*
X0358995Y0082419D01*
X0359127Y0082221D02*
X0351013Y0082221D01*
X0351090Y0082022D02*
X0359260Y0082022D01*
X0359392Y0081824D02*
X0351167Y0081824D01*
X0351244Y0081625D02*
X0359524Y0081625D01*
X0359657Y0081427D02*
X0351322Y0081427D01*
X0351399Y0081228D02*
X0359789Y0081228D01*
X0359922Y0081030D02*
X0351476Y0081030D01*
X0351553Y0080831D02*
X0359949Y0080831D01*
X0359779Y0080633D02*
X0351630Y0080633D01*
X0351707Y0080434D02*
X0353918Y0080434D01*
X0353571Y0080236D02*
X0351784Y0080236D01*
X0351861Y0080037D02*
X0353223Y0080037D01*
X0352876Y0079839D02*
X0351938Y0079839D01*
X0352015Y0079640D02*
X0352529Y0079640D01*
X0352181Y0079442D02*
X0352092Y0079442D01*
X0354436Y0080434D02*
X0359609Y0080434D01*
X0359439Y0080236D02*
X0354709Y0080236D01*
X0354982Y0080037D02*
X0359269Y0080037D01*
X0359098Y0079839D02*
X0355255Y0079839D01*
X0355528Y0079640D02*
X0358928Y0079640D01*
X0358750Y0079442D02*
X0355801Y0079442D01*
X0356074Y0079243D02*
X0358551Y0079243D01*
X0358353Y0079045D02*
X0356347Y0079045D01*
X0356620Y0078846D02*
X0358154Y0078846D01*
X0357956Y0078648D02*
X0356892Y0078648D01*
X0357165Y0078449D02*
X0357757Y0078449D01*
X0357559Y0078251D02*
X0357438Y0078251D01*
X0358863Y0082618D02*
X0350859Y0082618D01*
X0350782Y0082816D02*
X0358730Y0082816D01*
X0358598Y0083015D02*
X0350705Y0083015D01*
X0350628Y0083213D02*
X0358466Y0083213D01*
X0358333Y0083412D02*
X0350551Y0083412D01*
X0350474Y0083610D02*
X0358201Y0083610D01*
X0358069Y0083809D02*
X0350397Y0083809D01*
X0350320Y0084008D02*
X0357936Y0084008D01*
X0357804Y0084206D02*
X0350243Y0084206D01*
X0350166Y0084405D02*
X0357672Y0084405D01*
X0357672Y0084603D02*
X0350089Y0084603D01*
X0350012Y0084802D02*
X0357797Y0084802D01*
X0357921Y0085000D02*
X0349935Y0085000D01*
X0349858Y0085199D02*
X0358045Y0085199D01*
X0358140Y0085397D02*
X0349781Y0085397D01*
X0349704Y0085596D02*
X0358207Y0085596D01*
X0358273Y0085794D02*
X0349627Y0085794D01*
X0349550Y0085993D02*
X0358339Y0085993D01*
X0358405Y0086191D02*
X0349688Y0086191D01*
X0350079Y0086390D02*
X0358471Y0086390D01*
X0358537Y0086588D02*
X0350382Y0086588D01*
X0350639Y0086787D02*
X0358604Y0086787D01*
X0358670Y0086985D02*
X0350878Y0086985D01*
X0351054Y0087184D02*
X0358732Y0087184D01*
X0358789Y0087382D02*
X0351229Y0087382D01*
X0351391Y0087581D02*
X0358845Y0087581D01*
X0358902Y0087779D02*
X0351509Y0087779D01*
X0351627Y0087978D02*
X0359924Y0087978D01*
X0361058Y0088176D02*
X0351745Y0088176D01*
X0351825Y0088375D02*
X0362192Y0088375D01*
X0362915Y0088573D02*
X0351897Y0088573D01*
X0351969Y0088772D02*
X0362933Y0088772D01*
X0362951Y0088970D02*
X0352038Y0088970D01*
X0352070Y0089169D02*
X0362969Y0089169D01*
X0362987Y0089367D02*
X0352102Y0089367D01*
X0352134Y0089566D02*
X0363005Y0089566D01*
X0363008Y0089764D02*
X0352160Y0089764D01*
X0352154Y0089963D02*
X0363008Y0089963D01*
X0363008Y0090161D02*
X0352148Y0090161D01*
X0352142Y0090360D02*
X0363008Y0090360D01*
X0363001Y0090558D02*
X0352131Y0090558D01*
X0352087Y0090757D02*
X0362976Y0090757D01*
X0362951Y0090955D02*
X0352043Y0090955D01*
X0351999Y0091154D02*
X0362926Y0091154D01*
X0362903Y0091352D02*
X0351944Y0091352D01*
X0351858Y0091551D02*
X0362883Y0091551D01*
X0362863Y0091749D02*
X0351772Y0091749D01*
X0351687Y0091948D02*
X0362843Y0091948D01*
X0362823Y0092146D02*
X0351572Y0092146D01*
X0351437Y0092345D02*
X0362545Y0092345D01*
X0361382Y0092543D02*
X0351303Y0092543D01*
X0351149Y0092742D02*
X0360219Y0092742D01*
X0359056Y0092941D02*
X0350951Y0092941D01*
X0350753Y0093139D02*
X0358658Y0093139D01*
X0358585Y0093338D02*
X0350509Y0093338D01*
X0350218Y0093536D02*
X0358513Y0093536D01*
X0358441Y0093735D02*
X0349887Y0093735D01*
X0349429Y0093933D02*
X0358369Y0093933D01*
X0358298Y0094132D02*
X0348691Y0094132D01*
X0346907Y0094132D02*
X0337282Y0094132D01*
X0337208Y0093933D02*
X0346180Y0093933D01*
X0345772Y0093735D02*
X0337134Y0093735D01*
X0337059Y0093536D02*
X0345403Y0093536D01*
X0345137Y0093338D02*
X0336985Y0093338D01*
X0336910Y0093139D02*
X0344870Y0093139D01*
X0344682Y0092941D02*
X0336836Y0092941D01*
X0336761Y0092742D02*
X0344499Y0092742D01*
X0344319Y0092543D02*
X0336331Y0092543D01*
X0335008Y0092345D02*
X0344195Y0092345D01*
X0344072Y0092146D02*
X0333685Y0092146D01*
X0337366Y0094330D02*
X0358231Y0094330D01*
X0358165Y0094529D02*
X0337454Y0094529D01*
X0337542Y0094727D02*
X0358093Y0094727D01*
X0357979Y0094926D02*
X0337631Y0094926D01*
X0337721Y0095124D02*
X0357866Y0095124D01*
X0357752Y0095323D02*
X0337832Y0095323D01*
X0337942Y0095521D02*
X0357632Y0095521D01*
X0357508Y0095720D02*
X0338052Y0095720D01*
X0338163Y0095918D02*
X0357384Y0095918D01*
X0357260Y0096117D02*
X0338129Y0096117D01*
X0337995Y0096315D02*
X0357298Y0096315D01*
X0357453Y0096514D02*
X0337861Y0096514D01*
X0337726Y0096712D02*
X0357608Y0096712D01*
X0357763Y0096911D02*
X0337592Y0096911D01*
X0337458Y0097109D02*
X0357918Y0097109D01*
X0358073Y0097308D02*
X0337323Y0097308D01*
X0337189Y0097506D02*
X0358229Y0097506D01*
X0358384Y0097705D02*
X0337055Y0097705D01*
X0336921Y0097903D02*
X0358539Y0097903D01*
X0358694Y0098102D02*
X0336786Y0098102D01*
X0336652Y0098300D02*
X0358849Y0098300D01*
X0359004Y0098499D02*
X0336518Y0098499D01*
X0336383Y0098697D02*
X0359159Y0098697D01*
X0359314Y0098896D02*
X0336249Y0098896D01*
X0336115Y0099094D02*
X0359469Y0099094D01*
X0359624Y0099293D02*
X0335981Y0099293D01*
X0335986Y0099491D02*
X0359630Y0099491D01*
X0359460Y0099690D02*
X0336157Y0099690D01*
X0336327Y0099888D02*
X0341741Y0099888D01*
X0341460Y0100087D02*
X0336497Y0100087D01*
X0336694Y0100285D02*
X0341179Y0100285D01*
X0340897Y0100484D02*
X0336892Y0100484D01*
X0337091Y0100682D02*
X0340616Y0100682D01*
X0340335Y0100881D02*
X0337289Y0100881D01*
X0337488Y0101079D02*
X0340054Y0101079D01*
X0339773Y0101278D02*
X0337686Y0101278D01*
X0337885Y0101477D02*
X0339491Y0101477D01*
X0339210Y0101675D02*
X0338112Y0101675D01*
X0338344Y0101874D02*
X0338929Y0101874D01*
X0338648Y0102072D02*
X0338575Y0102072D01*
X0342385Y0099888D02*
X0353209Y0099888D01*
X0353533Y0099888D02*
X0359289Y0099888D01*
X0359119Y0100087D02*
X0353815Y0100087D01*
X0354096Y0100285D02*
X0358923Y0100285D01*
X0358724Y0100484D02*
X0354377Y0100484D01*
X0354658Y0100682D02*
X0358526Y0100682D01*
X0358316Y0100881D02*
X0354939Y0100881D01*
X0355221Y0101079D02*
X0358089Y0101079D01*
X0357862Y0101278D02*
X0355502Y0101278D01*
X0355783Y0101477D02*
X0357635Y0101477D01*
X0357408Y0101675D02*
X0356064Y0101675D01*
X0356346Y0101874D02*
X0357181Y0101874D01*
X0356954Y0102072D02*
X0356627Y0102072D01*
X0352762Y0100087D02*
X0342782Y0100087D01*
X0343179Y0100285D02*
X0352337Y0100285D01*
X0351940Y0100484D02*
X0343576Y0100484D01*
X0343973Y0100682D02*
X0351419Y0100682D01*
X0350725Y0100881D02*
X0344672Y0100881D01*
X0345124Y0101079D02*
X0350296Y0101079D01*
X0350267Y0101278D02*
X0345162Y0101278D01*
X0345201Y0101477D02*
X0350238Y0101477D01*
X0350209Y0101675D02*
X0345240Y0101675D01*
X0345279Y0101874D02*
X0350180Y0101874D01*
X0350151Y0102072D02*
X0345317Y0102072D01*
X0345356Y0102271D02*
X0350122Y0102271D01*
X0350093Y0102469D02*
X0345395Y0102469D01*
X0345433Y0102668D02*
X0350064Y0102668D01*
X0350035Y0102866D02*
X0345472Y0102866D01*
X0345511Y0103065D02*
X0350006Y0103065D01*
X0349977Y0103263D02*
X0345550Y0103263D01*
X0345588Y0103462D02*
X0349948Y0103462D01*
X0349919Y0103660D02*
X0345627Y0103660D01*
X0345666Y0103859D02*
X0349890Y0103859D01*
X0349861Y0104057D02*
X0345705Y0104057D01*
X0345743Y0104256D02*
X0349832Y0104256D01*
X0349803Y0104454D02*
X0345782Y0104454D01*
X0345821Y0104653D02*
X0349774Y0104653D01*
X0349744Y0104851D02*
X0345860Y0104851D01*
X0345898Y0105050D02*
X0349715Y0105050D01*
D20*
X0349160Y0073869D02*
X0349160Y0071567D01*
X0349927Y0070800D01*
X0352229Y0070800D01*
X0352229Y0073869D01*
X0353764Y0073869D02*
X0353764Y0070800D01*
X0353764Y0072335D02*
X0355298Y0073869D01*
X0356065Y0073869D01*
X0357600Y0073102D02*
X0357600Y0071567D01*
X0358367Y0070800D01*
X0360669Y0070800D01*
X0362204Y0071567D02*
X0362204Y0073102D01*
X0362971Y0073869D01*
X0364506Y0073869D01*
X0365273Y0073102D01*
X0365273Y0072335D01*
X0362204Y0072335D01*
X0362204Y0071567D02*
X0362971Y0070800D01*
X0364506Y0070800D01*
X0360669Y0073869D02*
X0358367Y0073869D01*
X0357600Y0073102D01*
X0357600Y0066369D02*
X0356833Y0065602D01*
X0356833Y0064067D01*
X0357600Y0063300D01*
X0359135Y0063300D01*
X0359902Y0064835D02*
X0356833Y0064835D01*
X0357600Y0066369D02*
X0359135Y0066369D01*
X0359902Y0065602D01*
X0359902Y0064835D01*
X0355298Y0066369D02*
X0354531Y0066369D01*
X0352996Y0064835D01*
X0352996Y0066369D02*
X0352996Y0063300D01*
X0351462Y0063300D02*
X0349160Y0063300D01*
X0348392Y0064067D01*
X0349160Y0064835D01*
X0351462Y0064835D01*
X0351462Y0065602D02*
X0351462Y0063300D01*
X0351462Y0065602D02*
X0350694Y0066369D01*
X0349160Y0066369D01*
X0346858Y0066369D02*
X0346858Y0064067D01*
X0346090Y0063300D01*
X0345323Y0064067D01*
X0344556Y0063300D01*
X0343788Y0064067D01*
X0343788Y0066369D01*
X0342254Y0066369D02*
X0339952Y0066369D01*
X0339184Y0065602D01*
X0339184Y0064067D01*
X0339952Y0063300D01*
X0342254Y0063300D01*
X0342254Y0067904D01*
X0342254Y0070800D02*
X0343021Y0071567D01*
X0342254Y0072335D01*
X0340719Y0072335D01*
X0339952Y0073102D01*
X0340719Y0073869D01*
X0343021Y0073869D01*
X0344556Y0073102D02*
X0344556Y0071567D01*
X0345323Y0070800D01*
X0346858Y0070800D01*
X0347625Y0071567D01*
X0347625Y0073102D01*
X0346858Y0073869D01*
X0345323Y0073869D01*
X0344556Y0073102D01*
X0342254Y0070800D02*
X0339952Y0070800D01*
X0337650Y0066369D02*
X0336882Y0066369D01*
X0335348Y0064835D01*
X0335348Y0066369D02*
X0335348Y0063300D01*
X0333813Y0063300D02*
X0331511Y0063300D01*
X0330744Y0064067D01*
X0331511Y0064835D01*
X0333813Y0064835D01*
X0333813Y0065602D02*
X0333813Y0063300D01*
X0333813Y0065602D02*
X0333046Y0066369D01*
X0331511Y0066369D01*
X0329209Y0065602D02*
X0329209Y0063300D01*
X0329209Y0065602D02*
X0328442Y0066369D01*
X0326907Y0066369D01*
X0326140Y0065602D01*
X0326140Y0067904D02*
X0326140Y0063300D01*
X0321536Y0069265D02*
X0321536Y0073869D01*
X0323838Y0073869D01*
X0324605Y0073102D01*
X0324605Y0071567D01*
X0323838Y0070800D01*
X0321536Y0070800D01*
X0320001Y0071567D02*
X0320001Y0073102D01*
X0319234Y0073869D01*
X0317699Y0073869D01*
X0316932Y0073102D01*
X0316932Y0071567D01*
X0317699Y0070800D01*
X0319234Y0070800D01*
X0320001Y0071567D01*
X0326140Y0071567D02*
X0326907Y0070800D01*
X0328442Y0070800D01*
X0329209Y0072335D02*
X0326140Y0072335D01*
X0326140Y0073102D02*
X0326907Y0073869D01*
X0328442Y0073869D01*
X0329209Y0073102D01*
X0329209Y0072335D01*
X0330744Y0073869D02*
X0333046Y0073869D01*
X0333813Y0073102D01*
X0333813Y0070800D01*
X0330744Y0070800D02*
X0330744Y0073869D01*
X0326140Y0073102D02*
X0326140Y0071567D01*
M02*
