%
M48
M72
T01C0.02362
T02C0.03150
T03C0.03200
T04C0.03937
T05C0.05906
T06C0.09055
T07C0.12598
%
T01
X52708Y645000
T02
X272708Y185000
X302708Y170000
X302708Y125000
X272708Y98760
X234208Y97000
X234208Y105000
X212708Y97000
X202708Y105000
X332708Y122500
X355708Y122500
X362708Y128000
X362708Y110000
T03
X278299Y75500
X268299Y75500
X258299Y75500
X248299Y75500
X238299Y75500
X228299Y75500
X218299Y75500
X208299Y75500
X198299Y75500
X188299Y75500
X128708Y75500
X118708Y75500
X108708Y75500
X98708Y75500
X88708Y75500
X78708Y75500
X68708Y75500
X58708Y75500
X48708Y75500
X38708Y75500
T04
X38495Y47205
X38495Y57205
X48495Y57205
X48495Y47205
X58495Y47205
X58495Y57205
X68495Y57205
X68495Y47205
X78495Y47205
X78495Y57205
X88495Y57205
X88495Y47205
X98495Y47205
X98495Y57205
X108495Y57205
X108495Y47205
X118495Y47205
X118495Y57205
X128495Y57205
X128495Y47205
X138495Y47205
X138495Y57205
X148495Y57205
X148495Y47205
X158495Y47205
X158495Y57205
X168495Y57205
X168495Y47205
X178495Y47205
X178495Y57205
X188495Y57205
X188495Y47205
X198495Y47205
X198495Y57205
X208495Y57205
X208495Y47205
X218495Y47205
X218495Y57205
X228495Y57205
X228495Y47205
X238495Y47205
X238495Y57205
X248495Y57205
X248495Y47205
X258495Y47205
X258495Y57205
X268495Y57205
X268495Y47205
X278495Y47205
X278495Y57205
X252708Y115000
X242708Y115000
X232708Y115000
X222708Y115000
X212708Y115000
X202708Y115000
X192708Y115000
X182708Y115000
X172708Y115000
X162708Y115000
X152708Y115000
X142708Y115000
X132708Y115000
X122708Y115000
X112708Y115000
X102708Y115000
X92708Y115000
X82708Y115000
X72708Y115000
X62708Y115000
X62708Y175000
X72708Y175000
X82708Y175000
X92708Y175000
X102708Y175000
X112708Y175000
X122708Y175000
X132708Y175000
X142708Y175000
X152708Y175000
X162708Y175000
X172708Y175000
X182708Y175000
X192708Y175000
X202708Y175000
X212708Y175000
X222708Y175000
X232708Y175000
X242708Y175000
X252708Y175000
T05
X319440Y47323
X339440Y47323
X359440Y47323
X379440Y47323
T06
X396094Y25866
X302787Y25866
T07
X395188Y167520
X20228Y167520
M30
